SplineFontDB: 3.0
FontName: EUEX7
FullName: EUEX7
FamilyName: Euler
Weight: Normal
Copyright: Copyright (c) 1997, 2009 American Mathematical Society (<http://www.ams.org>), with Reserved Font Name EUEX7.
Version: 003.001
ItalicAngle: 0
UnderlinePosition: -100
UnderlineWidth: 50
Ascent: 800
Descent: 200
LayerCount: 2
Layer: 0 0 "Back"  1
Layer: 1 0 "Fore"  0
UniqueID: 5096678
OS2Version: 0
OS2_WeightWidthSlopeOnly: 0
OS2_UseTypoMetrics: 0
CreationTime: 1245785330
ModificationTime: 1245785330
OS2TypoAscent: 0
OS2TypoAOffset: 1
OS2TypoDescent: 0
OS2TypoDOffset: 1
OS2TypoLinegap: 0
OS2WinAscent: 0
OS2WinAOffset: 1
OS2WinDescent: 0
OS2WinDOffset: 1
HheadAscent: 0
HheadAOffset: 1
HheadDescent: 0
HheadDOffset: 1
OS2Vendor: 'PfEd'
DEI: 91125
Encoding: UnicodeFull
UnicodeInterp: none
NameList: Adobe Glyph List
DisplaySize: -24
AntiAlias: 1
FitToEm: 1
BeginPrivate: 10
BlueValues 17 [ -22 0 693 706 ]
OtherBlues 13 [ -206 -194 ]
BlueScale 7 0.04379
BlueShift 1 7
BlueFuzz 1 1
StdHW 6 [ 49 ]
StdVW 6 [ 49 ]
ForceBold 5 false
StemSnapH 9 [ 49 54 ]
StemSnapV 9 [ 49 75 ]
EndPrivate
BeginChars: 1114193 497

StartChar: uni007B.alt01
Encoding: 1114112 -1 0
Width: 662
Flags: MW
HStem: -1150 35 -569 36 14 35
VStem: 257 69
LayerCount: 2
Fore
SplineSet
371 -160 m 2
 371 -376 l 2
 371 -439 371 -499 199 -551 c 1
 371 -598 371 -670 371 -715 c 2
 371 -967 l 2
 371 -1022 371 -1068 510 -1110 c 0
 531 -1116 533 -1118 533 -1132 c 0
 533 -1147 529 -1150 514 -1150 c 0
 507 -1150 393 -1130 333 -1080 c 0
 291 -1046 291 -1012 291 -962 c 2
 291 -728 l 2
 291 -673 291 -621 153 -573 c 0
 120 -562 128 -559 128 -550 c 0
 128 -542 129 -536 137 -533 c 0
 231 -501 291 -471 291 -390 c 2
 291 -117 l 2
 291 -98 291 -70 314 -40 c 0
 364 26 512 49 514 49 c 0
 529 49 533 46 533 31 c 0
 533 24 533 16 523 13 c 0
 489 3 426 -15 396 -49 c 0
 371 -77 371 -83 371 -160 c 2
EndSplineSet
EndChar

StartChar: uni007D.alt01
Encoding: 1114113 -1 1
Width: 662
Flags: MW
HStem: -1150 35 -569 36 14 35
VStem: 257 69
LayerCount: 2
Fore
SplineSet
291 -977 m 2
 291 -725 l 2
 291 -664 291 -601 462 -550 c 1
 421 -539 294 -503 291 -407 c 1
 291 -134 l 2
 291 -77 291 -33 148 10 c 0
 132 15 128 16 128 31 c 0
 128 47 135 49 147 49 c 0
 157 49 266 27 322 -14 c 0
 371 -51 371 -89 371 -139 c 2
 371 -373 l 2
 371 -434 371 -482 524 -533 c 0
 533 -536 533 -544 533 -551 c 0
 533 -565 529 -566 521 -569 c 0
 396 -610 371 -654 371 -711 c 2
 371 -984 l 2
 371 -1003 371 -1031 348 -1061 c 0
 297 -1127 148 -1150 147 -1150 c 0
 135 -1150 128 -1148 128 -1132 c 0
 128 -1126 128 -1117 139 -1114 c 0
 277 -1073 291 -1036 291 -977 c 2
EndSplineSet
EndChar

StartChar: uni007B.alt02
Encoding: 1114114 -1 2
Width: 754
Flags: MW
HStem: -1751 43 -872 43 7 43
VStem: 296 73
LayerCount: 2
Fore
SplineSet
335 -1507 m 2
 335 -1075 l 2
 335 -979 241 -915 158 -879 c 0
 138 -870 137 -869 137 -850 c 0
 137 -837 137 -830 146 -827 c 0
 181 -812 247 -785 289 -734 c 0
 335 -679 335 -648 335 -582 c 2
 335 -204 l 2
 335 -148 335 -55 502 21 c 0
 531 34 565 49 591 49 c 0
 615 49 616 47 616 24 c 0
 616 10 616 4 607 1 c 0
 568 -13 492 -41 451 -93 c 0
 418 -136 418 -155 418 -221 c 2
 418 -629 l 2
 418 -757 272 -825 209 -851 c 1
 312 -890 418 -962 418 -1085 c 2
 418 -1493 l 2
 418 -1555 418 -1634 603 -1700 c 0
 616 -1705 616 -1707 616 -1725 c 0
 616 -1748 615 -1750 591 -1750 c 0
 558 -1750 466 -1713 407 -1664 c 0
 335 -1605 335 -1538 335 -1507 c 2
EndSplineSet
EndChar

StartChar: uni007D.alt02
Encoding: 1114115 -1 3
Width: 754
Flags: MW
HStem: -1750 43 -872 43 7 43
VStem: 296 73
LayerCount: 2
Fore
SplineSet
335 -1525 m 2
 335 -1072 l 2
 335 -944 481 -876 544 -850 c 1
 441 -811 335 -739 335 -616 c 2
 335 -208 l 2
 335 -146 335 -68 151 -1 c 0
 137 4 137 7 137 24 c 0
 137 47 139 49 162 49 c 0
 195 49 287 11 346 -37 c 0
 418 -97 418 -164 418 -194 c 2
 418 -626 l 2
 418 -679 453 -763 594 -821 c 0
 610 -828 611 -829 613 -830 c 1
 614 -833 l 1
 616 -835 616 -837 616 -851 c 0
 616 -862 616 -871 609 -873 c 1
 591 -881 l 1
 423 -950 418 -1035 418 -1119 c 2
 418 -1497 l 2
 418 -1553 418 -1646 251 -1722 c 0
 222 -1735 188 -1750 162 -1750 c 0
 139 -1750 137 -1748 137 -1725 c 0
 137 -1706 138 -1705 156 -1698 c 0
 276 -1654 335 -1593 335 -1525 c 2
EndSplineSet
EndChar

StartChar: uni007B.alt03
Encoding: 1114116 -1 4
Width: 846
Flags: MW
HStem: -2350 61 -1181 61 -12 61
VStem: 335 79
LayerCount: 2
Fore
SplineSet
378 -1992 m 2
 378 -1448 l 2
 378 -1395 350 -1266 167 -1179 c 0
 152 -1172 151 -1169 151 -1150 c 0
 151 -1131 152 -1131 169 -1122 c 0
 220 -1097 287 -1059 337 -982 c 0
 378 -918 378 -873 378 -789 c 2
 378 -245 l 2
 378 -83 554 4 597 26 c 0
 639 47 653 49 668 49 c 0
 693 49 694 48 694 23 c 0
 694 4 694 2 682 -3 c 0
 651 -16 575 -48 521 -113 c 0
 466 -180 466 -232 466 -271 c 2
 466 -791 l 2
 466 -851 466 -864 464 -878 c 0
 441 -1042 285 -1121 221 -1151 c 1
 327 -1197 379 -1255 397 -1276 c 0
 466 -1361 466 -1433 466 -1468 c 2
 467 -2058 l 2
 467 -2172 578 -2254 678 -2297 c 0
 693 -2304 694 -2304 694 -2324 c 0
 694 -2349 693 -2350 668 -2350 c 0
 653 -2350 651 -2350 639 -2345 c 0
 540 -2304 435 -2238 395 -2135 c 0
 378 -2090 378 -2075 378 -1992 c 2
EndSplineSet
EndChar

StartChar: uni007D.alt03
Encoding: 1114117 -1 5
Width: 846
Flags: MW
HStem: -2351 61 -1182 61 -13 61
VStem: 335 79
LayerCount: 2
Fore
SplineSet
378 -1965 m 2
 378 -1445 l 2
 378 -1438 380 -1424 381 -1417 c 0
 405 -1286 506 -1203 624 -1150 c 1
 533 -1111 479 -1060 453 -1031 c 0
 380 -949 378 -872 378 -833 c 2
 377 -243 l 2
 377 -130 269 -48 166 -4 c 0
 151 2 151 4 151 23 c 0
 151 48 153 49 177 49 c 0
 198 49 218 40 246 27 c 0
 342 -19 415 -83 447 -161 c 0
 466 -209 466 -226 466 -309 c 2
 466 -853 l 2
 466 -909 497 -1036 678 -1122 c 0
 693 -1129 694 -1132 694 -1151 c 0
 694 -1168 694 -1171 685 -1176 c 0
 583 -1223 507 -1291 478 -1380 c 0
 466 -1418 466 -1435 466 -1512 c 2
 466 -1988 l 2
 466 -2053 466 -2055 465 -2061 c 0
 456 -2190 353 -2277 244 -2328 c 0
 199 -2349 197 -2350 177 -2350 c 0
 152 -2350 151 -2348 151 -2324 c 0
 151 -2306 152 -2303 168 -2296 c 0
 280 -2247 367 -2172 377 -2064 c 0
 378 -2053 378 -1998 378 -1965 c 2
EndSplineSet
EndChar

StartChar: uni007B.alt04
Encoding: 1114118 -1 6
Width: 908
Flags: MW
HStem: -2950 64 -1483 64 -15 64
VStem: 361 83
LayerCount: 2
Fore
SplineSet
408 -2231 m 2
 408 -1821 l 2
 408 -1773 386 -1592 178 -1479 c 0
 166 -1473 165 -1471 165 -1450 c 0
 165 -1431 166 -1429 181 -1420 c 0
 286 -1362 408 -1252 408 -1054 c 2
 409 -311 l 1
 426 -58 690 46 698 48 c 0
 699 49 701 49 715 49 c 0
 742 49 742 48 742 22 c 0
 742 7 742 0 736 -3 c 0
 699 -22 626 -60 574 -128 c 0
 499 -225 499 -289 499 -372 c 2
 499 -1083 l 2
 499 -1180 433 -1352 234 -1451 c 1
 309 -1486 372 -1542 417 -1599 c 0
 499 -1704 499 -1803 499 -1870 c 2
 499 -2502 l 2
 499 -2600 499 -2620 516 -2671 c 0
 559 -2799 672 -2865 735 -2898 c 0
 742 -2901 742 -2906 742 -2923 c 0
 742 -2949 741 -2950 715 -2950 c 0
 702 -2950 698 -2950 695 -2949 c 0
 538 -2885 409 -2734 408 -2586 c 0
 407 -2547 407 -2507 407 -2468 c 0
 407 -2389 408 -2310 408 -2231 c 2
EndSplineSet
EndChar

StartChar: uni007D.alt04
Encoding: 1114119 -1 7
Width: 908
Flags: MW
HStem: -2950 64 -1483 64 -15 64
VStem: 361 83
LayerCount: 2
Fore
SplineSet
408 -2529 m 2
 408 -1818 l 2
 408 -1721 474 -1549 673 -1450 c 1
 598 -1415 535 -1359 490 -1302 c 0
 408 -1197 408 -1098 408 -1031 c 2
 407 -315 l 1
 398 -155 279 -58 174 -4 c 0
 165 0 165 4 165 22 c 0
 165 48 166 49 192 49 c 0
 205 49 209 49 212 48 c 0
 368 -16 497 -166 499 -315 c 1
 499 -433 l 1
 499 -670 l 1
 499 -1080 l 2
 499 -1124 517 -1309 733 -1424 c 0
 742 -1428 742 -1431 742 -1451 c 0
 742 -1471 741 -1473 726 -1481 c 0
 625 -1536 499 -1646 499 -1847 c 2
 498 -2590 l 1
 481 -2843 217 -2947 209 -2949 c 0
 208 -2950 206 -2950 192 -2950 c 0
 166 -2950 165 -2949 165 -2923 c 0
 165 -2907 165 -2901 172 -2897 c 0
 214 -2876 288 -2838 346 -2756 c 0
 408 -2669 408 -2604 408 -2529 c 2
EndSplineSet
EndChar

StartChar: uni21BC
Encoding: 8636 8636 8
Width: 1123
Flags: MW
HStem: 226 49<173 1014 173 1014>
VStem: 229 49<500 500>
LayerCount: 2
Fore
SplineSet
1014 226 m 2
 69 226 l 1
 69 251 l 1
 124 286 206 367 229 500 c 1
 278 500 l 1
 274 473 259 372 173 275 c 1
 1014 275 l 2
 1032 275 1053 275 1053 250 c 0
 1053 226 1031 226 1014 226 c 2
EndSplineSet
EndChar

StartChar: uni21BD
Encoding: 8637 8637 9
Width: 1123
Flags: MW
HStem: 226 49<173 1014 173 173>
VStem: 229 49<1 1>
LayerCount: 2
Fore
SplineSet
1014 226 m 2
 173 226 l 1
 258 130 274 31 278 1 c 1
 229 1 l 1
 206 133 124 214 69 250 c 1
 69 275 l 1
 1014 275 l 2
 1032 275 1053 275 1053 250 c 0
 1053 226 1031 226 1014 226 c 2
EndSplineSet
EndChar

StartChar: uni21C0
Encoding: 8640 8640 10
Width: 1123
Flags: MW
HStem: 226 49<99 949 108 949 108 1053>
VStem: 844 49<500 500>
LayerCount: 2
Fore
SplineSet
1053 226 m 1
 108 226 l 2
 90 226 69 226 69 251 c 0
 69 275 91 275 108 275 c 2
 949 275 l 1
 864 371 848 470 844 500 c 1
 893 500 l 1
 916 368 998 287 1053 251 c 1
 1053 226 l 1
EndSplineSet
EndChar

StartChar: uni21C1
Encoding: 8641 8641 11
Width: 1123
Flags: MW
HStem: 226 49<99 1053 108 949>
VStem: 844 49<1 1>
LayerCount: 2
Fore
SplineSet
949 226 m 1
 108 226 l 2
 90 226 69 226 69 251 c 0
 69 275 91 275 108 275 c 2
 1053 275 l 1
 1053 250 l 1
 998 215 916 134 893 1 c 1
 844 1 l 1
 848 28 863 129 949 226 c 1
EndSplineSet
EndChar

StartChar: uni2190
Encoding: 8592 8592 12
Width: 1123
Flags: MW
HStem: 226 49<160 1014 160 1014>
VStem: 229 49<1 1>
LayerCount: 2
Fore
SplineSet
1014 226 m 2
 160 226 l 1
 187 192 245 117 278 1 c 1
 229 1 l 1
 218 37 181 156 69 251 c 1
 148 314 199 404 229 500 c 1
 278 500 l 1
 245 384 187 309 160 275 c 1
 1014 275 l 2
 1032 275 1053 275 1053 250 c 0
 1053 226 1031 226 1014 226 c 2
EndSplineSet
EndChar

StartChar: uni2192
Encoding: 8594 8594 13
Width: 1123
Flags: MW
HStem: 226 49<99 962 108 962>
VStem: 844 49<1 1>
LayerCount: 2
Fore
SplineSet
962 226 m 1
 108 226 l 2
 90 226 69 226 69 251 c 0
 69 275 91 275 108 275 c 2
 962 275 l 1
 935 309 877 384 844 500 c 1
 893 500 l 1
 904 464 941 345 1053 250 c 1
 974 187 923 97 893 1 c 1
 844 1 l 1
 877 117 935 192 962 226 c 1
EndSplineSet
EndChar

StartChar: uni2191
Encoding: 8593 8593 14
Width: 569
Flags: MW
HStem: -194 21<272 296.5> 503 49<39 39>
VStem: 260 49<-155 609>
LayerCount: 2
Fore
SplineSet
309 609 m 1
 309 -155 l 2
 309 -173 309 -194 284 -194 c 0
 260 -194 260 -172 260 -155 c 2
 260 609 l 1
 167 541 82 514 39 503 c 1
 39 552 l 1
 189 591 278 686 285 694 c 1
 298 679 384 590 530 552 c 1
 530 503 l 1
 491 513 405 539 309 609 c 1
EndSplineSet
EndChar

StartChar: uni2193
Encoding: 8595 8595 15
Width: 569
Flags: MW
HStem: -52 49<39 39> 674 20<272.5 297>
VStem: 260 49<-109 655 -109 664>
LayerCount: 2
Fore
SplineSet
309 655 m 2
 309 -109 l 1
 402 -41 487 -14 530 -3 c 1
 530 -52 l 1
 383 -90 297 -181 285 -194 c 1
 284 -194 l 1
 271 -179 185 -90 39 -52 c 1
 39 -3 l 1
 78 -13 164 -39 260 -109 c 1
 260 655 l 2
 260 673 260 694 285 694 c 0
 309 694 309 672 309 655 c 2
EndSplineSet
EndChar

StartChar: uni2194
Encoding: 8596 8596 16
Width: 1123
Flags: MW
HStem: 226 49<160 962 160 962>
VStem: 229 49<1 1> 844 49<1 1>
LayerCount: 2
Fore
SplineSet
962 226 m 1
 160 226 l 1
 187 192 245 117 278 1 c 1
 229 1 l 1
 218 37 181 156 69 251 c 1
 148 314 199 404 229 500 c 1
 278 500 l 1
 245 384 187 309 160 275 c 1
 962 275 l 1
 935 309 877 384 844 500 c 1
 893 500 l 1
 904 464 941 345 1053 250 c 1
 974 187 923 97 893 1 c 1
 844 1 l 1
 877 117 935 192 962 226 c 1
EndSplineSet
EndChar

StartChar: uni2197
Encoding: 8599 8599 17
Width: 1123
Flags: MW
HStem: -194 21<86 98.5> 645 49
VStem: 1000 49
LayerCount: 2
Fore
SplineSet
1001 615 m 1
 115 -183 l 2
 106 -191 103 -194 94 -194 c 0
 78 -194 69 -181 69 -169 c 0
 69 -158 74 -154 83 -146 c 2
 969 652 l 1
 867 667 790 703 731 740 c 1
 738 746 765 771 768 773 c 1
 887 694 1013 694 1053 694 c 1
 1049 661 1049 651 1049 627 c 0
 1049 568 1058 491 1101 402 c 1
 1088 389 1083 385 1065 369 c 1
 1021 456 1007 541 1001 615 c 1
EndSplineSet
EndChar

StartChar: uni2198
Encoding: 8600 8600 18
Width: 1123
Flags: MW
HStem: -194 49 674 20<86 96>
VStem: 1000 49
LayerCount: 2
Fore
SplineSet
969 -151 m 1
 83 646 l 2
 74 654 69 658 69 669 c 0
 69 681 78 694 94 694 c 0
 98 694 104 694 116 683 c 2
 1002 -115 l 1
 1006 -50 1018 39 1065 131 c 1
 1085 114 1089 110 1101 98 c 1
 1049 -9 1049 -97 1049 -127 c 0
 1049 -151 1049 -161 1053 -194 c 1
 1013 -194 887 -194 768 -273 c 1
 765 -271 738 -246 731 -240 c 1
 770 -216 845 -172 969 -151 c 1
EndSplineSet
EndChar

StartChar: uni21D0
Encoding: 8656 8656 19
Width: 1123
Flags: MW
HStem: 116 49<324 1013 324 324> 336 49<324 1013 324 1013>
VStem: 413 49<-109 -109>
LayerCount: 2
Fore
SplineSet
1013 116 m 2
 324 116 l 1
 403 26 444 -60 462 -109 c 1
 413 -109 l 1
 334 91 193 192 70 251 c 1
 252 336 357 468 413 610 c 1
 462 610 l 1
 439 552 402 474 324 385 c 1
 1013 385 l 2
 1030 385 1053 385 1053 360 c 0
 1053 336 1029 336 1013 336 c 2
 275 336 l 1
 236 300 218 286 165 251 c 1
 205 227 242 198 275 165 c 1
 1013 165 l 2
 1030 165 1053 165 1053 140 c 0
 1053 116 1029 116 1013 116 c 2
EndSplineSet
EndChar

StartChar: uni21D2
Encoding: 8658 8658 20
Width: 1123
Flags: MW
HStem: 116 49<100.5 847 109 798> 336 49<100.5 798 109 798 109 847>
VStem: 660 49<-109 -109>
LayerCount: 2
Fore
SplineSet
847 336 m 1
 109 336 l 2
 92 336 69 336 69 361 c 0
 69 385 93 385 109 385 c 2
 798 385 l 1
 716 478 680 560 660 610 c 1
 709 610 l 1
 775 444 893 325 1052 251 c 1
 929 192 788 91 709 -109 c 1
 660 -109 l 1
 678 -62 719 26 798 116 c 1
 109 116 l 2
 92 116 69 116 69 141 c 0
 69 165 93 165 109 165 c 2
 847 165 l 1
 880 198 917 227 957 251 c 1
 901 288 883 303 847 336 c 1
EndSplineSet
EndChar

StartChar: uni21D1
Encoding: 8657 8657 21
Width: 754
Flags: MW
HStem: -194 21<254.5 279 475 499.5> 336 49<21 21>
VStem: 242 49<-151 461 461 461> 463 49<-156 -151 -151 461>
LayerCount: 2
Fore
SplineSet
512 461 m 1
 512 -151 l 2
 512 -169 512 -194 487 -194 c 0
 463 -194 463 -172 463 -156 c 2
 463 505 l 1
 427 541 400 573 377 605 c 1
 340 553 305 519 291 505 c 1
 291 -156 l 2
 291 -172 291 -194 267 -194 c 0
 242 -194 242 -169 242 -151 c 2
 242 461 l 1
 180 410 106 367 21 336 c 1
 21 385 l 1
 187 445 301 556 377 693 c 1
 464 538 586 438 733 385 c 1
 733 336 l 1
 653 365 578 408 512 461 c 1
EndSplineSet
EndChar

StartChar: uni21D3
Encoding: 8659 8659 22
Width: 754
Flags: MW
HStem: 115 49<21 21> 674 20<254.5 279 475 499.5>
VStem: 242 49<39 651 651 656 -5 660> 463 49<39 651 39 656 39 664>
LayerCount: 2
Fore
SplineSet
512 651 m 2
 512 39 l 1
 582 96 657 137 733 164 c 1
 733 115 l 1
 574 58 457 -49 377 -193 c 1
 289 -35 166 63 21 115 c 1
 21 164 l 1
 101 135 176 93 242 39 c 1
 242 651 l 2
 242 669 242 694 267 694 c 0
 291 694 291 672 291 656 c 2
 291 -5 l 1
 327 -41 354 -73 377 -105 c 1
 414 -53 449 -19 463 -5 c 1
 463 656 l 2
 463 672 463 694 487 694 c 0
 512 694 512 669 512 651 c 2
EndSplineSet
EndChar

StartChar: uni21D4
Encoding: 8660 8660 23
Width: 1123
Flags: MW
HStem: 116 49<263 859 263 263> 336 49<263 859 263 901 221 859>
VStem: 331 49<-109 -109> 742 49<-109 -109>
LayerCount: 2
Fore
SplineSet
263 385 m 1
 859 385 l 1
 817 441 768 523 742 610 c 1
 791 610 l 1
 806 560 843 471 921 380 c 0
 974 318 1028 280 1072 251 c 1
 1015 213 961 171 910 109 c 0
 853 40 811 -42 791 -109 c 1
 742 -109 l 1
 767 -27 809 47 859 116 c 1
 263 116 l 1
 313 47 355 -27 380 -109 c 1
 331 -109 l 1
 280 60 154 182 50 251 c 1
 92 279 147 318 200 379 c 0
 277 468 315 557 331 610 c 1
 380 610 l 1
 356 531 311 449 263 385 c 1
222 165 m 1
 900 165 l 1
 910 176 942 212 990 250 c 1
 943 291 934 300 901 336 c 1
 221 336 l 1
 188 300 179 291 132 250 c 1
 179 212 212 178 222 165 c 1
EndSplineSet
EndChar

StartChar: uni2196
Encoding: 8598 8598 24
Width: 1123
Flags: MW
HStem: -194 21<1026 1036> 645 49
VStem: 73 49
LayerCount: 2
Fore
SplineSet
153 651 m 1
 1039 -146 l 2
 1048 -154 1053 -158 1053 -169 c 0
 1053 -181 1044 -194 1028 -194 c 0
 1024 -194 1018 -194 1006 -183 c 2
 120 615 l 1
 116 550 104 461 57 369 c 1
 37 386 33 390 21 402 c 1
 73 509 73 597 73 627 c 0
 73 651 73 661 69 694 c 1
 109 694 235 694 354 773 c 1
 357 771 384 746 391 740 c 1
 352 716 277 672 153 651 c 1
EndSplineSet
EndChar

StartChar: uni2199
Encoding: 8601 8601 25
Width: 1123
Flags: MW
HStem: -194 49 674 20<1023.5 1036>
VStem: 73 49
LayerCount: 2
Fore
SplineSet
1039 646 m 2
 153 -152 l 1
 255 -167 332 -203 391 -240 c 1
 354 -273 l 1
 235 -194 109 -194 69 -194 c 1
 73 -161 73 -151 73 -127 c 0
 73 -68 64 9 21 98 c 1
 34 111 39 115 57 131 c 1
 101 44 115 -41 121 -115 c 1
 1007 683 l 2
 1016 691 1019 694 1028 694 c 0
 1044 694 1053 681 1053 669 c 0
 1053 658 1048 654 1039 646 c 2
EndSplineSet
EndChar

StartChar: uni221E
Encoding: 8734 8734 26
Width: 1123
Flags: W
HStem: -10 46<227.5 326.5 227.5 349> -10 63<809 894 809 894.5> 378 63<228 313> 395 46<795.5 894.5>
VStem: 69 44<166.5 261.5 166.5 277> 1009 44<169.5 264.5>
LayerCount: 2
Fore
SplineSet
518 196 m 1xac
 412 319 356 378 270 378 c 0
 186 378 113 308 113 215 c 0
 113 118 182 36 273 36 c 0
 380 36 465 114 518 196 c 1xac
569 277 m 1
 617 347 711 441 835 441 c 0
 963 441 1053 333 1053 216 c 0
 1053 92 956 -10 833 -10 c 0
 756 -10 693 23 657 50 c 1
 619 77 602 98 553 154 c 1
 505 84 411 -10 287 -10 c 0
 159 -10 69 98 69 215 c 0
 69 339 166 441 289 441 c 0
 365 441 428 407 465 381 c 1
 503 353 520 333 569 277 c 1
604 235 m 1
 710 112 766 53 852 53 c 0
 936 53 1009 123 1009 216 c 0
 1009 313 940 395 849 395 c 0x5c
 742 395 657 317 604 235 c 1
EndSplineSet
EndChar

StartChar: uniF8F1
Encoding: 1114120 -1 27
Width: 1000
Flags: MW
HStem: -900 21 -21 20<766 790>
VStem: 448 103<-883 -467>
LayerCount: 2
Fore
SplineSet
551 -467 m 2
 551 -884 l 2
 551 -911 550 -912 522 -912 c 2
 477 -912 l 2
 449 -912 448 -911 448 -883 c 2
 448 -454 l 2
 448 -312 522 -133 729 -15 c 0
 754 -1 756 -1 776 -1 c 0
 804 -1 804 -2 804 -29 c 0
 804 -47 804 -52 797 -55 c 1
 757 -79 680 -125 620 -221 c 0
 567 -306 551 -386 551 -467 c 2
EndSplineSet
EndChar

StartChar: uniF8FC
Encoding: 1114121 -1 28
Width: 1000
Flags: MW
HStem: -900 21 -20 20
VStem: 448 103<-883 -457 -457 -447>
LayerCount: 2
Fore
SplineSet
551 -447 m 2
 551 -884 l 2
 551 -911 550 -912 522 -912 c 2
 477 -912 l 2
 449 -912 448 -911 448 -883 c 2
 448 -457 l 2
 448 -368 422 -286 376 -215 c 0
 315 -122 239 -78 202 -55 c 0
 196 -52 195 -51 195 -29 c 0
 195 -2 196 -1 223 -1 c 0
 243 -1 244 -1 279 -21 c 0
 479 -136 551 -318 551 -447 c 2
EndSplineSet
EndChar

StartChar: uniF8F3
Encoding: 1114122 -1 29
Width: 1000
Flags: MW
HStem: -899 21<767.5 790> -20 20
VStem: 448 103<-446 -433 -433 -17 -17 -16>
LayerCount: 2
Fore
SplineSet
551 -16 m 2
 551 -433 l 2
 551 -512 567 -592 616 -672 c 0
 679 -775 756 -820 797 -845 c 0
 803 -848 804 -849 804 -871 c 0
 804 -898 804 -899 776 -899 c 0
 759 -899 757 -899 752 -897 c 0
 637 -844 448 -684 448 -446 c 2
 448 -17 l 2
 448 11 449 12 477 12 c 2
 522 12 l 2
 550 12 551 11 551 -16 c 2
EndSplineSet
EndChar

StartChar: uniF8FE
Encoding: 1114123 -1 30
Width: 1000
Flags: MW
HStem: -899 21<209.5 233> -20 20
VStem: 448 103<-443 -17 -17 -16>
LayerCount: 2
Fore
SplineSet
448 -443 m 2
 448 -17 l 2
 448 11 449 12 477 12 c 2
 522 12 l 2
 550 12 551 11 551 -16 c 2
 551 -453 l 2
 551 -562 498 -756 270 -885 c 0
 245 -899 243 -899 223 -899 c 0
 196 -899 195 -898 195 -871 c 0
 195 -849 196 -848 206 -842 c 0
 396 -731 448 -563 448 -443 c 2
EndSplineSet
EndChar

StartChar: uniF8F2
Encoding: 1114124 -1 31
Width: 1000
Flags: MW
HStem: -1800 21 -20 20
VStem: 448 103<-1783 -1364 -1364 -1355 -436 -17 -17 -16>
LayerCount: 2
Fore
SplineSet
551 -1355 m 2
 551 -1784 l 2
 551 -1811 550 -1812 522 -1812 c 2
 477 -1812 l 2
 449 -1812 448 -1811 448 -1783 c 2
 448 -1364 l 2
 448 -1195 363 -1029 214 -934 c 0
 196 -923 195 -921 195 -900 c 0
 195 -879 196 -878 211 -868 c 0
 371 -767 448 -596 448 -436 c 2
 448 -17 l 2
 448 11 449 12 477 12 c 2
 522 12 l 2
 550 12 551 11 551 -16 c 2
 551 -445 l 2
 551 -547 504 -760 265 -900 c 1
 504 -1040 551 -1253 551 -1355 c 2
EndSplineSet
EndChar

StartChar: uniF8FD
Encoding: 1114125 -1 32
Width: 1000
Flags: MW
HStem: -1800 21 -20 20
VStem: 448 103<-1783 -1376 -437 -424 -424 -17 -17 -16>
LayerCount: 2
Fore
SplineSet
551 -1376 m 2
 551 -1784 l 2
 551 -1811 550 -1812 522 -1812 c 2
 477 -1812 l 2
 449 -1812 448 -1811 448 -1783 c 2
 448 -1363 l 2
 448 -1218 520 -1025 734 -900 c 1
 520 -775 448 -582 448 -437 c 2
 448 -17 l 2
 448 11 449 12 477 12 c 2
 522 12 l 2
 550 12 551 11 551 -16 c 2
 551 -424 l 2
 551 -547 587 -633 613 -681 c 0
 677 -797 749 -842 797 -874 c 0
 803 -878 804 -879 804 -900 c 0
 804 -921 803 -923 792 -930 c 0
 620 -1041 551 -1206 551 -1376 c 2
EndSplineSet
EndChar

StartChar: uniF8F4
Encoding: 1114126 -1 33
Width: 1000
Flags: MW
HStem: -300 21 -20 20
VStem: 448 103<-283 -17 -17 -16>
LayerCount: 2
Fore
SplineSet
551 -16 m 2
 551 -284 l 2
 551 -311 550 -312 522 -312 c 2
 477 -312 l 2
 449 -312 448 -311 448 -283 c 2
 448 -17 l 2
 448 11 449 12 477 12 c 2
 522 12 l 2
 550 12 551 11 551 -16 c 2
EndSplineSet
EndChar

StartChar: uni222E.alt01
Encoding: 1114127 -1 34
Width: 600
Flags: W
HStem: -1111 32<182 214 182 227.5> -758 49 -401 49 -32 32<400.5 444.5>
VStem: 60 114 108 49<-590.5 -520 -590.5 -510.5> 277 81 455 115<-109 -77.5> 477 49<-591 -520.5>
LayerCount: 2
Fore
SplineSet
275 -641 m 2xf680
 275 -402 l 1
 205 -420 157 -484 157 -556 c 0
 157 -625 204 -690 276 -710 c 1
 276 -687 275 -663 275 -641 c 2xf680
358 -351 m 1
 464 -374 526 -464 526 -556 c 0
 526 -646 465 -736 359 -760 c 1
 359 -933 351 -957 337 -995 c 0
 310 -1065 265 -1111 190 -1111 c 0
 120 -1111 59 -1080 59 -1016 c 0
 59 -988 75 -959 113 -959 c 0
 142 -959 174 -977 174 -1017 c 0xfa80
 174 -1048 156 -1062 152 -1064 c 1
 158 -1070 172 -1079 192 -1079 c 0
 236 -1079 277 -1050 277 -896 c 2
 277 -760 l 1
 173 -739 108 -650 108 -555 c 0
 108 -466 168 -374 276 -351 c 1
 276 -294 l 2
 276 -209 280 -146 307 -89 c 0
 325 -52 362 0 439 0 c 0
 508 0 570 -30 570 -95 c 0
 570 -123 554 -152 516 -152 c 0
 487 -152 455 -134 455 -94 c 0xf7
 455 -61 473 -49 477 -46 c 1
 466 -36 452 -32 437 -32 c 0
 357 -32 357 -143 357 -263 c 0
 357 -292 358 -322 358 -351 c 1
358 -401 m 1
 359 -410 359 -424 359 -433 c 2
 359 -709 l 1
 429 -691 477 -627 477 -555 c 0
 477 -486 430 -421 358 -401 c 1
EndSplineSet
EndChar

StartChar: uni222E.alt02
Encoding: 1114128 -1 35
Width: 508
Flags: W
HStem: -2222 32<171.5 223 171.5 275> -1408 49<369 369> -863 49<275 275> -32 32<413 441.5>
VStem: 21 49<-1166 -1058 -1166 -1037> 49 88 275 94<-1231 -993> 493 88 574 49<-1164 -1056>
LayerCount: 2
Fore
SplineSet
275 -1231 m 2xfb
 275 -863 l 1
 139 -892 70 -1005 70 -1111 c 0
 70 -1221 144 -1333 277 -1359 c 1
 277 -1331 275 -1259 275 -1231 c 2xfb
366 -813 m 1
 523 -838 623 -970 623 -1111 c 0
 623 -1259 515 -1385 369 -1408 c 1
 369 -1540 l 2
 369 -1959 360 -2222 190 -2222 c 0
 119 -2222 49 -2190 49 -2124 c 0xf680
 49 -2097 65 -2080 89 -2080 c 0
 116 -2080 139 -2102 139 -2124 c 0
 139 -2126 138 -2143 128 -2155 c 1
 130 -2158 153 -2190 190 -2190 c 0
 256 -2190 269 -2029 273 -1980 c 0
 279 -1895 281 -1759 281 -1668 c 0
 281 -1602 278 -1457 278 -1409 c 1
 121 -1384 21 -1252 21 -1111 c 0
 21 -963 129 -837 275 -814 c 1
 275 -681 l 2
 275 -150 313 0 440 0 c 0
 513 0 581 -34 581 -98 c 0
 581 -121 569 -142 540 -142 c 0
 519 -142 491 -125 491 -97 c 0
 491 -93 493 -79 501 -68 c 1
 479 -33 443 -32 440 -32 c 0
 386 -32 374 -195 371 -243 c 0
 364 -346 363 -450 363 -554 c 0
 363 -619 366 -775 366 -813 c 1
367 -863 m 1
 367 -892 369 -964 369 -993 c 2
 369 -1359 l 1
 505 -1330 574 -1217 574 -1111 c 0
 574 -1001 500 -889 367 -863 c 1
EndSplineSet
EndChar

StartChar: uni2211.alt01
Encoding: 1114129 -1 36
Width: 1185
Flags: MW
HStem: -1000 103<215 1069> -79 79<264 992 264 264>
VStem: 69 1015<-992 -897>
LayerCount: 2
Fore
SplineSet
543 -500 m 2
 215 -897 l 1
 1084 -897 l 1
 1069 -1000 l 1
 101 -1000 l 2
 84 -1000 69 -1000 69 -984 c 0
 69 -979 72 -975 80 -965 c 2
 462 -502 l 1
 143 -67 l 1
 143 -16 l 1
 145 0 156 0 175 0 c 2
 1007 0 l 1
 992 -79 l 1
 264 -79 l 1
 554 -475 l 1
 552 -488 551 -490 543 -500 c 2
EndSplineSet
EndChar

StartChar: uni220F.alt01
Encoding: 1114130 -1 37
Width: 1185
Flags: MW
HStem: -1000 49<85 136.5 342.5 394 85 136.5 790 841.5 1047.5 1099> -49 49<85 136.5 291 893 291 291 1047.5 1099>
VStem: 188 103<-872 -128 -128 -113> 893 103<-872 -128>
LayerCount: 2
Fore
SplineSet
996 -128 m 2
 996 -872 l 2
 996 -902 996 -951 1099 -951 c 1
 1099 -1000 l 1
 790 -1000 l 1
 790 -951 l 1
 893 -951 893 -902 893 -872 c 2
 893 -49 l 1
 291 -49 l 1
 291 -872 l 2
 291 -902 291 -951 394 -951 c 1
 394 -1000 l 1
 85 -1000 l 1
 85 -951 l 1
 188 -951 188 -902 188 -872 c 2
 188 -128 l 2
 188 -98 188 -49 85 -49 c 1
 85 0 l 1
 1099 0 l 1
 1099 -49 l 1
 996 -49 996 -98 996 -128 c 2
EndSplineSet
EndChar

StartChar: uni222B.alt01
Encoding: 1114131 -1 38
Width: 600
Flags: MW
HStem: -1111 32<182 234.5 182 246> -32 32<397 444.5>
VStem: 59 115<-1032.5 -1002> 275 84<-594 -481> 455 115<-109 -77.5>
LayerCount: 2
Fore
SplineSet
477 -46 m 1
 466 -36 452 -32 437 -32 c 0
 357 -32 357 -143 357 -263 c 0
 357 -293 359 -391 359 -481 c 2
 359 -602 l 2
 359 -615 359 -868 356 -905 c 0
 348 -1005 302 -1111 190 -1111 c 0
 120 -1111 59 -1080 59 -1016 c 0
 59 -988 75 -959 113 -959 c 0
 142 -959 174 -977 174 -1017 c 0
 174 -1048 156 -1062 152 -1064 c 1
 158 -1070 172 -1079 192 -1079 c 0
 277 -1079 277 -961 277 -833 c 0
 277 -733 275 -677 275 -511 c 0
 275 -443 274 -265 278 -208 c 1
 280 -165 302 0 439 0 c 0
 508 0 570 -30 570 -95 c 0
 570 -123 554 -152 516 -152 c 0
 487 -152 455 -134 455 -94 c 0
 455 -61 473 -49 477 -46 c 1
EndSplineSet
EndChar

StartChar: uni2211.alt02
Encoding: 1114132 -1 39
Width: 1615
Flags: MW
HStem: -1400 121<250 1498> -86 86<368 1360 368 368>
VStem: 69 1445<-1392 -1279>
LayerCount: 2
Fore
SplineSet
1498 -1400 m 1
 101 -1400 l 2
 84 -1400 69 -1400 69 -1384 c 0
 69 -1381 69 -1377 80 -1365 c 2
 635 -720 l 1
 192 -75 l 1
 192 -32 l 2
 192 -2 194 0 224 0 c 2
 1375 0 l 1
 1360 -86 l 1
 368 -86 l 1
 767 -667 l 1
 765 -680 765 -682 756 -692 c 2
 250 -1279 l 1
 1514 -1279 l 1
 1498 -1400 l 1
EndSplineSet
EndChar

StartChar: uni220F.alt02
Encoding: 1114133 -1 40
Width: 1578
Flags: MW
HStem: -1400 61<69 129.5 487 550 69 129.5 1027 1087.5 1445 1508> -61 61<69 132 385 1192 385 385 1447.5 1508>
VStem: 69 1439<-1400 -1339 -1400 -1339 -61 0 -1400 0>
LayerCount: 2
Fore
SplineSet
1192 -1229 m 2
 1192 -61 l 1
 385 -61 l 1
 385 -1229 l 2
 385 -1299 424 -1339 550 -1339 c 1
 550 -1400 l 1
 69 -1400 l 1
 69 -1339 l 1
 190 -1339 234 -1303 234 -1229 c 2
 234 -171 l 2
 234 -101 195 -61 69 -61 c 1
 69 0 l 1
 1508 0 l 1
 1508 -61 l 1
 1387 -61 1343 -97 1343 -171 c 2
 1343 -1229 l 2
 1343 -1299 1382 -1339 1508 -1339 c 1
 1508 -1400 l 1
 1027 -1400 l 1
 1027 -1339 l 1
 1148 -1339 1192 -1303 1192 -1229 c 2
EndSplineSet
EndChar

StartChar: uni222B.alt02
Encoding: 1114134 -1 41
Width: 508
Flags: MW
HStem: -2222 32<171.5 223 171.5 278> -32 32<413 441.5>
VStem: 49 90<-2125 -2113 -2125 -2110.5> 275 94<-1249 -975> 491 90<-109.5 -95>
LayerCount: 2
Fore
SplineSet
275 -1249 m 1
 275 -955 l 2
 275 -754 275 -546 283 -353 c 0
 292 -114 338 0 440 0 c 0
 513 0 581 -34 581 -98 c 0
 581 -121 569 -142 540 -142 c 0
 519 -142 491 -125 491 -97 c 0
 491 -93 493 -79 501 -68 c 1
 479 -33 443 -32 440 -32 c 0
 386 -32 374 -195 371 -243 c 0
 364 -346 363 -450 363 -554 c 0
 363 -687 364 -832 369 -975 c 1
 369 -1267 l 2
 369 -1366 368 -1465 368 -1564 c 0
 368 -1931 366 -2222 190 -2222 c 0
 119 -2222 49 -2190 49 -2124 c 0
 49 -2097 65 -2080 89 -2080 c 0
 116 -2080 139 -2102 139 -2124 c 0
 139 -2126 138 -2143 128 -2155 c 1
 130 -2158 153 -2190 190 -2190 c 0
 256 -2190 269 -2029 273 -1980 c 0
 279 -1895 281 -1759 281 -1668 c 0
 281 -1533 279 -1389 275 -1249 c 1
EndSplineSet
EndChar

StartChar: uni2210.alt01
Encoding: 1114135 -1 42
Width: 1185
Flags: MW
HStem: -1000 49<85 136.5 291 893 1047.5 1099 85 136.5> -49 49<85 136.5 342.5 394 790 841.5 1047.5 1099>
VStem: 188 103<-872 -128 -951 -113> 893 103<-887 -872 -872 -128>
LayerCount: 2
Fore
SplineSet
996 -128 m 2
 996 -872 l 2
 996 -902 996 -951 1099 -951 c 1
 1099 -1000 l 1
 85 -1000 l 1
 85 -951 l 1
 188 -951 188 -902 188 -872 c 2
 188 -128 l 2
 188 -98 188 -49 85 -49 c 1
 85 0 l 1
 394 0 l 1
 394 -49 l 1
 291 -49 291 -98 291 -128 c 2
 291 -951 l 1
 893 -951 l 1
 893 -128 l 2
 893 -98 893 -49 790 -49 c 1
 790 0 l 1
 1099 0 l 1
 1099 -49 l 1
 996 -49 996 -98 996 -128 c 2
EndSplineSet
EndChar

StartChar: uni2210.alt02
Encoding: 1114136 -1 43
Width: 1578
Flags: MW
HStem: -1400 61<69 129.5 385 1192 1445 1508 69 129.5> -61 61<69 132 489.5 550 1027 1090 1447.5 1508>
VStem: 69 1439<-1400 -1339 -1400 -1339 -61 0 -1400 0>
LayerCount: 2
Fore
SplineSet
1508 -1400 m 1
 69 -1400 l 1
 69 -1339 l 1
 190 -1339 234 -1303 234 -1229 c 2
 234 -171 l 2
 234 -101 195 -61 69 -61 c 1
 69 0 l 1
 550 0 l 1
 550 -61 l 1
 429 -61 385 -97 385 -171 c 2
 385 -1339 l 1
 1192 -1339 l 1
 1192 -171 l 2
 1192 -101 1153 -61 1027 -61 c 1
 1027 0 l 1
 1508 0 l 1
 1508 -61 l 1
 1387 -61 1343 -97 1343 -171 c 2
 1343 -1229 l 2
 1343 -1299 1382 -1339 1508 -1339 c 1
 1508 -1400 l 1
EndSplineSet
EndChar

StartChar: uni2195
Encoding: 8597 8597 44
Width: 569
Flags: MW
HStem: -128 49<39 39> 579 49<39 39>
VStem: 260 49<-185 685 -185 685>
LayerCount: 2
Fore
SplineSet
309 685 m 1
 309 -185 l 1
 402 -117 487 -90 530 -79 c 1
 530 -128 l 1
 383 -166 297 -257 285 -270 c 1
 284 -270 l 1
 271 -255 185 -166 39 -128 c 1
 39 -79 l 1
 78 -89 164 -115 260 -185 c 1
 260 685 l 1
 167 617 82 590 39 579 c 1
 39 628 l 1
 189 667 278 762 285 770 c 1
 298 755 384 666 530 628 c 1
 530 579 l 1
 491 589 405 615 309 685 c 1
EndSplineSet
EndChar

StartChar: uni21D5
Encoding: 8661 8661 45
Width: 754
Flags: MW
HStem: -17 49<21 21> 468 49<21 21>
VStem: 242 49<-74 574 574 574> 463 49<-74 574 -74 611 -74 611>
LayerCount: 2
Fore
SplineSet
512 574 m 1
 512 -74 l 1
 582 -27 639 3 733 32 c 1
 733 -17 l 1
 599 -58 478 -133 377 -269 c 1
 274 -131 151 -57 21 -17 c 1
 21 32 l 1
 121 1 179 -32 242 -74 c 1
 242 574 l 1
 172 527 115 497 21 468 c 1
 21 517 l 1
 155 558 276 633 377 769 c 1
 480 631 603 557 733 517 c 1
 733 468 l 1
 633 499 575 532 512 574 c 1
291 611 m 1
 291 -111 l 1
 322 -137 323 -138 377 -193 c 1
 431 -138 432 -137 463 -111 c 1
 463 611 l 1
 432 637 431 638 377 693 c 1
 323 638 322 637 291 611 c 1
EndSplineSet
EndChar

StartChar: bracehtipdownleft
Encoding: 1114137 -1 46
Width: 466
Flags: MW
HStem: -252 21<-6 18> 0 103<355 463.5>
VStem: -20 486
LayerCount: 2
Fore
SplineSet
470 74 m 2
 470 29 l 2
 470 9 470 0 457 0 c 0
 252 -6 116 -102 36 -243 c 0
 31 -252 28 -252 8 -252 c 0
 -20 -252 -20 -251 -20 -224 c 0
 -20 -207 -20 -205 -18 -203 c 0
 71 -21 266 103 444 103 c 0
 469 103 470 102 470 74 c 2
EndSplineSet
EndChar

StartChar: bracehtipdownright
Encoding: 1114138 -1 47
Width: 466
Flags: MW
HStem: -252 21<447.5 472> 0 103<9.5 13>
VStem: 0 486
LayerCount: 2
Fore
SplineSet
-4 29 m 2
 -4 74 l 2
 -4 102 -3 103 22 103 c 0
 124 103 283 55 403 -82 c 0
 458 -146 484 -202 485 -206 c 0
 486 -207 486 -209 486 -224 c 0
 486 -251 486 -252 458 -252 c 0
 437 -252 435 -252 429 -241 c 0
 336 -78 184 -6 13 0 c 0
 -4 0 -4 6 -4 29 c 2
EndSplineSet
EndChar

StartChar: bracehtipupleft
Encoding: 1114139 -1 48
Width: 466
Flags: MW
HStem: 0 103 336 20<-6 19>
VStem: -20 486
LayerCount: 2
Fore
SplineSet
470 74 m 2
 470 29 l 2
 470 3 470 0 447 0 c 0
 301 0 95 87 -18 305 c 0
 -20 308 -20 310 -20 328 c 0
 -20 355 -20 356 8 356 c 0
 30 356 31 355 41 338 c 0
 134 176 296 108 443 104 c 0
 470 103 470 102 470 74 c 2
EndSplineSet
EndChar

StartChar: bracehtipupright
Encoding: 1114140 -1 49
Width: 466
Flags: MW
HStem: 0 104<23 42 23 115.5> 336 20<448 472>
VStem: 0 486
LayerCount: 2
Fore
SplineSet
-4 29 m 2
 -4 74 l 2
 -4 112 10 104 36 104 c 0
 48 104 181 108 305 200 c 0
 378 254 413 317 430 347 c 0
 435 356 438 356 458 356 c 0
 486 356 486 355 486 328 c 0
 486 311 486 309 484 307 c 0
 403 138 212 0 19 0 c 0
 -4 0 -4 3 -4 29 c 2
EndSplineSet
EndChar

StartChar: u1D589.alt
Encoding: 1114141 -1 51
Width: 662
Flags: MW
HStem: -28 86 562 69
VStem: 129 118 430 121
LayerCount: 2
Fore
SplineSet
299 465 m 1
 315 456 l 1
 300 444 272 421 271 421 c 0
 260 412 256 400 253 388 c 0
 244 350 241 311 241 272 c 0
 241 240 243 209 246 178 c 0
 248 161 257 144 272 131 c 1
 302 101 341 79 381 58 c 1
 409 100 418 149 424 196 c 0
 429 238 431 279 431 321 c 0
 431 357 429 392 427 428 c 1
 357 483 282 533 191 560 c 0
 178 564 165 565 151 565 c 0
 138 565 122 560 107 554 c 1
 97 573 l 1
 140 594 193 620 248 631 c 1
 298 625 345 608 389 587 c 0
 447 559 500 524 551 486 c 1
 553 458 555 430 555 401 c 0
 555 300 540 200 506 102 c 1
 433 57 338 -1 284 -28 c 1
 230 8 179 45 130 85 c 1
 126 129 124 174 124 218 c 0
 124 267 127 315 134 364 c 1
 183 403 241 435 299 465 c 1
EndSplineSet
EndChar

StartChar: u1D58B.alt01
Encoding: 1114142 -1 52
Width: 464
Flags: W
HStem: 359 46<85 169 85 169 70 169 288 410> 671 20G<288 324>
VStem: 169 27 169 118<300.5 359 300.5 359 300.5 359 300.5 514>
LayerCount: 2
Fore
SplineSet
448 655 m 1xe0
 338 555 l 1
 314 572 275 598 259 598 c 0
 243 598 227 596 217 586 c 1
 204 577 195 565 195 551 c 0xe0
 195 536 201 522 209 509 c 0
 224 486 271 423 288 405 c 1
 427 405 l 1
 427 398 l 1
 410 359 l 1
 287 359 l 1xd0
 287 242 287 123 268 12 c 0
 265 -3 257 -20 249 -34 c 2
 134 -242 l 1
 113 -238 l 1
 128 -204 154 -141 160 -107 c 1
 165 -69 169 -24 169 18 c 2xe0
 169 359 l 1xd0
 70 359 l 1
 70 367 l 1
 85 405 l 1
 169 405 l 1
 169 514 l 2
 169 536 169 558 175 579 c 0
 179 594 186 607 196 621 c 0
 214 644 234 665 253 677 c 1
 273 688 281 691 295 691 c 0
 353 691 378 677 411 657 c 1
 445 676 l 1
 448 655 l 1xe0
EndSplineSet
EndChar

StartChar: u1D58B.alt02
Encoding: 1114143 -1 53
Width: 459
Flags: W
HStem: 359 46<85 170 85 170 70 170 288 410>
VStem: 170 80 170 117<300.5 359 300.5 359 300.5 359 300.5 412.5>
LayerCount: 2
Fore
SplineSet
288 405 m 1xa0
 427 405 l 1
 427 398 l 1
 410 359 l 1
 287 359 l 1xa0
 287 242 287 119 267 10 c 0
 264 -5 257 -19 249 -33 c 0
 249 -34 168 -183 134 -242 c 1
 113 -239 l 1
 127 -205 154 -141 160 -107 c 0
 166 -69 170 -24 170 18 c 2xc0
 170 359 l 1
 70 359 l 1
 70 367 l 1
 85 405 l 1
 170 405 l 1
 170 420 161 444 152 469 c 0
 141 498 132 532 132 555 c 1
 173 603 219 649 271 688 c 1
 286 678 301 668 318 660 c 0
 329 655 341 651 353 651 c 0
 371 651 387 657 400 667 c 1
 411 655 l 1
 324 569 l 1
 284 569 245 576 207 586 c 1
 210 551 227 517 247 486 c 0
 264 460 275 438 288 405 c 1xa0
EndSplineSet
EndChar

StartChar: u1D58C.alt
Encoding: 1114144 -1 54
Width: 667
Flags: MW
HStem: -212 78<257.5 370.5> -29 100 398 76
VStem: 125 110 425 140
LayerCount: 2
Fore
SplineSet
552 -49 m 1
 398 -196 l 1
 365 -204 330 -212 294 -212 c 0
 221 -212 151 -186 100 -143 c 1
 168 -44 l 1
 178 -44 l 1
 207 -103 282 -134 357 -134 c 0
 384 -134 413 -134 433 -118 c 0
 447 -106 450 -87 450 -71 c 0
 450 -29 436 38 425 92 c 1
 228 -29 l 1
 196 3 165 35 129 64 c 1
 128 98 127 132 127 166 c 0
 127 234 130 302 141 370 c 1
 200 409 266 441 331 474 c 1
 376 453 426 440 475 429 c 1
 559 474 l 1
 574 462 l 1
 545 400 541 334 541 268 c 0
 541 195 543 121 555 48 c 0
 557 30 562 3 562 -5 c 0
 562 -20 558 -35 552 -49 c 1
423 124 m 1
 425 347 l 1
 366 354 309 373 258 398 c 1
 239 354 235 299 235 258 c 0
 235 225 237 192 241 159 c 0
 243 144 250 129 262 117 c 1
 272 105 306 79 327 65 c 1
 423 124 l 1
EndSplineSet
EndChar

StartChar: u1D590.alt
Encoding: 1114145 -1 55
Width: 464
Flags: MW
HStem: 359 46<77 137 77 137 62 137 254 364>
VStem: 137 117<320.5 359 320.5 359 405 421 320.5 448.5>
LayerCount: 2
Fore
SplineSet
254 405 m 1
 380 405 l 1
 380 398 l 1
 364 359 l 1
 254 359 l 1
 254 282 254 175 257 130 c 1
 284 110 318 88 348 72 c 1
 412 92 l 1
 416 74 l 1
 356 42 296 9 244 -27 c 1
 206 6 167 36 122 62 c 1
 137 113 137 259 137 359 c 1
 62 359 l 1
 62 367 l 1
 77 405 l 1
 137 405 l 1
 137 492 137 611 129 663 c 1
 144 673 l 1
 175 597 l 1
 226 630 279 659 336 684 c 1
 352 676 l 1
 322 661 300 635 282 609 c 0
 262 580 259 546 259 512 c 1
 380 584 l 1
 398 560 413 535 427 509 c 1
 364 445 l 1
 356 443 l 1
 345 457 333 471 319 483 c 0
 310 490 300 497 288 497 c 0
 282 497 275 496 271 492 c 0
 254 477 254 437 254 405 c 1
EndSplineSet
EndChar

StartChar: u1D599.alt
Encoding: 1114146 -1 56
Width: 468
Flags: MW
HStem: 359 46<95 162 95 162 80 162 279 376>
VStem: 162 117<321 359 321 359 321 359 405 405.5 321 532>
LayerCount: 2
Fore
SplineSet
279 405 m 1
 392 405 l 1
 392 398 l 1
 376 359 l 1
 279 359 l 1
 279 283 279 156 282 132 c 1
 308 105 341 81 380 67 c 1
 444 98 l 1
 451 77 l 1
 393 40 278 -33 277 -33 c 0
 240 -1 197 26 153 51 c 1
 158 109 162 168 162 226 c 2
 162 359 l 1
 80 359 l 1
 80 367 l 1
 95 405 l 1
 162 405 l 1
 162 532 l 1
 279 586 l 1
 291 577 l 1
 287 521 279 406 279 405 c 1
EndSplineSet
EndChar

StartChar: u1D584.alt
Encoding: 1114147 -1 57
Width: 1063
Flags: MW
HStem: -221 55<413.5 568.5> 51 94<224 227> 619 62<233.5 366.5>
VStem: 64 105 419 130 793 132
LayerCount: 2
Fore
SplineSet
338 681 m 0
 395 681 438 662 475 632 c 1
 504 607 523 574 535 541 c 1
 604 593 686 637 766 680 c 1
 805 643 854 616 904 590 c 1
 913 499 924 390 924 317 c 0
 924 196 906 74 841 -35 c 1
 781 -89 713 -137 637 -172 c 0
 576 -201 508 -221 438 -221 c 0
 389 -221 339 -211 304 -181 c 0
 294 -173 279 -161 276 -155 c 1
 383 -45 l 1
 396 -47 l 1
 397 -81 413 -113 442 -137 c 1
 469 -158 505 -166 541 -166 c 0
 596 -166 645 -144 683 -112 c 0
 729 -74 749 -20 764 31 c 0
 787 107 793 185 793 263 c 0
 793 346 791 428 774 509 c 1
 734 535 691 559 645 575 c 1
 607 554 575 527 544 501 c 1
 547 480 548 448 548 425 c 0
 548 355 533 285 488 225 c 1
 471 216 393 167 348 139 c 1
 405 116 492 82 529 82 c 0
 547 82 564 88 580 96 c 0
 602 107 622 121 639 136 c 1
 645 114 l 1
 597 62 541 14 480 -29 c 0
 477 -30 472 -31 470 -31 c 0
 439 -31 389 -10 351 7 c 0
 305 27 249 51 205 51 c 0
 178 51 151 44 132 28 c 0
 116 15 102 1 88 -14 c 1
 67 6 l 1
 94 38 173 106 224 145 c 1
 278 145 333 157 373 189 c 1
 391 205 400 227 406 248 c 0
 416 279 419 312 419 344 c 0
 419 393 413 443 397 490 c 0
 386 525 370 559 339 584 c 0
 315 604 287 619 249 619 c 0
 218 619 187 607 174 597 c 0
 158 584 151 567 151 548 c 0
 151 536 162 522 170 512 c 0
 183 496 197 480 213 466 c 0
 239 442 266 407 266 386 c 0
 266 375 265 365 258 356 c 1
 250 342 242 328 230 317 c 0
 193 285 153 260 108 235 c 1
 92 254 l 1
 112 266 122 275 136 292 c 0
 146 304 154 318 154 333 c 0
 154 349 127 379 107 400 c 0
 93 415 76 429 65 446 c 0
 58 455 58 469 58 481 c 0
 58 504 69 525 82 545 c 0
 100 572 125 596 150 618 c 1
 196 656 262 681 338 681 c 0
EndSplineSet
EndChar

StartChar: u1D585.alt
Encoding: 1114148 -1 58
Width: 788
Flags: MW
HStem: -148 46 69 75 283 98 602 76<295 421.5>
VStem: 149 130 533 136
LayerCount: 2
Fore
SplineSet
289 360 m 1
 277 362 l 1
 293 381 l 1
 320 381 345 383 371 388 c 0
 388 392 405 397 419 408 c 0
 447 432 454 468 454 501 c 0
 454 527 443 552 421 571 c 0
 394 593 356 602 319 602 c 0
 271 602 223 590 188 561 c 1
 145 527 l 1
 127 550 l 1
 174 592 224 631 277 667 c 1
 315 674 353 678 392 678 c 0
 451 678 513 671 556 635 c 1
 582 615 592 586 592 557 c 0
 592 512 575 467 536 435 c 0
 499 404 456 377 404 371 c 1
 404 365 l 1
 476 365 551 356 602 313 c 1
 650 274 668 218 668 163 c 0
 668 84 643 3 575 -53 c 0
 507 -110 419 -148 322 -148 c 0
 278 -148 232 -141 201 -115 c 0
 168 -88 153 -49 151 -11 c 0
 150 12 144 47 133 57 c 0
 122 66 105 69 90 69 c 0
 70 69 50 61 33 53 c 1
 27 76 l 1
 58 95 90 113 125 127 c 0
 147 136 172 144 197 144 c 0
 221 144 244 139 262 125 c 1
 279 110 279 57 279 21 c 0
 279 1 282 -20 288 -40 c 0
 293 -54 299 -69 312 -79 c 0
 332 -95 362 -104 390 -104 c 0
 424 -104 450 -91 473 -72 c 0
 496 -53 508 -21 518 5 c 1
 529 38 533 74 533 109 c 0
 533 139 530 169 519 198 c 0
 510 221 499 242 479 259 c 0
 460 275 422 290 344 290 c 0
 314 290 285 287 255 281 c 1
 244 291 l 1
 289 360 l 1
EndSplineSet
EndChar

StartChar: uni2018
Encoding: 8216 8216 59
Width: 322
Flags: MW
HStem: 410 299<166.5 201>
VStem: 86 138<449 553.5>
LayerCount: 2
Fore
SplineSet
201 709 m 1
 217 695 l 1
 199 669 184 643 170 616 c 0
 163 604 158 591 158 577 c 0
 158 561 165 546 175 532 c 2
 214 483 l 2
 220 475 224 465 224 455 c 0
 224 443 216 431 204 424 c 1
 195 417 184 410 173 410 c 0
 160 410 149 418 142 426 c 0
 112 460 86 498 86 541 c 0
 86 566 100 588 116 609 c 0
 141 644 170 677 201 709 c 1
EndSplineSet
EndChar

StartChar: uni2019
Encoding: 8217 8217 60
Width: 322
Flags: MW
HStem: 427 297
VStem: 81 138
LayerCount: 2
Fore
SplineSet
113 394 m 1
 97 408 l 1
 115 434 130 460 144 487 c 0
 151 499 155 512 155 526 c 0
 155 542 149 557 139 571 c 2
 100 620 l 2
 94 628 90 638 90 648 c 0
 90 660 98 672 110 679 c 1
 119 686 130 693 141 693 c 0
 154 693 165 685 172 677 c 0
 202 643 228 605 228 562 c 0
 228 537 214 515 198 494 c 0
 173 459 144 426 113 394 c 1
EndSplineSet
EndChar

StartChar: uni0021
Encoding: 33 33 61
Width: 419
Flags: MW
HStem: -12 117 184 21<191 191> 670 20<208 221>
VStem: 141 136
LayerCount: 2
Fore
SplineSet
146 46 m 0
 146 80 175 108 209 108 c 0
 244 108 273 80 273 46 c 0
 273 12 244 -16 209 -16 c 0
 175 -16 146 12 146 46 c 0
253 557 m 2
 210 186 l 1
 191 184 l 1
 158 567 l 2
 156 586 154 608 154 625 c 0
 154 637 155 649 160 661 c 0
 163 668 166 676 174 681 c 0
 186 688 200 690 216 690 c 0
 226 690 236 688 244 682 c 0
 256 672 260 658 260 644 c 0
 260 615 257 586 253 557 c 2
EndSplineSet
EndChar

StartChar: uni0026
Encoding: 38 38 62
Width: 952
Flags: MW
HStem: -14 52<290.5 421> 355 48 662 35<385 468>
VStem: 75 119<158.5 254.5> 221 95<487.5 588.5> 459 115 655 76<231 316.5>
LayerCount: 2
Fore
SplineSet
472 355 m 1
 473 404 l 1
 511 402 550 401 589 401 c 0
 688 401 786 404 885 408 c 1
 882 351 l 1
 847 353 759 355 725 355 c 1
 728 341 731 324 731 309 c 0
 731 236 697 163 638 112 c 1
 671 92 713 71 754 71 c 0
 770 71 788 75 800 85 c 0
 832 112 848 148 863 184 c 1
 889 178 l 1
 872 120 849 63 798 20 c 0
 770 -3 733 -16 694 -16 c 0
 636 -16 581 5 538 37 c 1
 472 8 400 -14 325 -14 c 0
 256 -14 190 8 141 48 c 0
 97 84 75 133 75 184 c 0
 75 233 94 281 136 316 c 0
 161 337 209 372 249 394 c 1
 232 433 221 467 221 508 c 0
 221 556 232 606 274 641 c 0
 321 679 385 697 450 697 c 0
 486 697 521 689 546 668 c 0
 566 651 575 627 575 603 c 0
 575 564 555 527 523 500 c 0
 483 467 426 439 373 414 c 1
 405 368 450 305 472 278 c 0
 512 228 559 176 610 133 c 1
 644 165 655 210 655 252 c 0
 655 283 642 313 615 335 c 0
 594 353 562 357 533 357 c 0
 512 357 492 357 472 355 c 1
510 64 m 1
 459 112 410 161 369 215 c 0
 334 260 296 315 266 363 c 1
 253 357 240 348 230 340 c 0
 200 315 194 272 194 237 c 0
 194 180 224 125 273 85 c 1
 308 55 356 38 406 38 c 0
 436 38 479 50 510 64 c 1
357 445 m 1
 376 454 395 464 410 477 c 0
 445 506 459 547 459 588 c 0
 459 609 451 629 434 644 c 0
 423 653 410 662 394 662 c 0
 376 662 356 657 343 645 c 0
 322 627 316 601 316 576 c 0
 316 530 331 485 357 445 c 1
EndSplineSet
EndChar

StartChar: uni0027
Encoding: 39 39 63
Width: 319
Flags: MW
HStem: 436 21<138 138 138 157> 675 20<151 162>
VStem: 114 81
LayerCount: 2
Fore
SplineSet
138 436 m 1
 116 629 l 2
 115 641 114 653 114 666 c 0
 114 674 118 681 125 686 c 0
 134 692 145 695 157 695 c 0
 167 695 177 694 184 688 c 0
 191 681 194 671 194 662 c 0
 194 651 191 635 189 622 c 2
 157 436 l 1
 138 436 l 1
EndSplineSet
EndChar

StartChar: uni0028
Encoding: 40 40 64
Width: 531
Flags: MW
HStem: -186 21<386 386> 718 20<386 386>
VStem: 169 61<239.5 310 231 318.5>
LayerCount: 2
Fore
SplineSet
386 -172 m 1
 386 -186 l 1
 330 -178 286 -145 252 -108 c 1
 215 -65 201 -13 190 38 c 0
 173 118 169 199 169 280 c 0
 169 357 174 435 192 510 c 0
 205 564 225 618 263 664 c 0
 292 699 336 725 386 738 c 1
 386 719 l 1
 346 702 317 673 297 639 c 0
 270 592 256 541 247 489 c 0
 234 418 230 346 230 274 c 0
 230 188 234 102 251 18 c 0
 257 -11 266 -40 278 -68 c 0
 287 -88 297 -107 314 -123 c 0
 334 -143 357 -165 386 -172 c 1
EndSplineSet
EndChar

StartChar: uni0029
Encoding: 41 41 65
Width: 531
Flags: MW
HStem: -187 21<139 139> 715 20<139 139>
VStem: 301 63
LayerCount: 2
Fore
SplineSet
139 715 m 1
 139 735 l 1
 180 728 216 708 244 682 c 0
 292 638 317 581 334 524 c 1
 357 441 365 357 365 272 c 0
 365 188 359 103 340 20 c 0
 328 -33 311 -88 269 -130 c 0
 237 -163 188 -179 139 -187 c 1
 139 -171 l 1
 174 -159 208 -145 233 -120 c 0
 247 -105 256 -87 264 -69 c 1
 274 -42 280 -15 285 12 c 0
 300 99 301 188 301 276 c 0
 301 355 296 434 278 511 c 0
 266 564 249 617 213 662 c 1
 193 684 169 703 139 715 c 1
EndSplineSet
EndChar

StartChar: uni002A
Encoding: 42 42 66
Width: 397
Flags: MW
HStem: 425 25 692 24
VStem: 180 42
LayerCount: 2
Fore
SplineSet
224 449 m 1
 175 449 l 1
 182 494 184 506 185 557 c 1
 152 534 124 514 94 481 c 1
 69 521 l 1
 104 536 138 553 170 574 c 1
 131 601 96 618 72 629 c 1
 101 662 l 1
 128 638 160 614 184 598 c 1
 184 637 184 662 175 702 c 1
 224 702 l 1
 215 663 212 642 210 602 c 1
 241 624 263 640 287 665 c 1
 318 628 l 1
 289 616 251 601 216 578 c 1
 254 549 287 536 319 524 c 1
 287 488 l 1
 268 508 242 526 210 548 c 1
 211 506 213 492 224 449 c 1
EndSplineSet
EndChar

StartChar: uni002B
Encoding: 43 43 67
Width: 973
Flags: MW
HStem: 238 50<106 462 106 462 89 462 513 869>
VStem: 462 51<-64 238 -64 238 -64 238 288 584 584 584>
LayerCount: 2
Fore
SplineSet
513 288 m 1
 886 288 l 1
 869 238 l 1
 513 238 l 1
 513 -64 l 1
 462 -83 l 1
 462 238 l 1
 89 238 l 1
 106 288 l 1
 462 288 l 1
 462 584 l 1
 513 598 l 1
 513 288 l 1
EndSplineSet
EndChar

StartChar: uni002C
Encoding: 44 44 68
Width: 346
Flags: MW
HStem: -192 299
VStem: 151 138
LayerCount: 2
Fore
SplineSet
180 -217 m 1
 152 -197 l 1
 155 -193 l 1
 176 -167 204 -125 214 -101 c 0
 219 -89 222 -73 222 -61 c 0
 222 -47 218 -33 210 -22 c 1
 138 61 l 2
 131 70 130 87 130 90 c 0
 130 106 146 122 156 130 c 0
 169 139 188 143 196 143 c 0
 206 143 226 134 234 124 c 0
 247 107 266 66 282 26 c 0
 288 9 290 -10 290 -27 c 0
 290 -53 279 -77 267 -98 c 0
 249 -130 227 -163 183 -214 c 1
 180 -217 l 1
EndSplineSet
EndChar

StartChar: uni2212
Encoding: 8722 8722 69
Width: 973
Flags: MW
HStem: 231 50<106 866 87 883>
LayerCount: 2
Fore
SplineSet
866 231 m 1
 87 231 l 1
 106 281 l 1
 883 281 l 1
 866 231 l 1
EndSplineSet
EndChar

StartChar: uni002E
Encoding: 46 46 70
Width: 397
Flags: MW
HStem: -15 117
VStem: 137 137
LayerCount: 2
Fore
SplineSet
204 129 m 0
 245 129 278 97 278 57 c 0
 278 17 245 -15 204 -15 c 0
 164 -15 131 17 131 57 c 0
 131 97 164 129 204 129 c 0
EndSplineSet
EndChar

StartChar: uni002F
Encoding: 47 47 71
Width: 667
Flags: MW
HStem: -182 21 702 20<544 544>
VStem: 73 520
LayerCount: 2
Fore
SplineSet
584 719 m 1
 591 704 l 1
 118 -197 l 1
 78 -188 l 1
 74 -170 l 1
 544 722 l 1
 559 725 l 1
 584 719 l 1
EndSplineSet
EndChar

StartChar: uni0030.moldstyle
Encoding: 1114149 -1 72
Width: 667
Flags: MW
HStem: -11 84 420 82
VStem: 74 103<159 280> 469 107<235.5 240>
LayerCount: 2
Fore
SplineSet
351 502 m 1
 403 489 453 470 491 438 c 0
 544 395 576 336 576 274 c 0
 576 197 532 127 467 73 c 0
 437 48 404 27 368 11 c 0
 339 -2 307 -11 274 -11 c 0
 225 -11 179 7 144 35 c 0
 96 75 74 131 74 187 c 0
 74 272 114 353 186 412 c 1
 233 452 291 480 351 502 c 1
270 424 m 1
 239 409 226 395 212 373 c 1
 188 339 177 300 177 260 c 0
 177 202 204 146 254 105 c 0
 279 84 311 71 346 71 c 0
 376 71 410 74 432 92 c 0
 447 105 455 121 461 138 c 0
 469 160 469 188 469 211 c 0
 469 269 434 322 385 363 c 0
 354 389 311 414 270 424 c 1
EndSplineSet
EndChar

StartChar: uni0031.moldstyle
Encoding: 1114150 -1 73
Width: 667
Flags: MW
HStem: 0 44 449 40
VStem: 290 116
LayerCount: 2
Fore
SplineSet
131 451 m 1
 129 482 l 1
 423 489 l 1
 412 407 406 325 406 242 c 2
 406 62 l 2
 406 52 416 43 428 42 c 0
 446 41 464 41 482 41 c 2
 591 42 l 1
 591 0 l 1
 87 0 l 1
 87 48 l 1
 141 48 196 46 251 45 c 0
 267 45 279 55 279 68 c 0
 285 157 292 252 292 336 c 0
 292 358 291 380 283 400 c 0
 274 422 249 434 224 438 c 2
 131 451 l 1
EndSplineSet
EndChar

StartChar: uni0032.moldstyle
Encoding: 1114151 -1 74
Width: 667
Flags: MW
HStem: 4 97 421 70<240.5 353.5>
VStem: 345 125
LayerCount: 2
Fore
SplineSet
580 1 m 1
 80 0 l 1
 77 25 l 1
 208 135 l 2
 246 167 282 202 309 242 c 0
 329 270 345 301 345 334 c 0
 345 358 339 383 318 400 c 0
 302 413 282 421 260 421 c 0
 221 421 171 399 129 380 c 1
 111 408 l 1
 151 431 193 453 238 470 c 0
 269 481 301 491 335 491 c 0
 372 491 409 486 435 464 c 0
 460 444 471 415 471 387 c 0
 471 362 458 338 444 316 c 0
 424 285 398 256 370 230 c 0
 325 188 237 107 236 107 c 0
 235 106 234 103 234 101 c 1
 237 96 245 96 251 96 c 0
 367 96 480 101 593 106 c 1
 607 102 l 1
 580 1 l 1
EndSplineSet
EndChar

StartChar: uni0033.moldstyle
Encoding: 1114152 -1 75
Width: 667
Flags: MW
HStem: -193 44<229 258.5 207.5 307.5> 166 38<172 194.5> 423 65<256 367>
VStem: 421 145
LayerCount: 2
Fore
SplineSet
352 212 m 1
 356 201 l 1
 414 199 473 184 514 149 c 1
 549 121 565 81 565 41 c 0
 565 -18 540 -76 489 -119 c 0
 430 -168 349 -193 266 -193 c 0
 192 -193 128 -171 69 -137 c 1
 85 -112 l 1
 130 -134 181 -149 234 -149 c 0
 283 -149 332 -136 367 -107 c 0
 406 -75 424 -29 424 17 c 0
 424 55 417 96 383 124 c 0
 361 141 333 149 303 155 c 0
 260 164 217 166 172 166 c 1
 172 204 l 1
 236 204 303 214 350 252 c 0
 376 274 386 304 386 334 c 0
 386 361 371 387 347 406 c 0
 329 421 302 423 278 423 c 0
 234 423 196 403 160 383 c 1
 141 401 l 1
 197 449 264 488 345 488 c 0
 389 488 434 478 466 452 c 0
 491 431 507 402 507 372 c 0
 507 334 489 297 457 270 c 0
 427 245 392 225 352 212 c 1
EndSplineSet
EndChar

StartChar: uni0034.moldstyle
Encoding: 1114153 -1 76
Width: 667
Flags: W
HStem: -1 58<144 379 144 380 487 516.5> -1 62<487 608>
VStem: 374 117<-188 -158> 380 107<-26.5 -1>
LayerCount: 2
Fore
SplineSet
491 -158 m 1xa0
 385 -198 l 1
 374 -188 l 1xa0
 380 -1 l 1
 45 -1 l 1
 45 28 l 1
 402 480 l 1
 487 495 l 1
 497 482 l 1
 491 402 487 234 487 57 c 1x90
 546 57 575 58 608 61 c 1
 589 -1 l 1x50
 487 -1 l 1x90
 487 -52 488 -107 491 -158 c 1xa0
144 57 m 1
 379 57 l 1
 379 359 l 1
 374 362 l 1
 314 307 218 177 144 68 c 1
 144 57 l 1
EndSplineSet
EndChar

StartChar: uni0035.moldstyle
Encoding: 1114154 -1 77
Width: 667
Flags: MW
HStem: -191 39<224 231.5 181 304> 193 49<245 352> 388 93<188.5 193 193 528>
VStem: 129 52 410 149
LayerCount: 2
Fore
SplineSet
558 481 m 1
 528 388 l 1
 193 388 l 2
 184 388 180 379 180 370 c 2
 180 224 l 1
 190 219 l 1
 231 235 275 242 320 242 c 0
 384 242 451 232 498 193 c 0
 541 157 560 108 560 57 c 0
 560 -5 541 -69 487 -114 c 0
 428 -164 346 -191 262 -191 c 0
 186 -191 113 -174 50 -138 c 1
 68 -112 l 1
 110 -135 156 -152 206 -152 c 0
 257 -152 308 -138 344 -108 c 0
 392 -68 410 -11 410 44 c 0
 410 88 399 134 361 165 c 0
 336 186 300 193 266 193 c 0
 224 193 186 175 156 152 c 1
 129 162 l 1
 129 481 l 1
 558 481 l 1
EndSplineSet
EndChar

StartChar: uni0036.moldstyle
Encoding: 1114155 -1 78
Width: 667
Flags: MW
HStem: -12 51<273 379.5> 319 67 646 58<479 480>
VStem: 81 126 491 98<187 187.5>
LayerCount: 2
Fore
SplineSet
580 625 m 1
 554 623 l 1
 528 638 496 646 464 646 c 0
 405 646 352 622 311 588 c 0
 276 558 252 519 236 479 c 0
 217 432 208 380 206 331 c 1
 215 328 l 1
 270 359 331 386 397 386 c 0
 444 386 491 375 525 347 c 1
 565 312 589 265 589 216 c 0
 589 158 555 105 506 64 c 0
 450 18 377 -12 298 -12 c 0
 248 -12 203 8 169 36 c 0
 100 93 81 174 81 253 c 0
 81 379 138 501 245 591 c 1
 324 655 423 704 535 704 c 0
 539 704 572 699 591 697 c 1
 580 625 l 1
208 286 m 1
 209 241 216 196 231 153 c 0
 242 122 258 91 286 68 c 1
 306 50 334 39 365 39 c 0
 394 39 427 47 448 64 c 0
 479 90 491 130 491 165 c 0
 491 210 471 254 433 286 c 0
 404 310 366 322 326 322 c 0
 284 322 249 311 208 286 c 1
EndSplineSet
EndChar

StartChar: uni0037.moldstyle
Encoding: 1114156 -1 79
Width: 667
Flags: MW
HStem: -198 21<92 204 92 92> 375 104<474.5 479>
VStem: 87 549
LayerCount: 2
Fore
SplineSet
204 -198 m 1
 92 -198 l 1
 87 -175 l 1
 482 358 l 2
 484 361 485 363 485 366 c 0
 485 370 483 375 475 375 c 0
 474 375 227 369 103 365 c 1
 89 376 l 1
 120 479 l 1
 635 479 l 1
 635 456 l 1
 464 251 323 30 204 -198 c 1
EndSplineSet
EndChar

StartChar: uni0038.moldstyle
Encoding: 1114157 -1 80
Width: 667
Flags: MW
HStem: -5 47 665 50
VStem: 78 116<172.5 184> 472 113<140.5 231>
LayerCount: 2
Fore
SplineSet
289 336 m 1
 264 325 240 310 224 290 c 0
 200 261 194 229 194 196 c 0
 194 149 217 103 256 70 c 1
 279 52 309 38 340 38 c 0
 373 38 408 43 432 63 c 0
 460 87 472 124 472 157 c 0
 472 197 445 233 411 261 c 0
 379 288 329 316 289 336 c 1
407 401 m 1
 443 381 491 353 512 335 c 0
 554 301 585 256 585 206 c 0
 585 152 556 102 510 64 c 0
 453 16 373 -5 291 -5 c 0
 234 -5 177 8 136 41 c 1
 98 73 78 116 78 161 c 0
 78 207 98 253 138 286 c 0
 173 315 216 338 262 357 c 1
 221 385 188 411 160 447 c 1
 138 473 122 502 122 533 c 0
 122 574 150 609 184 638 c 0
 228 674 284 696 342 715 c 1
 379 713 414 708 450 699 c 0
 475 693 499 685 518 669 c 0
 544 647 560 617 560 586 c 0
 560 550 544 517 521 487 c 1
 492 452 450 424 407 401 c 1
372 424 m 1
 421 452 446 503 446 551 c 0
 446 580 436 609 410 630 c 1
 384 653 348 670 313 676 c 1
 291 667 269 650 256 635 c 0
 241 617 234 592 234 570 c 0
 234 548 252 524 270 507 c 1
 299 476 332 450 372 424 c 1
EndSplineSet
EndChar

StartChar: uni0039.moldstyle
Encoding: 1114158 -1 81
Width: 667
Flags: MW
HStem: -195 32 43 72 425 63
VStem: 62 124<257 266.5> 449 143<204.5 230>
LayerCount: 2
Fore
SplineSet
430 104 m 1
 400 83 353 62 321 53 c 0
 302 48 271 43 251 43 c 0
 203 43 164 67 130 95 c 0
 85 133 62 185 62 238 c 0
 62 295 80 353 129 394 c 0
 161 421 246 459 308 488 c 1
 379 488 450 474 500 432 c 0
 566 377 592 298 592 221 c 0
 592 108 560 -8 462 -90 c 0
 372 -165 245 -195 119 -195 c 1
 119 -164 l 1
 196 -159 275 -145 331 -98 c 0
 392 -48 430 26 437 98 c 1
 430 104 l 1
423 130 m 0
 433 139 439 151 442 163 c 1
 448 179 449 196 449 213 c 0
 449 247 445 282 433 314 c 0
 423 340 408 370 385 390 c 1
 360 410 328 435 295 446 c 1
 264 433 250 426 232 410 c 0
 218 398 202 370 196 354 c 1
 189 331 186 308 186 284 c 0
 186 230 218 179 265 141 c 0
 287 122 321 115 352 115 c 0
 377 115 404 115 423 130 c 0
EndSplineSet
EndChar

StartChar: uni003A
Encoding: 58 58 82
Width: 324
Flags: MW
HStem: -16 145<142 182> 334 144<141.5 182>
VStem: 88 147<386 426>
LayerCount: 2
Fore
SplineSet
162 478 m 0
 202 478 235 446 235 406 c 0
 235 366 202 334 162 334 c 0
 121 334 88 366 88 406 c 0
 88 446 121 478 162 478 c 0
162 129 m 0
 202 129 236 97 236 57 c 0
 236 17 202 -16 162 -16 c 0
 122 -16 88 17 88 57 c 0
 88 97 122 129 162 129 c 0
EndSplineSet
EndChar

StartChar: uni003B
Encoding: 59 59 83
Width: 324
Flags: MW
HStem: -190 289 343 116
VStem: 89 159
LayerCount: 2
Fore
SplineSet
161 479 m 0
 201 479 234 447 234 407 c 0
 234 367 201 334 161 334 c 0
 120 334 87 367 87 407 c 0
 87 447 120 479 161 479 c 0
137 -217 m 1
 109 -197 l 1
 113 -193 l 1
 133 -167 161 -125 171 -101 c 0
 176 -89 179 -73 179 -61 c 0
 179 -47 175 -33 167 -22 c 1
 95 61 l 2
 88 70 87 87 87 90 c 0
 87 106 103 122 113 130 c 0
 126 139 145 143 153 143 c 0
 164 143 183 134 191 124 c 0
 204 107 223 66 239 26 c 0
 245 9 247 -10 247 -27 c 0
 247 -53 236 -77 224 -98 c 0
 206 -130 184 -163 140 -214 c 1
 137 -217 l 1
EndSplineSet
EndChar

StartChar: uni003D
Encoding: 61 61 84
Width: 656
Flags: MW
HStem: 164 50<66 592 54 602> 299 50<66 592 54 602>
LayerCount: 2
Fore
SplineSet
592 299 m 1
 54 299 l 1
 66 349 l 1
 602 349 l 1
 592 299 l 1
592 164 m 1
 54 164 l 1
 66 214 l 1
 602 214 l 1
 592 164 l 1
EndSplineSet
EndChar

StartChar: uni003F
Encoding: 63 63 85
Width: 499
Flags: MW
HStem: -15 129 170 21 654 45
VStem: 129 150 350 113<550 564>
LayerCount: 2
Fore
SplineSet
204 121 m 0
 245 121 279 89 279 49 c 0
 279 9 245 -24 204 -24 c 0
 165 -24 131 9 131 49 c 0
 131 89 165 121 204 121 c 0
188 534 m 1
 108 489 l 1
 102 492 97 495 92 500 c 0
 76 513 72 533 72 552 c 0
 72 581 83 610 108 631 c 0
 160 674 228 699 300 699 c 0
 344 699 389 689 421 663 c 0
 448 640 463 609 463 577 c 0
 463 523 435 474 386 438 c 2
 253 338 l 2
 233 322 216 299 216 275 c 0
 216 255 226 239 244 224 c 1
 244 215 l 1
 173 168 l 1
 162 173 151 179 141 187 c 0
 125 201 117 220 117 240 c 0
 117 267 133 293 157 311 c 2
 280 398 l 2
 335 437 350 490 350 549 c 0
 350 579 337 609 310 631 c 0
 293 645 270 659 245 659 c 0
 220 659 193 652 175 637 c 0
 162 626 155 606 155 591 c 0
 155 575 164 559 176 546 c 2
 188 534 l 1
EndSplineSet
EndChar

StartChar: u1D56C
Encoding: 120172 120172 86
Width: 927
Flags: MW
HStem: -31 21<390 390> 77 82 624 64<250.5 387>
VStem: 62 105<496 555.5> 452 126 627 134
LayerCount: 2
Fore
SplineSet
627 124 m 1
 390 -31 l 1
 362 -2 333 26 298 49 c 0
 277 63 254 73 227 73 c 0
 192 73 132 50 91 31 c 1
 69 48 l 1
 273 176 l 2
 300 193 326 212 350 232 c 0
 421 291 452 373 452 455 c 0
 452 504 425 550 383 584 c 0
 353 609 311 624 269 624 c 0
 232 624 209 617 189 600 c 0
 172 586 167 565 167 546 c 0
 167 534 173 523 180 513 c 0
 191 498 204 485 219 472 c 0
 235 458 251 444 264 427 c 0
 272 417 279 407 279 395 c 0
 279 365 256 339 232 318 c 1
 199 291 161 268 120 249 c 1
 100 264 l 1
 120 275 137 288 152 304 c 0
 162 315 171 327 171 341 c 0
 171 357 140 389 119 411 c 1
 102 427 88 444 76 463 c 1
 69 476 62 489 62 503 c 0
 62 531 78 559 108 586 c 0
 161 633 283 688 357 688 c 0
 417 688 476 673 519 638 c 1
 557 605 579 561 579 515 c 0
 579 446 553 379 518 317 c 1
 321 159 l 1
 347 159 372 150 394 138 c 0
 426 122 453 101 478 79 c 1
 515 88 577 125 623 153 c 1
 623 582 l 1
 800 687 l 1
 814 674 l 1
 762 623 l 1
 754 574 754 408 754 300 c 0
 754 260 755 219 758 179 c 1
 816 78 l 1
 870 99 l 1
 876 77 l 1
 821 42 769 4 713 -29 c 1
 701 -26 l 1
 627 124 l 1
EndSplineSet
EndChar

StartChar: u1D56D
Encoding: 120173 120173 87
Width: 1127
Flags: MW
HStem: -31 85<649.5 806.5> 621 64
VStem: 89 103<500.5 564.5> 430 137 876 126<131 238.5>
LayerCount: 2
Fore
SplineSet
956 100 m 1
 781 -11 l 1
 755 -24 717 -31 682 -31 c 0
 617 -31 555 -15 496 4 c 0
 437 23 376 41 311 41 c 0
 246 41 187 21 131 -9 c 1
 118 15 l 1
 259 92 l 2
 302 116 344 141 381 171 c 1
 401 189 421 212 427 235 c 0
 436 271 440 316 440 355 c 0
 440 392 440 431 433 467 c 0
 424 511 403 557 365 589 c 0
 340 609 311 627 276 627 c 0
 252 627 230 618 214 604 c 0
 199 592 192 573 192 556 c 0
 192 543 200 532 208 522 c 0
 222 504 238 488 255 472 c 0
 270 459 284 445 295 429 c 0
 302 419 309 408 309 396 c 0
 309 386 306 375 299 366 c 0
 290 353 276 340 264 330 c 0
 224 296 178 270 130 246 c 1
 110 259 l 1
 133 274 154 289 176 307 c 0
 188 317 195 331 195 346 c 0
 195 362 171 386 152 404 c 0
 134 421 118 440 105 461 c 0
 96 476 89 492 89 509 c 0
 89 538 130 579 161 604 c 0
 220 654 293 685 371 685 c 0
 452 685 515 636 547 577 c 1
 590 607 634 636 684 657 c 0
 718 672 755 685 794 685 c 0
 816 685 840 681 856 667 c 0
 871 655 885 607 893 575 c 0
 898 557 906 539 918 524 c 1
 927 515 937 505 952 505 c 0
 973 505 994 509 1014 515 c 1
 1014 491 l 1
 806 388 l 1
 806 383 l 1
 832 380 853 377 883 369 c 0
 907 362 931 353 949 338 c 0
 988 306 1002 261 1002 216 c 0
 1002 171 986 137 956 100 c 1
542 241 m 1
 394 137 l 1
 479 135 561 114 640 88 c 0
 691 71 746 54 797 54 c 0
 816 54 836 59 849 70 c 0
 872 89 876 118 876 144 c 0
 876 192 862 243 821 277 c 0
 780 312 722 327 664 327 c 0
 631 327 598 323 566 316 c 1
 562 291 552 265 542 241 c 1
569 346 m 1
 653 365 746 392 826 433 c 1
 816 438 804 445 798 452 c 0
 791 460 785 469 783 478 c 0
 782 480 775 518 770 538 c 0
 765 562 759 589 741 605 c 0
 731 613 717 619 704 619 c 0
 679 619 656 610 637 598 c 0
 609 580 585 553 563 520 c 1
 570 490 570 462 570 419 c 0
 570 394 570 368 569 346 c 1
EndSplineSet
EndChar

StartChar: u1D56E
Encoding: 120174 120174 88
Width: 801
Flags: MW
HStem: -32 78 514 55 657 20
VStem: 104 131<327 337> 390 139<328 407.5>
LayerCount: 2
Fore
SplineSet
351 593 m 1
 377 568 l 1
 460 620 553 661 656 677 c 1
 664 641 676 605 707 579 c 0
 715 572 727 572 738 572 c 0
 746 572 764 575 776 578 c 1
 776 553 l 1
 748 542 668 513 633 513 c 0
 624 513 616 514 609 518 c 0
 599 524 588 531 581 540 c 0
 562 562 545 587 531 611 c 1
 522 609 513 606 507 601 c 0
 494 589 488 571 488 555 c 0
 488 538 499 506 509 481 c 0
 521 453 529 420 529 395 c 0
 529 363 523 329 495 306 c 0
 475 289 450 278 426 266 c 1
 388 250 348 236 308 223 c 1
 288 237 l 1
 314 244 334 259 352 274 c 0
 374 292 390 315 390 341 c 0
 390 373 383 404 374 435 c 0
 364 468 353 506 353 533 c 0
 353 542 355 549 357 555 c 1
 333 553 309 544 292 529 c 0
 271 512 258 489 249 465 c 0
 238 435 235 403 235 371 c 0
 235 283 263 194 338 131 c 0
 402 78 487 45 577 45 c 0
 598 45 623 46 640 54 c 2
 758 108 l 1
 762 81 l 1
 593 -22 l 1
 564 -28 536 -32 506 -32 c 0
 402 -32 296 -11 222 50 c 0
 141 118 104 212 104 306 c 0
 104 368 123 429 152 485 c 1
 174 501 279 562 351 593 c 1
EndSplineSet
EndChar

StartChar: u1D56F
Encoding: 120175 120175 89
Width: 1064
Flags: MW
HStem: -29 21<588 612> 63 97 597 88<369 568>
VStem: 63 26 283 130 828 118<260.5 411>
LayerCount: 2
Fore
SplineSet
453 549 m 1
 475 538 l 1
 448 516 412 486 412 463 c 0
 412 442 435 416 459 388 c 0
 473 372 496 346 508 328 c 0
 516 317 522 303 522 289 c 0
 522 264 508 241 487 223 c 0
 452 194 407 170 358 152 c 1
 420 142 540 110 624 88 c 0
 649 81 677 75 704 75 c 0
 730 75 750 88 767 103 c 1
 791 121 803 148 811 174 c 1
 824 208 828 243 828 278 c 0
 828 364 802 452 728 513 c 0
 692 543 646 562 598 575 c 0
 539 591 477 597 414 597 c 0
 324 597 230 580 164 526 c 1
 112 482 92 426 88 365 c 1
 63 372 l 1
 63 457 95 541 169 602 c 1
 205 633 253 651 303 663 c 0
 369 679 437 685 504 685 c 0
 632 685 762 660 853 584 c 0
 920 528 946 450 946 372 c 0
 946 296 917 212 866 141 c 1
 784 73 709 24 612 -29 c 1
 564 -29 509 -11 460 5 c 0
 381 31 282 63 217 63 c 0
 186 63 156 53 135 35 c 0
 116 19 97 3 81 -14 c 1
 64 5 l 1
 106 63 164 113 222 161 c 1
 255 161 288 162 321 168 c 0
 341 171 361 175 376 187 c 0
 390 199 396 215 396 232 c 0
 396 245 389 257 382 268 c 0
 370 286 356 302 341 317 c 0
 326 332 314 346 302 363 c 0
 295 373 289 384 289 396 c 0
 289 410 292 424 301 436 c 0
 314 453 327 467 344 481 c 1
 378 506 414 529 453 549 c 1
EndSplineSet
EndChar

StartChar: u1D570
Encoding: 120176 120176 90
Width: 861
Flags: MW
HStem: -29 83<439 600.5> 517 59 667 20
VStem: 106 124 392 107
LayerCount: 2
Fore
SplineSet
658 461 m 1
 678 425 704 396 741 372 c 1
 741 360 l 1
 650 305 l 1
 638 312 625 318 605 331 c 2
 569 356 l 2
 564 359 558 362 553 362 c 0
 544 362 537 358 530 353 c 1
 523 338 512 326 499 315 c 0
 448 273 383 246 315 226 c 1
 292 240 l 1
 319 250 341 263 361 280 c 0
 379 294 393 312 393 333 c 0
 393 363 388 396 379 427 c 0
 370 455 364 478 356 506 c 0
 354 514 353 521 353 529 c 0
 353 542 355 555 359 567 c 1
 339 563 322 553 306 541 c 1
 253 496 231 434 231 371 c 0
 231 284 270 200 344 138 c 0
 403 89 481 54 564 54 c 0
 637 54 705 77 763 112 c 1
 763 85 l 1
 605 -18 l 1
 566 -25 527 -29 487 -29 c 0
 391 -29 292 -5 223 52 c 0
 142 119 106 211 106 305 c 0
 106 366 119 427 148 483 c 1
 209 526 277 564 345 599 c 1
 389 581 l 1
 470 628 560 661 654 687 c 1
 660 665 668 643 679 622 c 0
 687 607 694 597 707 586 c 0
 714 580 722 577 732 577 c 0
 746 577 766 581 780 584 c 1
 777 557 l 1
 734 544 644 517 643 517 c 0
 639 516 636 516 632 516 c 0
 628 516 623 516 620 518 c 0
 609 525 600 532 592 542 c 2
 532 618 l 1
 512 606 495 590 495 570 c 0
 495 542 503 504 514 474 c 0
 525 444 534 408 534 381 c 1
 658 461 l 1
EndSplineSet
EndChar

StartChar: u1D571
Encoding: 120177 120177 91
Width: 799
Flags: MW
HStem: -147 40<348.5 355> 169 61 596 88<235 341.5>
VStem: 157 114 297 106<347.5 432> 509 114
LayerCount: 2
Fore
SplineSet
479 299 m 1
 632 418 l 1
 663 393 682 361 703 324 c 1
 634 264 l 1
 626 276 613 292 605 299 c 0
 597 307 580 313 565 313 c 0
 544 313 516 296 497 280 c 1
 531 246 566 207 592 168 c 0
 608 144 624 119 624 91 c 0
 624 40 602 -10 558 -46 c 1
 491 -103 404 -147 306 -147 c 0
 268 -147 226 -140 197 -117 c 1
 166 -90 157 -51 157 -14 c 0
 157 13 161 35 167 61 c 0
 169 74 172 100 172 116 c 0
 172 131 169 145 155 156 c 0
 146 164 132 169 119 169 c 0
 102 169 73 156 53 146 c 1
 49 169 l 1
 82 187 116 204 151 216 c 0
 178 225 205 230 233 230 c 0
 252 230 265 225 278 215 c 1
 289 205 297 189 297 176 c 0
 297 154 295 131 289 107 c 0
 278 64 272 20 272 -16 c 0
 272 -42 278 -69 300 -88 c 1
 317 -100 338 -107 359 -107 c 0
 401 -107 441 -91 471 -66 c 0
 502 -40 509 -1 509 35 c 0
 509 74 453 136 412 182 c 0
 382 217 351 252 326 291 c 1
 311 312 297 335 297 360 c 0
 297 377 304 393 315 408 c 1
 327 427 344 445 364 461 c 0
 393 485 429 505 466 522 c 1
 395 554 299 596 246 596 c 0
 224 596 199 592 183 578 c 0
 146 548 129 507 119 465 c 1
 92 481 l 1
 106 539 132 596 183 638 c 0
 221 670 274 684 327 684 c 0
 356 684 385 677 411 669 c 1
 453 658 493 642 532 626 c 0
 576 608 639 581 665 581 c 0
 691 581 737 617 768 642 c 1
 781 626 l 1
 734 581 661 512 627 486 c 1
 586 488 540 499 502 510 c 1
 473 501 449 491 427 473 c 0
 411 460 403 441 403 423 c 0
 403 404 412 386 423 368 c 0
 438 343 457 321 479 299 c 1
EndSplineSet
EndChar

StartChar: u1D572
Encoding: 120178 120178 92
Width: 1009
Flags: MW
HStem: -29 80 382 76 526 86 668 20
VStem: 107 119 343 164 764 129<192.5 312>
LayerCount: 2
Fore
SplineSet
346 596 m 1
 382 584 l 1
 427 614 477 640 529 662 c 1
 551 650 l 1
 507 632 473 590 473 550 c 0
 473 521 490 453 504 406 c 1
 572 440 l 1
 688 526 l 1
 652 532 623 542 596 563 c 1
 583 575 572 596 566 612 c 1
 681 692 l 1
 688 671 696 649 714 634 c 0
 734 618 761 612 788 612 c 0
 800 612 831 620 854 631 c 1
 857 607 l 1
 783 558 717 511 649 458 c 1
 717 458 787 445 836 404 c 0
 872 374 893 333 893 291 c 0
 893 196 827 112 731 64 c 1
 578 -18 l 1
 542 -23 508 -27 480 -27 c 0
 387 -27 295 -2 231 54 c 0
 147 127 107 220 107 318 c 0
 107 354 113 391 122 426 c 0
 129 451 139 472 156 496 c 1
 220 535 283 568 346 596 c 1
331 214 m 1
 320 232 l 1
 336 238 349 244 364 256 c 1
 379 272 388 291 388 311 c 0
 388 324 377 381 367 413 c 0
 351 463 345 493 345 513 c 0
 345 532 347 552 358 568 c 1
 327 566 306 553 284 535 c 0
 241 499 227 440 227 391 c 0
 227 295 266 201 348 133 c 0
 408 82 488 49 575 49 c 0
 623 49 672 61 707 88 c 0
 748 119 764 169 764 216 c 0
 764 264 747 312 706 346 c 0
 673 374 624 389 577 389 c 0
 553 389 531 388 507 380 c 1
 509 369 511 357 511 345 c 0
 511 321 505 297 485 280 c 0
 468 266 446 255 425 246 c 0
 393 233 365 224 331 214 c 1
EndSplineSet
EndChar

StartChar: u1D573
Encoding: 120179 120179 93
Width: 931
Flags: MW
HStem: -127 58<517.5 591.5> 30 96 386 87 534 85<459 568.5> 664 20
VStem: 190 101<417 537.5> 326 103 672 129
LayerCount: 2
Fore
SplineSet
393 127 m 2
 224 -18 l 1
 207 -3 189 11 170 22 c 0
 156 29 142 36 126 36 c 0
 92 36 58 6 48 -3 c 1
 32 15 l 1
 80 62 150 132 195 132 c 0
 238 132 273 103 296 76 c 1
 314 96 326 116 326 140 c 0
 326 174 284 241 252 289 c 0
 220 337 190 389 190 445 c 0
 190 470 204 493 220 514 c 0
 244 547 274 576 305 604 c 0
 339 634 383 659 424 684 c 1
 445 666 469 649 494 636 c 0
 511 627 531 619 551 619 c 0
 586 619 641 653 665 670 c 1
 679 652 l 1
 643 620 588 572 537 541 c 1
 522 537 505 534 489 534 c 0
 429 534 376 561 329 590 c 1
 308 572 291 550 291 525 c 0
 291 502 297 480 306 459 c 0
 321 424 340 388 360 357 c 1
 418 400 488 445 551 479 c 1
 616 479 702 456 741 434 c 0
 751 429 772 405 776 394 c 0
 796 336 800 303 800 242 c 0
 800 155 785 69 748 -12 c 0
 747 -12 639 -79 585 -112 c 0
 571 -120 554 -127 537 -127 c 0
 498 -127 463 -110 438 -87 c 1
 498 -17 l 1
 514 -16 l 1
 521 -30 531 -44 544 -54 c 0
 554 -62 566 -69 581 -69 c 0
 602 -69 618 -61 634 -49 c 0
 672 -18 672 101 672 178 c 0
 672 212 668 316 626 350 c 0
 599 372 563 388 526 388 c 0
 502 388 479 386 458 379 c 0
 439 372 413 360 375 331 c 1
 399 291 422 237 422 205 c 0
 422 178 415 147 393 127 c 2
EndSplineSet
EndChar

StartChar: u1D574
Encoding: 120180 120180 94
Width: 731
Flags: MW
HStem: -25 54 572 111
VStem: 458 131<169 262>
LayerCount: 2
Fore
SplineSet
658 670 m 1
 667 655 l 1
 605 607 532 557 458 522 c 1
 346 558 l 1
 312 567 279 576 243 576 c 0
 210 576 175 564 151 545 c 1
 124 522 104 492 86 463 c 1
 79 463 l 1
 64 477 l 1
 83 514 103 550 127 585 c 0
 142 607 158 629 180 646 c 0
 210 670 251 683 292 683 c 0
 331 683 383 664 427 649 c 0
 463 636 521 616 540 616 c 0
 559 616 575 621 592 629 c 0
 615 640 637 655 658 670 c 1
78 -16 m 1
 71 2 l 1
 119 50 178 98 233 140 c 1
 257 98 271 73 308 43 c 0
 322 32 340 28 358 28 c 0
 383 28 401 36 419 49 c 1
 434 62 444 87 450 105 c 0
 458 130 458 156 458 182 c 0
 458 192 450 257 446 294 c 0
 443 320 441 346 441 371 c 0
 441 392 442 413 445 433 c 1
 497 488 557 537 626 578 c 1
 651 568 l 1
 627 551 611 537 594 515 c 0
 582 499 571 475 571 455 c 0
 571 431 571 401 574 383 c 0
 582 335 589 286 589 238 c 0
 589 178 564 116 512 73 c 0
 446 17 368 -25 272 -25 c 0
 223 -25 178 -4 141 22 c 1
 78 -16 l 1
EndSplineSet
EndChar

StartChar: u1D575
Encoding: 120181 120181 95
Width: 729
Flags: MW
HStem: -142 36 76 73 579 102<224 321>
VStem: 160 119 464 117
LayerCount: 2
Fore
SplineSet
659 609 m 1
 659 586 l 1
 590 553 508 522 432 501 c 1
 403 513 361 538 355 542 c 0
 319 561 280 579 236 579 c 0
 212 579 183 572 167 558 c 1
 144 540 130 518 116 496 c 1
 97 510 l 1
 124 556 153 601 197 637 c 0
 228 663 269 681 312 681 c 0
 330 681 345 674 359 667 c 0
 384 656 406 643 429 629 c 1
 450 615 473 601 496 590 c 0
 510 584 526 579 542 579 c 0
 575 579 621 595 659 609 c 1
33 59 m 1
 24 77 l 1
 54 97 87 116 123 130 c 0
 149 141 178 149 207 149 c 0
 228 149 249 144 265 131 c 0
 275 123 277 110 278 98 c 0
 279 92 279 31 279 -2 c 0
 279 -35 290 -67 318 -90 c 0
 330 -100 346 -107 362 -107 c 0
 389 -107 413 -100 432 -84 c 0
 458 -62 464 -25 464 6 c 0
 464 53 446 117 429 171 c 0
 414 217 403 264 403 311 c 0
 403 328 405 345 408 362 c 1
 459 424 520 479 590 526 c 1
 615 517 l 1
 569 477 532 429 531 372 c 0
 531 328 538 285 551 243 c 0
 566 191 582 138 582 84 c 0
 582 28 560 -27 512 -67 c 0
 459 -111 390 -142 315 -142 c 0
 277 -142 236 -139 208 -116 c 0
 178 -91 165 -57 160 -22 c 1
 154 7 147 51 135 61 c 0
 124 70 108 76 92 76 c 0
 72 76 52 68 33 59 c 1
EndSplineSet
EndChar

StartChar: u1D576
Encoding: 120182 120182 96
Width: 868
Flags: MW
HStem: -22 70 432 70<477 595> 620 62
VStem: 187 112<380 503.5> 588 117
LayerCount: 2
Fore
SplineSet
784 348 m 1
 584 283 l 1
 664 268 681 237 694 157 c 0
 701 116 722 90 740 78 c 0
 753 70 769 67 786 67 c 0
 811 67 834 78 854 91 c 1
 861 69 l 1
 830 43 796 18 758 -2 c 0
 735 -14 709 -26 682 -26 c 0
 664 -26 645 -25 633 -15 c 0
 599 14 587 54 581 93 c 0
 579 104 569 165 543 201 c 0
 535 212 513 230 469 230 c 0
 433 230 397 219 369 206 c 1
 370 193 372 181 372 169 c 0
 372 155 370 141 365 124 c 1
 321 78 270 31 212 -3 c 0
 198 -11 184 -17 172 -22 c 1
 133 -22 98 -8 77 8 c 0
 74 10 61 23 52 32 c 1
 140 117 l 1
 154 117 l 1
 163 97 172 78 190 63 c 0
 199 55 212 46 226 46 c 0
 236 46 249 48 255 54 c 0
 271 68 274 87 274 107 c 0
 274 141 249 198 232 240 c 1
 208 295 187 351 187 409 c 0
 187 439 200 468 218 494 c 0
 241 529 272 559 305 587 c 0
 376 646 471 682 571 682 c 0
 690 682 729 647 757 618 c 1
 759 608 760 599 760 588 c 0
 760 566 755 538 738 490 c 1
 717 484 l 1
 710 523 692 542 667 563 c 0
 621 602 553 625 488 625 c 0
 433 625 378 610 338 577 c 0
 310 553 299 520 299 487 c 0
 299 444 309 403 323 362 c 1
 365 401 409 437 462 466 c 1
 499 485 540 502 584 502 c 0
 606 502 629 498 645 485 c 1
 661 470 674 441 683 417 c 0
 689 399 695 382 705 373 c 0
 711 367 722 363 732 363 c 0
 744 363 756 363 779 369 c 1
 784 348 l 1
361 230 m 1
 394 244 466 276 543 289 c 1
 599 312 l 1
 586 321 570 348 563 367 c 1
 559 384 551 402 536 414 c 0
 525 423 511 432 496 432 c 0
 458 432 423 417 397 395 c 0
 373 375 353 343 338 314 c 1
 346 288 355 256 361 230 c 1
EndSplineSet
EndChar

StartChar: u1D577
Encoding: 120183 120183 97
Width: 865
Flags: MW
HStem: -28 110<593 635> 628 56<440 597>
VStem: 214 117<431.5 537.5> 581 128
LayerCount: 2
Fore
SplineSet
406 257 m 0
 382 228 337 185 288 153 c 1
 289 153 396 121 444 106 c 0
 501 89 562 82 624 82 c 0
 666 82 709 93 740 119 c 0
 769 143 783 177 792 211 c 1
 811 200 l 1
 801 160 789 119 772 81 c 1
 760 57 749 33 728 15 c 0
 697 -10 657 -28 613 -28 c 0
 519 -28 428 -5 341 25 c 0
 291 42 220 66 187 66 c 0
 168 66 148 60 134 49 c 1
 122 38 96 5 79 -18 c 1
 63 -5 l 1
 91 54 129 110 182 156 c 1
 193 162 207 165 224 165 c 0
 231 165 238 165 246 163 c 1
 261 167 283 175 294 184 c 0
 309 196 315 214 315 231 c 0
 315 253 277 309 252 346 c 0
 231 378 214 413 214 450 c 0
 214 475 225 500 240 522 c 0
 259 552 286 579 316 603 c 0
 384 660 481 684 577 684 c 0
 617 684 660 679 690 655 c 1
 703 643 707 628 710 612 c 0
 714 589 713 565 710 542 c 0
 708 529 707 521 707 508 c 0
 707 491 716 477 732 466 c 0
 738 461 778 461 796 461 c 1
 796 443 l 1
 621 394 l 1
 610 394 599 395 591 401 c 1
 578 413 570 428 570 444 c 0
 570 458 574 470 576 484 c 0
 578 501 581 532 581 536 c 0
 581 559 573 582 553 598 c 0
 528 619 492 628 456 628 c 0
 424 628 390 620 367 601 c 0
 342 580 331 552 331 523 c 0
 331 483 349 445 369 408 c 0
 383 382 395 355 403 326 c 0
 408 311 411 295 411 279 c 0
 411 274 410 262 406 257 c 0
EndSplineSet
EndChar

StartChar: u1D578
Encoding: 120184 120184 98
Width: 1327
Flags: MW
HStem: -26 20 28 92 620 62
VStem: 59 100 169 108<331 404.5> 440 118 757 116 1015 117
LayerCount: 2
Fore
SplineSet
1279 76 m 1
 1097 -33 l 1
 1015 78 l 1
 1015 183 1016 315 1022 367 c 1
 1055 415 1086 444 1124 470 c 1
 1113 473 1106 475 1098 487 c 0
 1089 501 1075 527 1066 549 c 0
 1059 567 1050 585 1037 597 c 1
 1026 605 1013 612 999 612 c 0
 974 612 949 607 929 596 c 0
 903 582 888 570 867 551 c 1
 872 523 876 479 876 450 c 0
 876 343 861 234 805 137 c 1
 632 -28 l 1
 618 -16 603 -4 586 5 c 0
 575 11 562 17 548 17 c 0
 530 17 511 12 498 1 c 2
 482 -13 l 1
 464 2 l 1
 490 30 532 73 544 84 c 0
 563 101 589 117 618 117 c 0
 644 117 676 93 697 76 c 1
 725 110 734 148 743 188 c 0
 756 247 757 312 757 371 c 0
 757 411 754 451 742 490 c 0
 733 517 720 544 697 564 c 0
 683 576 664 587 644 587 c 0
 629 587 615 583 602 577 c 1
 586 568 570 556 551 542 c 1
 559 511 565 480 565 448 c 0
 565 341 531 227 477 130 c 1
 253 -25 l 1
 240 -10 225 4 207 14 c 0
 193 22 178 28 162 28 c 0
 141 28 122 23 106 11 c 0
 96 3 82 -9 76 -15 c 1
 61 0 l 1
 90 32 128 72 153 92 c 0
 177 112 208 123 241 123 c 0
 257 123 272 116 284 108 c 0
 302 97 320 80 333 64 c 1
 347 74 359 83 369 92 c 0
 397 117 408 152 420 187 c 1
 435 238 440 291 440 344 c 0
 440 390 436 438 422 483 c 1
 410 515 394 549 366 573 c 0
 334 600 294 619 247 619 c 0
 226 619 195 618 179 604 c 0
 166 593 155 581 155 565 c 0
 155 548 192 506 218 480 c 0
 261 437 277 413 277 396 c 0
 277 367 255 341 231 320 c 1
 195 291 155 269 113 248 c 1
 94 265 l 1
 116 275 133 285 148 300 c 0
 158 311 169 324 169 338 c 0
 169 358 141 392 118 414 c 0
 91 440 59 477 59 503 c 0
 59 521 71 538 82 554 c 0
 100 578 124 599 148 619 c 0
 202 664 288 686 340 686 c 0
 389 686 446 671 482 642 c 0
 506 622 529 595 541 568 c 1
 572 591 604 612 641 627 c 0
 667 638 697 647 728 647 c 0
 763 647 797 635 822 615 c 0
 836 603 846 590 856 577 c 1
 893 607 934 635 980 655 c 0
 1016 671 1055 683 1097 683 c 0
 1112 683 1128 681 1141 671 c 1
 1151 662 1166 634 1175 616 c 0
 1184 600 1193 584 1207 572 c 0
 1216 563 1228 558 1242 558 c 0
 1258 558 1273 561 1289 566 c 1
 1289 548 l 1
 1240 523 1214 507 1170 476 c 0
 1165 472 1145 448 1142 437 c 0
 1133 401 1133 376 1133 340 c 0
 1133 285 1135 230 1147 176 c 0
 1151 157 1157 139 1165 121 c 0
 1171 108 1175 103 1187 94 c 0
 1194 88 1207 85 1217 85 c 0
 1226 85 1259 87 1279 94 c 1
 1279 76 l 1
EndSplineSet
EndChar

StartChar: u1D579
Encoding: 120185 120185 99
Width: 1065
Flags: MW
HStem: -30 87 614 65
VStem: 59 95 470 115<207 361.5> 759 114
LayerCount: 2
Fore
SplineSet
909 476 m 0
 904 472 884 448 881 437 c 0
 872 401 871 376 871 340 c 0
 871 285 874 230 886 176 c 0
 890 157 896 139 904 121 c 0
 910 108 914 103 926 94 c 0
 933 88 946 85 956 85 c 0
 965 85 998 87 1018 94 c 1
 1018 76 l 1
 836 -33 l 1
 754 78 l 1
 754 183 755 315 761 367 c 1
 794 415 825 446 863 472 c 1
 849 472 837 479 828 487 c 0
 814 499 804 514 798 529 c 0
 788 554 773 586 756 600 c 0
 745 608 732 614 717 614 c 0
 692 614 663 598 644 584 c 0
 608 556 586 534 560 501 c 1
 576 453 585 388 585 335 c 0
 585 263 572 191 540 125 c 1
 331 -18 l 1
 322 -22 307 -28 301 -28 c 0
 249 -28 206 -1 171 29 c 1
 260 123 l 1
 280 123 l 1
 285 109 300 90 319 74 c 0
 333 63 351 57 372 57 c 0
 397 57 419 71 437 85 c 1
 452 98 456 116 460 134 c 0
 468 163 470 192 470 222 c 0
 470 292 461 362 438 430 c 0
 421 481 394 530 349 568 c 0
 318 594 278 615 232 615 c 0
 210 615 187 612 171 599 c 0
 158 588 151 575 151 560 c 0
 151 545 161 530 169 517 c 0
 183 497 200 479 219 461 c 0
 233 448 246 434 256 418 c 1
 264 408 267 397 267 385 c 0
 267 359 249 339 229 320 c 0
 196 289 157 265 116 242 c 1
 93 258 l 1
 112 269 129 282 142 297 c 0
 151 308 160 320 160 334 c 0
 160 354 140 373 123 389 c 0
 104 407 88 425 76 445 c 0
 67 460 59 475 59 492 c 0
 59 512 68 531 79 549 c 0
 95 573 115 595 139 613 c 0
 192 652 264 681 338 681 c 0
 388 681 438 666 474 636 c 0
 507 608 532 573 545 535 c 1
 568 557 590 578 614 598 c 0
 665 641 729 678 803 678 c 0
 829 678 857 675 876 659 c 0
 886 650 900 623 912 595 c 0
 918 582 927 571 938 561 c 1
 944 554 951 548 961 548 c 0
 980 548 998 551 1014 557 c 1
 1019 542 l 1
 989 529 952 505 909 476 c 0
EndSplineSet
EndChar

StartChar: u1D57A
Encoding: 120186 120186 100
Width: 1059
Flags: MW
HStem: -29 79 577 101 706 20<433 458 458 458>
VStem: 121 120 253 113 799 132<335 347>
LayerCount: 2
Fore
SplineSet
334 608 m 0
 334 632 338 643 370 668 c 0
 388 681 423 713 433 726 c 1
 458 726 l 1
 452 717 447 707 447 696 c 0
 447 687 457 681 468 679 c 0
 480 676 538 674 573 672 c 0
 630 669 687 662 741 648 c 1
 782 636 821 621 852 595 c 0
 882 571 898 540 910 508 c 0
 926 466 931 422 931 378 c 0
 931 292 901 208 848 134 c 1
 790 83 729 46 659 13 c 0
 610 -10 557 -29 501 -29 c 0
 436 -29 373 -11 310 8 c 0
 269 21 219 36 183 36 c 0
 135 36 95 11 65 -18 c 1
 43 4 l 1
 134 114 l 1
 170 122 205 131 231 152 c 0
 246 164 253 181 253 199 c 0
 253 218 245 236 236 254 c 0
 222 280 204 304 183 330 c 0
 156 362 132 404 131 434 c 1
 131 478 209 551 284 591 c 1
 298 577 l 1
 272 559 241 535 241 500 c 0
 241 484 266 433 289 402 c 0
 313 370 330 343 349 309 c 0
 354 300 359 286 359 276 c 0
 359 254 352 235 338 216 c 0
 315 186 281 154 248 133 c 1
 271 133 290 131 320 124 c 0
 379 110 439 93 496 74 c 0
 546 57 580 47 646 47 c 0
 673 47 698 62 717 76 c 0
 751 101 766 142 779 177 c 1
 794 226 799 277 799 327 c 0
 799 367 794 408 781 446 c 1
 769 476 754 505 728 527 c 0
 703 547 671 556 638 563 c 0
 591 573 562 576 513 576 c 0
 488 576 465 575 444 573 c 0
 428 572 414 572 399 572 c 0
 352 572 334 598 334 608 c 0
EndSplineSet
EndChar

StartChar: u1D57B
Encoding: 120187 120187 101
Width: 1060
Flags: W
HStem: -20 21G<668.5 706.5> 612 69 619 66<220.5 356.5>
VStem: 408 128<173 369 369 390.5> 725 112<303 406>
LayerCount: 2
Fore
SplineSet
550 -141 m 1xd8
 409 -223 l 1
 382 -209 l 1
 394 -174 398 -139 402 -104 c 0
 407 -52 409 2 409 54 c 1
 382 65 348 76 322 76 c 0
 284 76 253 58 228 36 c 1
 209 21 191 6 176 -12 c 1
 161 7 l 1
 193 54 232 111 270 142 c 0
 295 163 328 179 365 179 c 0
 377 179 392 178 408 173 c 1
 408 369 l 2
 408 412 402 456 387 497 c 0
 375 530 357 561 329 585 c 1
 304 605 275 619 240 619 c 0
 201 619 181 607 168 597 c 0
 152 584 145 567 145 548 c 0
 145 536 155 522 164 512 c 0
 177 496 190 480 206 466 c 0
 233 442 259 407 259 386 c 0
 259 375 258 365 252 356 c 0
 244 342 236 328 224 317 c 0
 187 285 147 260 102 235 c 1
 86 254 l 1
 105 266 116 275 130 292 c 0
 140 304 148 318 148 333 c 0
 148 349 121 379 101 400 c 0
 87 415 70 429 59 446 c 1
 51 455 51 469 51 481 c 0
 51 504 63 525 76 545 c 0
 94 572 119 596 144 618 c 1
 190 656 250 685 329 685 c 0xb8
 384 685 428 668 466 637 c 0
 490 617 514 584 527 557 c 1
 570 593 616 628 670 651 c 0
 709 668 752 681 796 681 c 0
 817 681 840 679 855 666 c 0
 870 654 876 624 880 601 c 1
 882 581 891 562 905 545 c 0
 915 534 929 523 946 523 c 0
 959 523 977 527 988 530 c 1
 995 511 l 1
 949 491 904 470 866 442 c 0
 851 430 837 415 837 397 c 0
 837 365 855 336 876 309 c 0
 899 278 931 235 931 205 c 0
 931 181 926 157 911 136 c 0
 887 101 862 73 827 42 c 0
 807 24 784 6 758 -5 c 0
 739 -14 717 -20 696 -20 c 0
 641 -20 585 -2 536 19 c 1
 536 -35 541 -87 550 -141 c 1xd8
536 518 m 1
 536 142 l 1
 714 79 l 2
 741 70 765 62 793 62 c 0
 805 62 817 66 826 73 c 0
 838 83 842 95 842 109 c 0
 842 124 834 143 826 156 c 0
 813 177 799 196 783 215 c 0
 756 247 725 291 725 315 c 0
 725 334 734 352 748 367 c 0
 774 395 803 420 834 443 c 1
 814 446 794 452 785 460 c 0
 777 466 761 482 761 522 c 0
 761 537 759 552 755 566 c 0
 752 576 748 586 740 593 c 0
 726 605 707 612 688 612 c 0xd8
 650 612 617 595 591 573 c 0
 581 564 555 540 536 518 c 1
EndSplineSet
EndChar

StartChar: u1D57C
Encoding: 120188 120188 102
Width: 1059
Flags: MW
HStem: -82 21 36 94 577 99 706 20<433 458 458 458>
VStem: 253 113 799 132<335 347>
LayerCount: 2
Fore
SplineSet
762 66 m 1
 782 48 802 33 827 19 c 0
 843 11 860 2 880 2 c 0
 909 2 939 9 967 18 c 1
 967 -3 l 1
 913 -31 858 -58 801 -82 c 1
 740 -60 682 -34 629 1 c 1
 592 -16 543 -29 501 -29 c 0
 436 -29 373 -11 310 8 c 0
 269 21 219 36 183 36 c 0
 135 36 95 11 65 -18 c 1
 43 4 l 1
 134 114 l 1
 170 122 205 131 231 152 c 0
 246 164 253 181 253 199 c 0
 253 218 245 236 236 254 c 0
 222 280 204 304 183 330 c 0
 156 362 132 404 131 434 c 1
 131 478 209 551 284 591 c 1
 298 577 l 1
 272 559 241 535 241 500 c 0
 241 484 266 433 289 402 c 0
 313 370 330 343 349 309 c 0
 354 300 359 286 359 276 c 0
 359 254 352 235 338 216 c 0
 315 186 281 154 248 133 c 1
 271 133 290 131 320 124 c 0
 379 110 439 93 496 74 c 0
 546 57 580 47 646 47 c 0
 673 47 698 62 717 76 c 0
 751 101 766 142 779 177 c 1
 794 226 799 277 799 327 c 0
 799 367 794 408 781 446 c 1
 769 476 754 505 728 527 c 0
 703 547 671 556 638 563 c 0
 591 573 562 576 513 576 c 0
 488 576 465 575 444 573 c 0
 428 572 414 572 399 572 c 0
 352 572 334 598 334 608 c 0
 334 632 338 643 370 668 c 0
 388 681 423 713 433 726 c 1
 458 726 l 1
 452 717 447 707 447 696 c 0
 447 687 457 681 468 679 c 0
 480 676 538 674 573 672 c 0
 630 669 687 662 741 648 c 1
 782 636 821 621 852 595 c 0
 882 571 898 540 910 508 c 0
 926 466 931 422 931 378 c 0
 931 292 901 208 848 134 c 1
 826 110 791 86 762 66 c 1
EndSplineSet
EndChar

StartChar: u1D57D
Encoding: 120189 120189 103
Width: 1060
Flags: MW
HStem: -29 21<855 855> 28 96<164 249> 619 71
VStem: 165 116 437 128 764 118
LayerCount: 2
Fore
SplineSet
241 619 m 0
 212 619 181 607 168 597 c 0
 152 584 145 567 145 548 c 0
 145 536 155 522 164 512 c 0
 177 496 190 480 206 466 c 0
 233 442 259 407 259 386 c 0
 259 375 258 365 252 356 c 0
 244 342 236 328 224 317 c 0
 187 285 147 260 102 235 c 1
 86 254 l 1
 105 266 116 275 130 292 c 0
 140 304 148 318 148 333 c 0
 148 349 121 379 101 400 c 0
 87 415 70 429 59 446 c 1
 51 455 51 469 51 481 c 0
 51 504 63 525 76 545 c 0
 94 572 119 596 144 618 c 1
 190 656 255 689 335 689 c 0
 399 689 446 670 488 635 c 0
 514 613 539 583 550 554 c 1
 586 589 629 626 675 652 c 0
 708 670 746 685 786 685 c 0
 812 685 837 678 855 662 c 1
 877 645 881 614 884 588 c 0
 887 565 890 535 905 522 c 0
 917 512 935 510 951 510 c 0
 962 510 977 511 989 515 c 1
 995 502 l 1
 900 466 846 440 781 401 c 1
 815 397 855 379 876 356 c 1
 876 298 877 229 884 193 c 0
 888 171 896 148 909 130 c 0
 921 114 934 100 949 87 c 0
 956 81 971 81 984 81 c 0
 998 81 1013 88 1028 95 c 1
 1029 72 l 1
 855 -29 l 1
 832 17 797 63 764 108 c 1
 764 154 764 226 761 247 c 0
 759 265 752 292 737 306 c 1
 716 322 697 335 670 340 c 0
 654 343 638 344 623 344 c 0
 602 344 581 337 562 329 c 1
 551 261 531 211 494 150 c 1
 259 -28 l 1
 207 13 l 2
 197 21 184 28 171 28 c 0
 157 28 146 25 135 19 c 0
 118 10 105 -3 93 -18 c 1
 77 -2 l 1
 122 51 192 124 238 124 c 0
 260 124 273 117 283 110 c 0
 302 97 320 82 336 67 c 1
 349 76 362 86 375 96 c 0
 404 120 413 155 421 189 c 0
 434 244 437 300 437 357 c 0
 437 400 431 443 416 485 c 1
 402 518 381 550 350 576 c 0
 322 600 287 619 241 619 c 0
826 458 m 1
 811 458 795 464 784 474 c 0
 769 487 764 515 760 538 c 0
 757 561 751 593 739 603 c 0
 730 611 718 618 705 618 c 0
 676 618 650 604 630 587 c 0
 601 562 585 544 564 514 c 1
 567 497 568 467 568 450 c 0
 568 419 566 391 564 358 c 1
 608 376 671 401 724 405 c 1
 826 458 l 1
EndSplineSet
EndChar

StartChar: u1D57E
Encoding: 120190 120190 104
Width: 1061
Flags: MW
HStem: -31 72<440 649.5> 322 84<662.5 810> 490 94<697 839.5> 610 75
VStem: 116 121<341.5 362> 307 112 870 86<181.5 281>
LayerCount: 2
Fore
SplineSet
638 513 m 2
 504 580 l 2
 476 594 445 610 413 610 c 0
 378 610 344 596 320 576 c 0
 260 527 237 458 237 389 c 0
 237 294 269 197 351 129 c 0
 420 72 512 41 609 41 c 0
 690 41 772 59 829 107 c 0
 857 131 870 165 870 198 c 0
 870 230 854 261 827 283 c 0
 790 314 736 322 685 322 c 0
 640 322 597 314 554 305 c 0
 511 297 441 283 427 283 c 0
 393 283 359 290 336 310 c 0
 316 327 307 350 307 374 c 0
 307 411 331 444 362 470 c 0
 391 494 430 507 468 515 c 1
 481 501 l 1
 470 497 459 489 450 482 c 0
 433 468 420 449 420 429 c 0
 420 413 425 398 438 387 c 0
 456 372 485 372 509 372 c 0
 558 372 605 377 652 385 c 0
 698 392 742 406 788 406 c 0
 832 406 877 396 908 370 c 0
 942 341 956 301 956 261 c 0
 956 192 911 132 853 84 c 0
 757 4 624 -31 490 -31 c 0
 390 -31 294 1 224 60 c 1
 146 124 116 211 116 312 c 0
 116 412 162 496 244 565 c 1
 324 630 411 656 537 685 c 1
 582 669 624 648 667 630 c 0
 718 609 780 584 827 584 c 0
 852 584 874 591 892 606 c 0
 909 620 917 634 926 653 c 1
 951 639 l 1
 939 608 916 580 889 557 c 0
 855 529 812 510 766 499 c 0
 748 495 730 490 710 490 c 0
 684 490 660 502 638 513 c 2
EndSplineSet
EndChar

StartChar: u1D57F
Encoding: 120191 120191 105
Width: 868
Flags: MW
HStem: -30 21<565 592> 42 91 585 96
VStem: 63 70 322 120 477 115<171 261.5>
LayerCount: 2
Fore
SplineSet
846 659 m 1
 723 541 l 1
 693 532 661 528 629 528 c 0
 586 528 529 536 487 543 c 1
 454 515 438 494 438 458 c 0
 438 442 447 422 457 409 c 0
 472 390 490 370 508 353 c 0
 543 321 592 276 592 247 c 0
 592 212 521 156 473 120 c 1
 522 101 593 74 632 74 c 0
 651 74 671 80 688 88 c 1
 716 99 741 115 765 131 c 1
 777 107 l 1
 720 57 657 12 592 -30 c 1
 538 -30 487 -12 439 8 c 0
 399 24 352 42 314 42 c 0
 295 42 276 42 262 37 c 0
 225 24 201 7 172 -15 c 1
 160 3 l 1
 218 54 281 100 354 135 c 1
 385 135 418 134 447 127 c 1
 466 142 477 160 477 182 c 0
 477 206 434 248 403 276 c 0
 384 294 366 313 349 333 c 0
 338 347 329 362 324 378 c 1
 356 441 401 500 460 549 c 1
 384 563 266 586 232 586 c 0
 204 586 169 583 149 567 c 0
 136 556 131 540 131 526 c 0
 131 487 167 458 204 437 c 1
 206 427 l 1
 122 359 l 1
 89 384 63 417 63 455 c 0
 63 506 94 553 137 590 c 1
 201 643 284 680 376 680 c 0
 413 680 502 666 564 655 c 1
 614 648 665 641 717 641 c 0
 764 641 813 664 846 691 c 1
 846 659 l 1
EndSplineSet
EndChar

StartChar: u1D580
Encoding: 120192 120192 106
Width: 931
Flags: MW
HStem: -34 97<435 544.5> 669 20<372 372>
VStem: 191 125 638 122<349.5 388>
LayerCount: 2
Fore
SplineSet
402 249 m 1
 364 207 305 146 275 128 c 1
 302 124 370 102 413 87 c 0
 450 74 494 63 529 63 c 0
 560 63 585 81 607 99 c 0
 622 112 630 129 631 146 c 0
 635 213 638 280 638 347 c 0
 638 429 633 511 625 593 c 1
 693 617 755 650 815 685 c 1
 833 670 l 1
 807 646 l 1
 782 620 773 586 768 553 c 1
 761 495 760 438 760 380 c 0
 760 319 761 259 765 198 c 0
 767 180 767 176 781 146 c 0
 790 125 803 102 817 87 c 0
 825 78 837 74 851 74 c 0
 865 74 895 84 916 92 c 1
 920 72 l 1
 716 -39 l 1
 644 84 l 1
 514 -21 l 1
 496 -32 473 -34 458 -34 c 0
 412 -34 368 -20 327 -4 c 0
 274 17 208 38 158 38 c 0
 140 38 114 30 67 -12 c 1
 48 8 l 1
 156 117 l 1
 190 122 228 132 245 142 c 0
 264 153 298 180 307 207 c 0
 311 218 311 233 311 244 c 0
 311 264 305 284 296 304 c 0
 285 331 269 357 251 382 c 1
 225 421 191 472 191 504 c 0
 191 511 191 520 193 526 c 1
 208 551 257 606 299 640 c 0
 321 658 345 674 372 689 c 1
 395 673 l 1
 379 663 364 651 348 639 c 0
 331 625 318 607 318 586 c 0
 318 549 334 513 353 479 c 1
 377 439 395 396 404 352 c 0
 408 335 411 318 411 301 c 0
 411 283 408 266 402 249 c 1
EndSplineSet
EndChar

StartChar: u1D581
Encoding: 120193 120193 107
Width: 1064
Flags: MW
HStem: -29 85 86 86 598 87<663.5 781.5>
VStem: 168 116 418 130 772 152
LayerCount: 2
Fore
SplineSet
341 687 m 0
 394 687 436 674 470 646 c 0
 502 619 528 577 537 539 c 1
 580 579 626 620 677 650 c 0
 706 667 738 685 773 685 c 0
 790 685 807 680 824 675 c 1
 846 667 867 656 888 644 c 0
 908 632 938 615 953 615 c 0
 974 615 995 618 1016 629 c 1
 1017 604 l 1
 999 594 983 582 967 569 c 0
 930 538 894 500 894 454 c 0
 894 427 894 396 899 373 c 2
 916 278 l 2
 920 256 923 233 923 210 c 0
 923 164 907 122 866 90 c 1
 819 51 758 8 738 -3 c 0
 710 -18 680 -29 646 -29 c 0
 620 -29 594 -21 569 -13 c 0
 528 0 489 16 450 33 c 0
 417 48 383 62 347 73 c 0
 325 80 302 86 279 86 c 0
 255 86 233 79 213 70 c 0
 184 58 157 42 134 24 c 1
 121 42 l 1
 172 84 232 124 290 163 c 1
 321 170 346 185 369 203 c 1
 389 220 398 244 404 268 c 0
 414 304 418 342 418 379 c 0
 418 421 412 463 398 503 c 0
 387 534 371 564 343 587 c 0
 318 608 288 624 248 624 c 0
 218 624 187 607 174 597 c 0
 158 584 151 567 151 548 c 0
 151 536 162 522 170 512 c 0
 183 496 197 480 213 466 c 0
 239 442 266 407 266 386 c 0
 266 375 265 365 258 356 c 1
 250 342 242 328 230 317 c 0
 193 285 153 260 108 235 c 1
 92 254 l 1
 112 266 122 275 136 292 c 0
 146 304 154 318 154 333 c 0
 154 349 127 379 107 400 c 0
 93 415 76 429 65 446 c 0
 58 455 58 469 58 481 c 0
 58 504 69 525 82 545 c 0
 100 572 125 596 150 618 c 1
 196 656 262 687 341 687 c 0
503 262 m 1
 384 174 l 1
 426 173 530 128 601 99 c 0
 649 79 708 55 752 55 c 0
 765 55 782 59 791 67 c 0
 801 75 804 89 804 101 c 0
 804 118 802 139 799 157 c 2
 776 286 l 2
 772 307 772 327 772 348 c 0
 772 377 772 419 784 434 c 0
 811 465 847 497 881 527 c 1
 840 527 803 543 769 562 c 1
 741 579 706 598 675 598 c 0
 652 598 634 584 618 571 c 0
 590 549 568 522 547 495 c 1
 548 481 549 466 549 452 c 0
 549 387 537 322 503 262 c 1
EndSplineSet
EndChar

StartChar: u1D582
Encoding: 120194 120194 108
Width: 1323
Flags: MW
HStem: -31 73 617 66
VStem: 168 105 434 131 745 109 1074 122
LayerCount: 2
Fore
SplineSet
255 617 m 0
 225 617 193 607 180 597 c 0
 165 584 157 567 157 548 c 0
 157 536 168 522 176 512 c 0
 189 496 203 480 219 466 c 0
 245 442 272 407 272 386 c 0
 272 375 271 365 265 356 c 0
 256 342 248 328 236 317 c 0
 199 285 160 260 115 235 c 1
 98 254 l 1
 118 266 128 275 142 292 c 0
 152 304 161 318 161 333 c 0
 161 349 133 379 114 400 c 1
 99 415 82 429 71 446 c 0
 64 455 64 469 64 481 c 0
 64 504 75 525 88 545 c 0
 106 572 131 596 156 618 c 1
 202 656 267 682 345 682 c 0
 409 682 458 663 499 629 c 0
 524 609 541 583 552 556 c 1
 617 601 665 632 734 670 c 1
 770 651 795 622 837 560 c 1
 875 592 916 625 961 651 c 1
 990 666 1018 682 1053 682 c 0
 1091 682 1124 666 1156 649 c 0
 1187 633 1219 616 1256 616 c 0
 1267 616 1286 623 1296 628 c 1
 1296 603 l 1
 1259 577 1211 542 1181 505 c 0
 1163 483 1157 458 1157 431 c 0
 1157 408 1167 369 1175 338 c 0
 1187 296 1197 257 1197 214 c 0
 1197 192 1195 171 1190 149 c 0
 1186 134 1181 120 1169 108 c 1
 985 -15 l 1
 960 -23 936 -28 910 -28 c 0
 875 -28 834 -14 798 -3 c 0
 739 16 680 32 617 39 c 1
 575 20 529 -3 489 -25 c 1
 479 -29 467 -30 453 -30 c 0
 400 -30 351 -10 305 13 c 0
 273 29 237 45 204 45 c 0
 183 45 164 39 146 30 c 0
 122 19 100 3 80 -14 c 1
 67 8 l 1
 119 56 178 98 237 140 c 1
 292 140 329 154 361 181 c 0
 389 204 404 234 416 265 c 1
 430 307 434 351 434 394 c 0
 434 461 419 530 360 578 c 1
 333 602 299 617 255 617 c 0
476 206 m 1
 338 131 l 1
 354 126 406 105 439 89 c 0
 476 71 516 55 560 55 c 0
 568 55 575 57 582 60 c 0
 613 74 650 90 670 110 c 0
 698 137 719 167 730 201 c 0
 745 251 745 297 745 349 c 0
 745 391 742 434 731 475 c 0
 723 503 712 530 688 551 c 0
 673 563 655 573 637 582 c 1
 606 564 583 546 561 529 c 1
 564 515 566 481 566 467 c 0
 566 374 543 282 476 206 c 1
811 212 m 1
 783 175 761 150 733 130 c 1
 782 130 875 98 938 76 c 0
 966 66 996 56 1028 56 c 0
 1041 56 1053 62 1063 68 c 1
 1074 76 1080 89 1080 120 c 0
 1080 154 1067 216 1054 260 c 0
 1042 301 1034 341 1034 380 c 0
 1034 399 1036 422 1089 466 c 1
 1158 527 l 2
 1156 526 1144 526 1134 526 c 0
 1110 526 1068 546 1051 559 c 0
 1029 575 979 587 960 587 c 0
 940 587 917 584 900 575 c 1
 879 562 864 550 849 532 c 1
 857 496 862 451 862 414 c 0
 862 344 842 277 811 212 c 1
EndSplineSet
EndChar

StartChar: u1D583
Encoding: 120195 120195 109
Width: 929
Flags: MW
HStem: -32 81<171 265.5> 315 51<393 416 531 539> 581 100
VStem: 416 111
LayerCount: 2
Fore
SplineSet
884 578 m 1
 750 514 l 1
 701 531 665 564 639 601 c 1
 562 543 531 508 531 366 c 1
 597 366 680 366 729 370 c 1
 663 312 l 1
 620 315 552 315 526 315 c 1
 526 236 546 155 614 98 c 0
 645 72 689 60 733 60 c 0
 765 60 809 76 845 90 c 1
 845 66 l 1
 798 39 754 7 710 -25 c 1
 687 -32 648 -35 645 -35 c 0
 603 -35 563 -21 534 3 c 0
 515 18 502 37 490 55 c 1
 474 82 461 111 449 139 c 1
 390 85 327 33 252 -7 c 0
 232 -18 203 -32 187 -32 c 0
 155 -32 103 -2 65 21 c 1
 147 102 l 1
 165 87 184 73 206 63 c 0
 222 55 239 49 258 49 c 0
 273 49 287 53 299 59 c 0
 318 68 334 80 349 92 c 0
 376 115 389 148 398 178 c 0
 411 223 416 269 416 315 c 1
 344 315 255 315 202 312 c 1
 269 368 l 1
 310 366 368 366 418 366 c 1
 418 404 416 443 405 481 c 0
 398 505 388 527 367 545 c 0
 345 563 319 578 288 578 c 0
 250 578 219 567 193 545 c 2
 151 508 l 1
 133 528 l 1
 187 582 247 632 309 680 c 1
 361 675 413 663 451 632 c 0
 486 603 512 566 518 525 c 1
 543 555 573 582 603 608 c 0
 643 641 692 665 745 682 c 1
 759 652 775 622 802 600 c 0
 812 591 828 590 842 590 c 0
 856 590 872 594 884 597 c 1
 884 578 l 1
EndSplineSet
EndChar

StartChar: u1D584
Encoding: 120196 120196 110
Width: 1066
Flags: MW
HStem: -214 48<489.5 495.5> -27 106 622 61<237.5 376.5>
VStem: 172 117 423 133 796 133<277.5 317.5>
LayerCount: 2
Fore
SplineSet
253 622 m 0
 222 622 194 607 181 597 c 0
 166 584 158 567 158 548 c 0
 158 536 169 522 177 512 c 0
 190 496 204 480 220 466 c 0
 246 442 273 407 273 386 c 0
 273 375 272 365 266 356 c 0
 257 342 249 328 237 317 c 0
 200 285 161 260 116 235 c 1
 99 254 l 1
 119 266 129 275 143 292 c 0
 153 304 162 318 162 333 c 0
 162 349 134 379 115 400 c 1
 100 415 83 429 72 446 c 0
 65 455 65 469 65 481 c 0
 65 504 76 525 89 545 c 0
 107 572 132 596 157 618 c 1
 203 656 270 683 350 683 c 0
 403 683 444 666 478 638 c 0
 505 615 523 576 536 542 c 1
 578 574 622 604 667 633 c 1
 700 653 734 673 770 689 c 1
 806 649 853 618 904 594 c 1
 916 509 929 422 929 339 c 0
 929 216 901 93 845 -21 c 1
 793 -77 732 -126 658 -163 c 0
 598 -193 531 -214 460 -214 c 0
 398 -214 337 -197 293 -161 c 1
 344 -64 l 1
 359 -66 l 1
 369 -91 381 -116 403 -135 c 0
 431 -158 471 -166 508 -166 c 0
 570 -166 630 -150 674 -114 c 0
 724 -72 747 -16 764 40 c 0
 790 122 796 206 796 291 c 0
 796 344 794 398 782 450 c 0
 775 481 765 513 741 536 c 0
 719 556 691 567 659 567 c 0
 639 567 608 561 591 550 c 0
 570 537 560 530 546 512 c 1
 550 494 552 464 552 446 c 0
 552 369 540 295 492 229 c 1
 445 195 390 159 345 133 c 1
 356 132 414 112 445 99 c 0
 472 87 504 79 534 79 c 0
 551 79 566 87 581 94 c 0
 605 106 627 121 648 137 c 1
 654 116 l 1
 607 61 555 9 487 -27 c 1
 428 -18 372 5 318 30 c 0
 291 43 253 50 226 50 c 0
 202 50 179 43 158 33 c 0
 131 20 107 2 85 -17 c 1
 66 2 l 1
 117 52 168 102 229 144 c 1
 243 147 256 148 268 148 c 0
 282 148 297 147 313 146 c 1
 331 155 353 167 372 182 c 1
 395 203 402 231 409 259 c 0
 420 305 423 352 423 398 c 0
 423 467 399 536 340 585 c 0
 317 605 290 622 253 622 c 0
EndSplineSet
EndChar

StartChar: u1D585
Encoding: 120197 120197 111
Width: 804
Flags: MW
HStem: -137 27<335 359> -24 70 289 87<350.5 451.5> 571 94 698 20<243 243>
VStem: 167 129 532 146<134 240>
LayerCount: 2
Fore
SplineSet
290 664 m 2
 471 670 l 1
 507 670 546 665 573 643 c 0
 587 631 597 615 597 597 c 0
 597 535 553 482 501 438 c 0
 475 416 432 392 399 376 c 1
 504 376 593 372 655 310 c 0
 668 296 678 248 678 232 c 0
 678 177 670 121 649 68 c 0
 632 25 606 -16 568 -49 c 1
 499 -105 407 -137 311 -137 c 0
 275 -137 229 -137 200 -135 c 1
 186 -133 166 -130 166 -115 c 2
 167 -64 l 2
 167 -53 163 -42 153 -35 c 1
 146 -28 136 -24 125 -24 c 0
 101 -24 79 -33 60 -44 c 1
 49 -29 l 1
 80 -7 115 12 151 27 c 1
 180 38 210 46 242 46 c 0
 258 46 276 43 287 34 c 0
 301 22 302 -3 302 -15 c 0
 302 -26 300 -37 298 -47 c 0
 295 -60 295 -75 295 -88 c 0
 295 -98 307 -104 317 -107 c 0
 323 -109 331 -110 339 -110 c 0
 385 -110 428 -94 459 -67 c 1
 488 -44 502 -7 512 25 c 1
 528 67 532 112 532 156 c 0
 532 185 529 232 504 252 c 0
 469 281 418 289 369 289 c 0
 332 289 295 281 259 272 c 1
 242 285 l 1
 299 366 l 1
 349 375 393 398 429 427 c 0
 461 454 473 491 473 528 c 0
 473 537 471 546 462 553 c 0
 445 567 421 571 397 571 c 0
 367 571 336 569 306 566 c 0
 275 562 213 555 209 555 c 0
 186 555 164 562 146 576 c 0
 140 581 134 596 131 609 c 1
 158 646 199 693 225 717 c 1
 243 718 l 1
 241 712 239 705 239 698 c 0
 239 690 242 681 250 674 c 0
 260 666 276 664 290 664 c 2
EndSplineSet
EndChar

StartChar: uni005B
Encoding: 91 91 112
Width: 325
Flags: MW
HStem: -130 32 710 31
VStem: 69 51<-93 699 -93 741 -93 741>
LayerCount: 2
Fore
SplineSet
263 712 m 1
 120 699 l 1
 120 -93 l 1
 263 -100 l 1
 263 -119 l 1
 197 -119 133 -124 69 -130 c 1
 69 741 l 1
 116 736 197 736 263 736 c 1
 263 712 l 1
EndSplineSet
EndChar

StartChar: uni005D
Encoding: 93 93 113
Width: 325
Flags: MW
HStem: -132 31 708 31
VStem: 193 51<-92 700 700 700>
LayerCount: 2
Fore
SplineSet
193 700 m 1
 46 709 l 1
 46 733 l 1
 113 733 187 733 244 739 c 1
 244 -132 l 1
 179 -125 113 -124 46 -124 c 1
 46 -103 l 1
 193 -92 l 1
 193 700 l 1
EndSplineSet
EndChar

StartChar: uni005E
Encoding: 94 94 114
Width: 664
Flags: MW
HStem: 452 21<60 60> 715 20<334 334>
VStem: 32 596<464 486>
LayerCount: 2
Fore
SplineSet
334 735 m 1
 628 486 l 1
 582 459 l 1
 331 673 l 1
 60 452 l 1
 32 464 l 1
 334 735 l 1
EndSplineSet
EndChar

StartChar: u1D586
Encoding: 120198 120198 115
Width: 678
Flags: MW
HStem: -32 98 388 52 452 19
VStem: 110 118 408 113
LayerCount: 2
Fore
SplineSet
408 80 m 1
 219 -32 l 1
 179 0 145 36 115 73 c 1
 114 93 113 112 113 132 c 0
 113 211 121 289 134 367 c 1
 204 397 271 434 335 472 c 1
 376 456 420 447 463 440 c 1
 531 468 l 1
 539 461 l 1
 522 395 522 328 522 261 c 0
 522 222 523 182 525 143 c 1
 578 80 l 1
 589 80 611 92 626 100 c 1
 631 82 l 1
 483 -29 l 1
 462 1 438 29 409 54 c 1
 408 80 l 1
407 110 m 1
 405 366 l 1
 355 366 305 377 257 389 c 1
 242 365 230 328 230 236 c 0
 230 204 231 171 234 138 c 1
 259 113 287 86 317 66 c 1
 331 66 380 93 407 110 c 1
EndSplineSet
EndChar

StartChar: u1D587
Encoding: 120199 120199 116
Width: 664
Flags: MW
HStem: -32 86 380 94 671 20<336 336>
VStem: 132 116 428 121
LayerCount: 2
Fore
SplineSet
256 384 m 1
 401 474 l 1
 437 457 495 433 543 414 c 1
 545 381 546 347 546 314 c 0
 546 241 541 168 527 96 c 1
 438 48 348 2 250 -32 c 1
 203 0 158 33 120 71 c 1
 133 183 133 298 133 411 c 0
 133 496 130 582 120 666 c 1
 140 674 l 1
 166 596 l 1
 221 630 281 667 336 691 c 1
 352 678 l 1
 325 659 306 642 284 620 c 0
 271 607 262 590 256 573 c 0
 248 547 247 521 247 495 c 2
 247 388 l 1
 256 384 l 1
420 347 m 1
 379 367 354 376 323 384 c 1
 301 380 267 361 249 348 c 1
 249 276 249 155 250 132 c 1
 272 114 298 92 326 77 c 0
 345 66 366 57 388 54 c 1
 408 94 418 137 422 180 c 0
 424 205 425 229 425 252 c 0
 425 284 423 315 420 347 c 1
EndSplineSet
EndChar

StartChar: u1D588
Encoding: 120200 120200 117
Width: 536
Flags: MW
HStem: -26 98 393 80
VStem: 116 132
LayerCount: 2
Fore
SplineSet
464 429 m 1
 385 333 l 1
 375 333 l 1
 326 375 283 390 258 396 c 1
 246 377 241 300 241 270 c 0
 241 232 244 192 247 154 c 1
 280 125 312 97 350 72 c 1
 458 114 l 1
 458 93 l 1
 394 52 287 -11 257 -26 c 1
 209 8 166 47 125 88 c 1
 122 130 121 175 121 218 c 0
 121 271 124 322 134 366 c 1
 333 473 l 1
 380 465 425 451 464 429 c 1
EndSplineSet
EndChar

StartChar: u1D589
Encoding: 120201 120201 118
Width: 663
Flags: MW
HStem: -29 95 558 74
VStem: 123 120 432 120
LayerCount: 2
Fore
SplineSet
294 459 m 1
 317 449 l 1
 296 434 270 408 250 389 c 1
 240 341 239 301 239 254 c 0
 239 219 242 183 244 148 c 1
 284 114 331 86 382 66 c 1
 406 106 433 175 433 309 c 0
 433 343 431 377 428 411 c 1
 377 451 323 489 262 520 c 0
 224 540 182 558 137 558 c 0
 106 558 73 549 45 538 c 1
 31 557 l 1
 88 587 150 610 213 632 c 1
 268 630 314 608 361 583 c 0
 421 552 490 512 546 475 c 1
 551 439 553 403 553 368 c 0
 553 280 539 192 508 108 c 1
 458 68 366 15 291 -29 c 1
 231 4 174 42 123 85 c 1
 120 103 118 130 118 163 c 0
 118 209 121 269 126 335 c 1
 174 378 239 424 294 459 c 1
EndSplineSet
EndChar

StartChar: u1D58A
Encoding: 120202 120202 119
Width: 544
Flags: MW
HStem: -28 96 391 80
VStem: 111 113
LayerCount: 2
Fore
SplineSet
457 108 m 1
 467 92 l 1
 401 51 335 10 266 -28 c 1
 212 6 164 45 119 86 c 1
 116 122 114 158 114 194 c 0
 114 253 118 312 128 370 c 1
 193 404 294 457 324 471 c 1
 370 433 417 395 470 362 c 1
 407 311 306 240 224 181 c 0
 224 180 229 143 242 136 c 1
 269 116 296 98 345 68 c 1
 377 73 422 91 457 108 c 1
222 214 m 1
 268 245 320 281 362 316 c 1
 323 340 258 387 243 399 c 1
 228 330 222 285 222 214 c 1
EndSplineSet
EndChar

StartChar: u1D58B
Encoding: 120203 120203 120
Width: 458
Flags: MW
HStem: 359 46<85 159 85 169 70 159 290 410> 611 70<235 322.5>
VStem: 169 118<300.5 359 300.5 359 300.5 359>
LayerCount: 2
Fore
SplineSet
290 405 m 1
 427 405 l 1
 427 398 l 1
 410 359 l 1
 287 359 l 1
 287 242 287 123 268 12 c 0
 265 -3 257 -20 249 -34 c 2
 134 -242 l 1
 113 -238 l 1
 128 -204 154 -141 160 -107 c 1
 165 -69 169 -24 169 18 c 2
 169 359 l 1
 70 359 l 1
 70 367 l 1
 85 405 l 1
 159 405 l 1
 146 445 142 480 134 520 c 1
 147 568 169 612 210 647 c 0
 238 670 277 681 315 681 c 0
 330 681 346 676 358 669 c 1
 379 659 396 646 412 631 c 1
 338 549 l 1
 322 549 l 1
 310 566 301 579 284 592 c 0
 273 601 257 611 242 611 c 0
 228 611 214 609 202 600 c 1
 191 590 185 575 185 561 c 0
 185 528 212 500 239 476 c 0
 253 463 267 450 277 435 c 0
 284 424 286 419 290 405 c 1
EndSplineSet
EndChar

StartChar: u1D58C
Encoding: 120204 120204 121
Width: 669
Flags: MW
HStem: -211 86 -21 89 370 56 453 20
VStem: 125 120 426 112
LayerCount: 2
Fore
SplineSet
422 83 m 1
 220 -50 l 1
 276 -80 360 -125 400 -125 c 0
 417 -125 434 -124 445 -114 c 0
 454 -107 454 -88 454 -74 c 0
 454 -37 436 32 422 83 c 1
48 -138 m 1
 221 -23 l 1
 126 70 l 1
 122 108 120 147 120 185 c 0
 120 246 126 306 142 366 c 1
 207 404 274 441 343 473 c 1
 385 454 435 432 474 426 c 1
 561 465 l 1
 575 461 l 1
 559 431 552 399 547 367 c 0
 540 322 538 277 538 232 c 0
 538 146 571 63 584 -22 c 1
 522 -88 453 -150 378 -206 c 1
 367 -207 357 -208 346 -208 c 0
 314 -208 281 -202 250 -194 c 0
 198 -179 149 -155 105 -129 c 1
 67 -153 l 1
 48 -138 l 1
423 111 m 1
 423 177 l 2
 423 233 425 288 428 343 c 1
 370 351 306 378 263 400 c 1
 251 348 245 288 245 234 c 0
 245 200 247 166 251 132 c 1
 277 107 307 78 343 62 c 1
 423 111 l 1
EndSplineSet
EndChar

StartChar: u1D58D
Encoding: 120205 120205 122
Width: 691
Flags: MW
HStem: -207 21 -24 21 376 95 667 20<330 330>
VStem: 122 130 435 114
LayerCount: 2
Fore
SplineSet
256 507 m 2
 254 377 l 1
 306 405 355 439 401 471 c 1
 447 448 496 428 546 410 c 1
 548 363 549 317 549 271 c 0
 549 231 548 190 546 150 c 0
 543 89 539 28 526 -31 c 1
 476 -88 407 -148 330 -203 c 1
 305 -189 l 1
 328 -174 356 -150 380 -128 c 0
 398 -111 408 -84 416 -60 c 1
 425 -27 434 27 434 115 c 0
 434 189 428 263 422 337 c 1
 389 354 346 372 309 379 c 1
 254 347 l 1
 251 308 249 269 249 230 c 0
 249 196 251 162 254 128 c 1
 271 104 289 82 309 60 c 1
 267 36 228 6 191 -24 c 1
 172 6 148 35 122 62 c 1
 131 185 138 308 138 432 c 0
 138 509 135 587 128 664 c 1
 147 673 l 1
 172 597 l 1
 224 628 281 662 330 687 c 1
 348 672 l 1
 336 665 325 658 314 649 c 0
 268 612 256 559 256 507 c 2
EndSplineSet
EndChar

StartChar: u1D58E
Encoding: 120206 120206 123
Width: 401
Flags: MW
HStem: -26 108<200 300.5> 387 91 540 146<197 199>
VStem: 140 116
LayerCount: 2
Fore
SplineSet
316 86 m 2
 360 105 l 1
 366 87 l 1
 307 53 253 13 200 -26 c 1
 126 56 l 1
 133 114 136 173 136 232 c 0
 136 277 134 321 131 366 c 1
 92 387 l 1
 52 370 l 1
 34 382 l 1
 82 413 129 443 173 478 c 1
 186 468 228 440 256 422 c 1
 253 366 251 310 251 253 c 0
 251 215 252 176 254 138 c 0
 254 128 259 118 267 109 c 1
 275 98 287 82 298 82 c 0
 303 82 314 85 316 86 c 2
106 613 m 1
 199 686 l 1
 223 661 250 636 279 615 c 1
 197 540 l 1
 165 562 134 587 106 613 c 1
EndSplineSet
EndChar

StartChar: u1D58F
Encoding: 120207 120207 124
Width: 401
Flags: MW
HStem: -204 21 380 99 541 142<189 190>
VStem: 155 116
LayerCount: 2
Fore
SplineSet
50 382 m 1
 183 483 l 1
 212 462 239 444 270 425 c 1
 273 369 275 313 275 256 c 0
 275 161 269 65 249 -29 c 1
 186 -90 105 -156 29 -207 c 1
 13 -189 l 1
 47 -168 84 -143 110 -118 c 0
 137 -91 147 -54 150 -18 c 0
 155 51 155 139 155 217 c 0
 155 254 155 307 152 327 c 1
 151 342 148 357 136 368 c 0
 128 375 117 380 104 380 c 0
 103 380 79 369 66 363 c 1
 50 382 l 1
272 614 m 1
 189 541 l 1
 161 563 132 585 107 611 c 1
 190 683 l 1
 200 673 244 637 272 614 c 1
EndSplineSet
EndChar

StartChar: u1D590
Encoding: 120208 120208 125
Width: 537
Flags: MW
HStem: -25 93<271 366> 308 38<80 148 66 149 267 299 299 307.5 351 432> 515 70 663 11
VStem: 148 116 375 94
LayerCount: 2
Fore
SplineSet
143 115 m 2
 148 308 l 1
 66 308 l 1
 80 346 l 1
 149 346 l 1
 149 453 149 590 138 665 c 1
 160 673 l 1
 169 648 187 598 187 597 c 1
 233 631 286 659 340 683 c 1
 355 667 l 1
 329 653 314 641 297 620 c 0
 286 605 277 589 274 572 c 1
 268 549 267 523 267 499 c 1
 308 528 363 563 407 585 c 1
 424 566 440 546 452 525 c 0
 460 511 466 500 466 484 c 0
 466 463 450 446 435 430 c 2
 351 346 l 1
 449 346 l 1
 432 308 l 1
 263 308 l 1
 263 253 264 190 270 136 c 1
 361 68 l 1
 371 68 432 93 463 109 c 1
 473 90 l 1
 271 -25 l 1
 139 71 l 1
 141 86 142 100 143 115 c 2
267 346 m 1
 299 346 l 2
 316 346 336 365 349 379 c 0
 366 396 375 415 375 435 c 0
 375 465 354 495 333 518 c 1
 317 508 300 497 289 484 c 0
 277 469 272 449 271 432 c 0
 268 404 267 375 267 346 c 1
EndSplineSet
EndChar

StartChar: u1D591
Encoding: 120209 120209 126
Width: 406
Flags: MW
VStem: 145 113<292 356.5 292 368.5>
LayerCount: 2
Fore
SplineSet
353 86 m 1
 199 -24 l 1
 177 2 134 54 134 55 c 0
 142 128 145 217 145 312 c 0
 145 425 141 551 137 661 c 1
 157 665 l 1
 177 593 l 1
 225 625 279 656 333 682 c 1
 344 673 l 1
 330 663 314 647 304 638 c 0
 287 621 278 604 272 582 c 0
 264 551 260 519 260 487 c 0
 259 436 258 383 258 330 c 0
 258 254 260 179 268 112 c 1
 294 83 l 1
 304 83 327 92 345 101 c 1
 353 86 l 1
EndSplineSet
EndChar

StartChar: u1D592
Encoding: 120210 120210 127
Width: 1003
Flags: MW
HStem: -31 21<208 208> 384 93
VStem: 141 124 432 114 718 119
LayerCount: 2
Fore
SplineSet
553 376 m 2
 703 471 l 1
 751 450 800 432 850 418 c 1
 840 362 836 306 836 250 c 0
 836 208 838 166 841 124 c 1
 869 86 l 1
 874 82 881 77 887 77 c 0
 889 77 898 80 902 82 c 2
 937 100 l 1
 950 78 l 1
 891 45 836 8 782 -30 c 1
 759 1 734 31 705 59 c 1
 716 93 720 151 720 213 c 0
 720 258 718 304 716 344 c 1
 686 357 640 374 607 382 c 1
 551 348 l 1
 548 309 547 272 547 233 c 0
 547 199 548 165 549 131 c 1
 607 58 l 1
 485 -28 l 1
 464 -1 425 52 425 53 c 0
 433 96 435 152 435 210 c 0
 435 256 434 303 433 346 c 1
 407 357 356 370 325 377 c 1
 264 343 l 1
 263 278 l 2
 263 227 265 176 269 126 c 1
 325 52 l 1
 208 -31 l 1
 187 0 165 32 141 59 c 1
 147 104 149 154 149 205 c 0
 149 256 147 308 145 357 c 1
 108 384 l 1
 62 365 l 1
 48 378 l 1
 186 476 l 1
 209 455 236 436 266 420 c 1
 264 403 262 370 262 369 c 1
 317 399 368 433 414 472 c 1
 460 451 506 429 556 416 c 1
 555 403 553 377 553 376 c 2
EndSplineSet
EndChar

StartChar: u1D593
Encoding: 120211 120211 128
Width: 730
Flags: MW
HStem: -28 21<198 198> 388 86<97 168>
VStem: 126 126 422 124
LayerCount: 2
Fore
SplineSet
250 129 m 1
 312 62 l 1
 198 -28 l 1
 174 -2 148 25 119 48 c 1
 127 73 129 117 129 168 c 0
 129 232 125 307 122 366 c 1
 97 388 l 1
 53 367 l 1
 35 381 l 1
 168 474 l 1
 194 456 224 436 251 424 c 1
 250 408 250 377 250 376 c 1
 304 405 355 438 404 474 c 1
 446 452 502 430 554 411 c 1
 547 341 543 271 543 200 c 0
 543 178 543 155 544 132 c 1
 592 80 l 1
 602 83 628 95 643 104 c 1
 652 88 l 1
 599 56 546 14 496 -26 c 1
 474 6 443 38 414 68 c 1
 424 116 426 167 426 219 c 0
 426 261 424 303 423 345 c 1
 391 360 347 372 312 381 c 1
 249 350 l 1
 249 348 249 204 250 129 c 1
EndSplineSet
EndChar

StartChar: u1D594
Encoding: 120212 120212 129
Width: 685
Flags: MW
HStem: -34 89 391 91
VStem: 137 124 443 111
LayerCount: 2
Fore
SplineSet
291 -34 m 1
 238 -4 188 28 142 65 c 1
 141 85 141 104 141 124 c 0
 141 204 149 283 164 362 c 1
 236 400 306 440 375 482 c 1
 430 449 492 426 556 410 c 1
 557 386 558 361 558 337 c 0
 558 298 556 260 553 221 c 0
 550 177 545 132 532 89 c 1
 457 41 376 0 291 -34 c 1
417 55 m 1
 436 126 445 199 445 272 c 0
 445 299 444 327 441 354 c 1
 389 361 340 378 293 397 c 1
 277 372 261 318 261 238 c 0
 261 203 264 167 269 131 c 1
 311 98 360 69 417 55 c 1
EndSplineSet
EndChar

StartChar: u1D595
Encoding: 120213 120213 130
Width: 679
Flags: MW
HStem: -208 21<164 164> 22 108<270 270> 383 99 538 20<208 208>
VStem: 151 118 436 125
LayerCount: 2
Fore
SplineSet
279 -161 m 1
 164 -208 l 1
 146 -202 l 2
 146 -201 150 -46 152 32 c 1
 111 32 73 14 42 -9 c 1
 30 8 l 1
 67 41 115 85 151 97 c 1
 151 359 l 1
 128 380 105 410 98 437 c 1
 129 481 168 520 208 558 c 1
 229 552 l 1
 219 539 209 525 209 510 c 0
 209 496 217 484 225 473 c 0
 237 456 252 441 270 428 c 1
 270 386 l 1
 416 482 l 1
 553 425 l 1
 558 399 561 338 561 310 c 0
 561 225 554 167 531 84 c 1
 475 55 424 19 376 -19 c 1
 346 3 309 17 270 22 c 1
 270 -39 274 -100 279 -161 c 1
321 391 m 1
 270 356 l 1
 270 130 l 1
 325 122 381 105 430 77 c 1
 441 119 444 157 444 202 c 0
 444 252 440 302 434 349 c 1
 400 363 356 381 321 391 c 1
EndSplineSet
EndChar

StartChar: u1D596
Encoding: 120214 120214 131
Width: 670
Flags: MW
HStem: -212 21<421 421> -30 102 386 93
VStem: 122 121 413 113
LayerCount: 2
Fore
SplineSet
536 -171 m 1
 421 -212 l 1
 401 -202 l 1
 413 -109 416 -15 416 78 c 1
 224 -30 l 1
 124 73 l 1
 122 95 121 117 121 140 c 0
 121 217 132 295 148 372 c 1
 346 478 l 1
 387 462 430 449 474 442 c 1
 545 485 l 1
 557 479 l 1
 527 376 527 188 527 41 c 0
 527 -30 531 -100 536 -171 c 1
418 358 m 1
 361 362 302 381 271 397 c 1
 254 368 242 305 242 210 c 0
 242 190 243 169 243 148 c 1
 265 120 292 87 321 65 c 1
 351 76 384 94 412 110 c 1
 412 193 412 283 418 358 c 1
EndSplineSet
EndChar

StartChar: u1D597
Encoding: 120215 120215 132
Width: 532
Flags: MW
HStem: -26 96<267 351> 378 95
VStem: 143 128
LayerCount: 2
Fore
SplineSet
339 334 m 2
 292 373 l 1
 287 370 278 363 274 359 c 1
 272 341 270 286 270 236 c 0
 270 206 270 176 272 147 c 0
 273 136 280 126 288 118 c 0
 289 118 331 86 351 70 c 1
 442 101 l 1
 443 80 l 1
 267 -26 l 1
 228 11 184 44 139 76 c 1
 151 119 153 187 153 222 c 0
 153 266 152 296 148 340 c 1
 133 355 119 369 100 380 c 1
 55 368 l 1
 44 382 l 1
 186 473 l 1
 273 411 l 1
 273 380 l 1
 382 471 l 1
 398 448 414 422 435 405 c 0
 441 400 449 398 457 398 c 0
 467 398 483 403 494 407 c 1
 494 394 l 1
 466 368 427 343 390 320 c 0
 387 318 384 316 377 316 c 0
 362 316 354 322 339 334 c 2
EndSplineSet
EndChar

StartChar: u1D598
Encoding: 120216 120216 133
Width: 596
Flags: MW
HStem: -35 21 41 90<90 209> 225 77 342 86<368.5 439> 459 20
VStem: 111 126 359 116
LayerCount: 2
Fore
SplineSet
524 442 m 1
 378 342 l 1
 359 342 336 351 317 359 c 0
 287 373 259 390 233 408 c 1
 227 385 224 362 224 339 c 0
 224 306 233 269 252 239 c 1
 304 256 358 279 410 302 c 1
 433 292 454 280 474 266 c 1
 479 233 483 199 483 165 c 0
 483 124 477 83 463 44 c 1
 395 21 327 -4 264 -35 c 1
 238 -14 210 6 179 21 c 0
 156 32 133 41 106 41 c 0
 74 41 44 26 19 10 c 1
 8 26 l 1
 136 125 l 1
 153 129 171 131 189 131 c 0
 229 131 307 76 357 38 c 1
 362 61 362 88 362 112 c 0
 362 139 360 167 357 195 c 1
 342 210 324 225 299 225 c 0
 283 225 269 220 254 214 c 0
 234 205 190 183 157 167 c 1
 142 180 128 200 116 218 c 0
 112 224 111 231 111 238 c 2
 111 377 l 1
 301 480 l 1
 369 442 l 2
 386 432 406 428 427 428 c 0
 451 428 488 445 512 461 c 1
 524 442 l 1
EndSplineSet
EndChar

StartChar: u1D599
Encoding: 120217 120217 134
Width: 464
Flags: MW
HStem: 359 46<95 164 95 164 80 164 283 376>
VStem: 164 118<321.5 359 321.5 359 321.5 553>
LayerCount: 2
Fore
SplineSet
282 359 m 1
 282 284 282 210 287 136 c 0
 288 129 290 122 295 117 c 0
 312 97 343 78 367 73 c 1
 375 74 420 93 443 104 c 1
 447 84 l 1
 266 -27 l 1
 233 5 197 34 157 60 c 1
 164 134 164 260 164 359 c 1
 80 359 l 1
 80 367 l 1
 95 405 l 1
 164 405 l 1
 164 553 l 1
 333 654 l 1
 345 640 l 1
 325 624 304 606 297 598 c 0
 288 589 283 480 283 405 c 1
 392 405 l 1
 392 398 l 1
 376 359 l 1
 282 359 l 1
EndSplineSet
EndChar

StartChar: u1D59A
Encoding: 120218 120218 135
Width: 663
Flags: MW
HStem: -32 94 384 89<91 178>
VStem: 153 108 412 117
LayerCount: 2
Fore
SplineSet
409 424 m 1
 533 468 l 1
 547 459 l 1
 532 359 530 259 530 158 c 0
 530 149 544 104 567 84 c 0
 569 83 575 79 578 79 c 0
 581 79 589 80 591 81 c 2
 642 101 l 1
 648 88 l 1
 486 -32 l 1
 421 73 l 1
 357 48 293 0 254 -35 c 1
 212 -3 147 25 100 42 c 1
 117 65 128 89 136 115 c 0
 146 151 153 188 153 224 c 0
 153 269 144 312 134 356 c 1
 123 368 111 379 91 384 c 1
 55 365 l 1
 41 379 l 1
 178 473 l 1
 181 470 231 433 257 414 c 1
 259 362 262 310 262 259 c 0
 262 228 258 197 252 166 c 0
 247 145 240 123 226 104 c 1
 259 97 306 78 345 62 c 1
 413 98 l 1
 413 201 413 312 409 424 c 1
EndSplineSet
EndChar

StartChar: u1D59B
Encoding: 120219 120219 136
Width: 680
Flags: MW
HStem: -28 83 389 87<314 404> 526 20<192 192>
VStem: 132 123 427 120
LayerCount: 2
Fore
SplineSet
510 80 m 1
 252 -28 l 1
 217 8 175 39 129 66 c 1
 138 103 138 163 138 212 c 0
 138 258 135 308 132 355 c 1
 113 376 89 402 89 422 c 0
 89 456 149 509 192 546 c 1
 213 542 l 1
 201 530 194 515 194 500 c 0
 194 479 231 442 257 416 c 1
 255 387 l 1
 404 476 l 1
 546 415 l 1
 548 382 549 349 549 316 c 0
 549 280 548 244 544 208 c 0
 539 164 533 120 510 80 c 1
326 389 m 0
 302 389 274 373 255 361 c 1
 255 152 l 2
 255 146 255 138 257 133 c 0
 260 126 267 120 274 114 c 0
 297 95 333 76 368 59 c 0
 371 58 378 56 381 56 c 0
 385 56 396 58 399 67 c 0
 422 131 429 196 429 263 c 0
 429 291 428 320 426 349 c 1
 394 365 337 389 326 389 c 0
EndSplineSet
EndChar

StartChar: u1D59C
Encoding: 120220 120220 137
Width: 999
Flags: MW
HStem: -33 96 376 94 529 20<194 194>
VStem: 142 122 427 125 740 123
LayerCount: 2
Fore
SplineSet
553 370 m 1
 725 470 l 1
 768 447 815 427 863 409 c 1
 862 334 861 259 850 184 c 0
 844 140 835 95 810 56 c 1
 738 29 667 1 600 -33 c 1
 568 -13 534 6 499 22 c 0
 474 34 447 44 419 51 c 1
 428 86 431 162 431 237 c 0
 431 270 430 303 430 332 c 1
 401 352 339 382 331 382 c 0
 318 382 287 371 263 355 c 1
 261 327 260 298 260 270 c 0
 260 218 263 166 267 113 c 1
 319 50 l 1
 207 -30 l 1
 182 2 150 41 124 59 c 1
 135 88 143 145 143 216 c 0
 143 262 140 309 137 356 c 1
 99 395 l 2
 91 404 88 417 88 428 c 0
 88 432 89 436 92 439 c 0
 123 477 158 519 194 549 c 1
 210 547 l 1
 200 533 195 516 195 500 c 0
 195 479 236 443 265 419 c 1
 265 382 l 1
 303 404 358 441 404 471 c 1
 451 445 501 423 553 404 c 1
 553 370 l 1
635 378 m 0
 623 378 580 360 556 345 c 1
 552 304 550 262 550 221 c 0
 550 198 551 176 552 153 c 0
 553 141 558 128 571 121 c 1
 605 99 642 80 683 64 c 0
 685 63 691 61 694 61 c 0
 696 61 704 65 709 78 c 0
 724 112 731 147 735 182 c 0
 742 233 743 284 743 336 c 1
 709 353 645 378 635 378 c 0
EndSplineSet
EndChar

StartChar: u1D59D
Encoding: 120221 120221 138
Width: 531
Flags: MW
HStem: -188 64 -29 97<281 379> 381 90<102.5 196>
VStem: 45 71 169 118<185 279>
LayerCount: 2
Fore
SplineSet
463 82 m 1
 281 -29 l 1
 188 44 l 1
 169 41 154 29 141 17 c 0
 124 2 117 -18 117 -38 c 0
 117 -51 123 -64 134 -74 c 0
 170 -105 222 -114 273 -122 c 1
 275 -133 l 1
 180 -188 l 1
 150 -181 121 -171 94 -157 c 0
 76 -147 58 -134 47 -117 c 0
 42 -109 41 -100 41 -91 c 0
 41 -81 43 -71 45 -61 c 1
 80 -15 117 31 163 70 c 1
 169 113 169 162 169 208 c 0
 169 252 168 296 164 339 c 0
 164 346 158 355 154 357 c 2
 107 381 l 1
 98 381 77 371 68 365 c 1
 51 377 l 1
 98 410 161 454 196 471 c 1
 290 413 l 1
 290 377 l 1
 404 468 l 1
 428 437 457 406 490 388 c 1
 409 313 l 1
 399 315 389 317 380 322 c 0
 359 336 324 365 319 370 c 1
 315 368 297 352 293 346 c 1
 289 322 287 297 287 261 c 0
 287 218 287 164 290 132 c 0
 290 131 292 126 293 124 c 0
 298 117 317 104 373 68 c 1
 385 68 430 86 461 100 c 1
 463 82 l 1
EndSplineSet
EndChar

StartChar: u1D59E
Encoding: 120222 120222 139
Width: 664
Flags: MW
HStem: -222 21<286 286> -28 21 381 97<326 410> 537 20
VStem: 143 122 428 122
LayerCount: 2
Fore
SplineSet
554 412 m 1
 557 370 558 329 558 289 c 0
 558 201 553 119 545 39 c 1
 545 -1 516 -34 487 -66 c 0
 456 -100 424 -134 385 -164 c 0
 357 -186 317 -207 286 -222 c 1
 255 -197 l 1
 289 -181 339 -156 348 -149 c 0
 372 -130 388 -110 397 -83 c 0
 404 -64 411 -40 416 -20 c 1
 428 47 431 114 431 182 c 0
 431 234 428 286 424 338 c 1
 394 356 361 372 326 381 c 1
 266 356 l 1
 266 141 l 2
 266 130 266 117 274 108 c 2
 319 53 l 1
 222 -39 l 1
 195 -8 153 39 125 60 c 1
 143 117 143 256 143 355 c 0
 143 359 141 365 139 367 c 0
 119 386 93 411 93 432 c 0
 93 446 102 459 112 471 c 0
 129 493 169 531 198 559 c 1
 217 553 l 1
 206 538 199 524 199 507 c 0
 199 494 211 477 222 465 c 0
 237 448 250 438 268 426 c 1
 268 385 l 1
 410 478 l 1
 456 453 504 431 554 412 c 1
EndSplineSet
EndChar

StartChar: u1D59F
Encoding: 120223 120223 140
Width: 534
Flags: MW
HStem: -215 80 371 101
VStem: 24 112 297 105
LayerCount: 2
Fore
SplineSet
385 -103 m 1
 226 -215 l 1
 170 -215 111 -209 70 -175 c 0
 49 -158 34 -137 24 -115 c 1
 93 -17 178 73 279 149 c 1
 245 172 188 181 143 184 c 1
 142 194 l 1
 236 259 l 2
 253 271 272 286 272 306 c 0
 272 323 254 346 238 356 c 0
 220 367 208 371 186 371 c 0
 173 371 161 366 148 361 c 0
 130 353 114 342 98 331 c 1
 82 346 l 1
 136 393 196 434 258 472 c 1
 287 462 314 450 335 432 c 0
 357 413 377 392 377 365 c 0
 377 353 358 336 344 323 c 2
 279 264 l 1
 322 251 361 234 400 214 c 1
 411 168 417 121 417 74 c 0
 417 14 404 -43 385 -103 c 1
289 120 m 1
 227 70 136 -3 136 -46 c 0
 136 -66 148 -82 166 -95 c 0
 218 -133 266 -134 276 -134 c 1
 282 -121 296 -90 296 -4 c 0
 296 29 294 70 289 120 c 1
EndSplineSet
EndChar

StartChar: uni0022
Encoding: 34 34 141
Width: 322
Flags: MW
HStem: 432 21<73 73 73 98 219 244 219 219> 675 19
VStem: 42 82<645 662> 186 82<665.5 670.5>
LayerCount: 2
Fore
SplineSet
73 432 m 1
 49 584 l 2
 45 608 42 633 42 657 c 0
 42 667 43 679 53 686 c 0
 62 692 73 695 84 695 c 0
 93 695 102 695 111 690 c 0
 117 686 124 682 124 675 c 2
 124 623 l 1
 98 432 l 1
 73 432 l 1
219 432 m 1
 192 625 l 2
 190 639 186 663 186 668 c 0
 186 673 189 679 194 683 c 0
 204 691 219 692 233 692 c 0
 243 692 253 691 260 684 c 1
 265 681 268 677 268 673 c 0
 268 657 268 641 267 626 c 2
 244 432 l 1
 219 432 l 1
EndSplineSet
EndChar

StartChar: uni0031.alt
Encoding: 1114159 -1 142
Width: 616
Flags: MW
HStem: -9 21<292 292> 594 30 694 20
VStem: 271 138
LayerCount: 2
Fore
SplineSet
407 32 m 1
 292 -9 l 1
 270 5 l 1
 292 190 295 376 284 561 c 0
 284 569 281 577 275 582 c 0
 268 587 259 595 253 595 c 2
 107 595 l 1
 108 626 l 1
 399 712 l 2
 404 714 411 714 416 710 c 0
 420 707 424 702 423 697 c 0
 410 560 403 422 403 284 c 0
 403 200 403 96 407 32 c 1
EndSplineSet
EndChar

StartChar: u1D521.alt01
Encoding: 1114160 -1 143
Width: 603
Flags: MW
HStem: -33 85 664 20<201 201>
VStem: 113 89 412 96
LayerCount: 2
Fore
SplineSet
499 439 m 1
 501 414 503 368 503 328 c 0
 503 297 501 267 499 249 c 0
 494 201 490 153 470 109 c 1
 267 -34 l 1
 212 0 159 35 116 81 c 1
 114 111 113 138 113 166 c 0
 113 210 115 259 119 335 c 1
 156 367 194 400 233 427 c 1
 198 439 161 453 139 472 c 0
 123 487 115 507 115 528 c 0
 115 589 153 643 201 684 c 1
 214 674 l 1
 195 653 182 625 182 596 c 0
 182 573 194 551 212 534 c 0
 242 506 282 489 322 476 c 0
 379 457 438 446 499 439 c 1
405 371 m 1
 260 419 l 1
 231 384 220 363 213 346 c 0
 204 323 199 290 199 254 c 0
 199 215 203 171 207 135 c 1
 221 119 238 106 256 94 c 0
 281 78 307 64 334 51 c 0
 337 50 340 48 344 48 c 0
 349 48 354 51 359 58 c 0
 390 102 405 154 410 205 c 0
 413 226 414 246 414 267 c 0
 414 301 410 338 405 371 c 1
EndSplineSet
EndChar

StartChar: u1D521.alt02
Encoding: 1114161 -1 144
Width: 605
Flags: MW
HStem: -30 73 562 54
VStem: 121 87 411 97
LayerCount: 2
Fore
SplineSet
290 451 m 1
 226 396 l 1
 207 356 205 297 205 260 c 0
 205 220 209 180 214 140 c 0
 217 118 282 73 340 43 c 1
 411 118 414 266 414 314 c 0
 414 345 412 375 410 406 c 1
 335 477 249 531 147 561 c 1
 124 561 103 557 82 550 c 1
 73 569 l 1
 117 589 161 604 207 616 c 1
 294 598 424 537 504 459 c 1
 506 430 507 401 507 372 c 0
 507 210 474 127 464 102 c 1
 399 53 329 11 258 -30 c 1
 209 4 162 41 120 82 c 1
 118 111 117 139 117 168 c 0
 117 232 122 296 131 360 c 1
 173 397 221 429 269 460 c 1
 290 451 l 1
EndSplineSet
EndChar

StartChar: u1D523.alt01
Encoding: 1114162 -1 145
Width: 430
Flags: W
HStem: 351 35<266 378 266 266> 661 20G<283 310.5>
VStem: 166 29<532.5 545> 172 94<279 351 279 351 279 351>
LayerCount: 2
Fore
SplineSet
409 665 m 1xe0
 409 649 l 1
 332 566 l 1
 314 585 291 601 264 601 c 0
 248 601 227 597 215 586 c 0
 202 575 195 561 195 544 c 0xe0
 195 521 205 499 215 478 c 0
 230 445 245 416 265 386 c 1
 393 386 l 1
 378 351 l 1
 266 351 l 1
 266 207 264 -40 246 -70 c 2
 138 -257 l 1
 119 -250 l 1
 130 -220 146 -172 161 -100 c 0
 171 -54 172 -8 172 38 c 2
 172 351 l 1xd0
 72 351 l 1
 88 385 l 1
 175 385 l 1
 170 430 166 485 166 521 c 0
 166 569 190 614 227 648 c 0
 246 666 269 681 297 681 c 0
 324 681 349 667 371 652 c 0
 373 650 376 648 379 648 c 0
 383 648 385 649 387 651 c 2
 409 665 l 1xe0
EndSplineSet
EndChar

StartChar: u1D523.alt02
Encoding: 1114163 -1 146
Width: 423
Flags: MW
HStem: 351 35<267 380 267 393> 585 63<292 334.5>
VStem: 174 93<293 351 351 386 351 396>
LayerCount: 2
Fore
SplineSet
267 351 m 1
 261 41 l 2
 261 4 258 -34 246 -69 c 1
 193 -164 154 -231 149 -242 c 1
 126 -240 l 1
 141 -196 165 -85 165 -84 c 0
 169 -56 172 -26 172 3 c 0
 172 119 174 235 174 351 c 1
 73 351 l 1
 90 385 l 1
 174 385 l 1
 174 407 157 470 147 512 c 0
 144 523 144 546 144 560 c 1
 176 606 210 642 250 681 c 1
 273 666 298 648 327 648 c 0
 342 648 365 658 376 667 c 1
 383 660 l 1
 310 585 l 1
 274 585 238 591 203 598 c 1
 203 565 219 534 231 503 c 0
 246 467 262 423 267 386 c 1
 393 386 l 1
 380 351 l 1
 267 351 l 1
EndSplineSet
EndChar

StartChar: u1D524.alt
Encoding: 1114164 -1 147
Width: 610
Flags: MW
HStem: -214 64<288 295.5> -31 90 392 79
VStem: 112 90 413 106
LayerCount: 2
Fore
SplineSet
504 -53 m 1
 367 -192 l 1
 341 -208 311 -214 280 -214 c 0
 208 -214 141 -189 89 -143 c 1
 132 -48 l 1
 144 -47 l 1
 149 -71 167 -91 185 -109 c 1
 219 -139 265 -150 311 -150 c 0
 347 -150 385 -140 410 -117 c 0
 426 -102 429 -77 429 -56 c 0
 429 -25 415 47 404 98 c 1
 207 -31 l 1
 117 65 l 1
 115 102 114 139 114 176 c 0
 114 291 127 350 132 368 c 1
 189 404 265 449 307 470 c 1
 347 447 390 433 433 424 c 1
 509 464 l 1
 517 459 l 1
 508 436 504 416 499 390 c 0
 493 353 492 305 492 268 c 1
 490 223 489 136 489 135 c 0
 498 84 512 -2 512 -18 c 0
 512 -30 509 -42 504 -53 c 1
284 48 m 1
 405 124 l 1
 405 192 408 272 413 352 c 1
 349 358 288 370 228 390 c 1
 215 364 203 325 203 245 c 0
 203 204 205 163 209 122 c 1
 230 99 259 67 284 48 c 1
EndSplineSet
EndChar

StartChar: u1D528.alt
Encoding: 1114165 -1 148
Width: 431
Flags: MW
HStem: 351 35<86 137 68 138 224 327 224 224>
VStem: 137 87<302 351>
LayerCount: 2
Fore
SplineSet
224 351 m 1
 224 118 l 1
 289 69 l 2
 294 66 297 64 301 64 c 0
 304 64 311 67 315 69 c 0
 316 69 358 89 380 99 c 1
 381 76 l 1
 230 -20 l 1
 130 66 l 1
 135 146 137 253 137 351 c 1
 68 351 l 1
 86 386 l 1
 138 386 l 1
 138 485 137 584 130 671 c 1
 148 676 l 1
 173 598 l 1
 218 629 260 661 308 687 c 1
 326 677 l 1
 302 658 282 640 261 614 c 0
 235 582 226 540 223 500 c 1
 260 528 338 583 339 583 c 0
 357 558 372 532 384 504 c 1
 345 449 l 1
 334 463 322 476 309 488 c 0
 300 496 289 506 277 506 c 0
 269 506 260 502 255 496 c 1
 224 468 223 425 223 386 c 1
 345 386 l 1
 327 351 l 1
 224 351 l 1
EndSplineSet
EndChar

StartChar: u1D531.alt
Encoding: 1114166 -1 149
Width: 431
Flags: MW
HStem: 351 35<88 168 88 168 71 168 253 361>
VStem: 168 85<312.5 351 312.5 351 386 409.5>
LayerCount: 2
Fore
SplineSet
418 84 m 1
 269 -21 l 1
 234 7 167 61 165 61 c 1
 168 100 168 253 168 351 c 1
 71 351 l 1
 88 386 l 1
 168 386 l 1
 168 433 168 486 165 534 c 1
 256 578 l 1
 268 574 l 1
 257 514 253 447 253 386 c 1
 380 386 l 1
 361 351 l 1
 253 351 l 1
 253 274 253 143 254 123 c 1
 278 104 313 81 331 69 c 0
 334 67 336 67 339 67 c 0
 343 67 348 69 352 71 c 0
 353 71 392 91 412 101 c 1
 418 84 l 1
EndSplineSet
EndChar

StartChar: u1D532.alt
Encoding: 1114167 -1 150
Width: 605
Flags: MW
HStem: -21 79 393 83
VStem: 143 78 400 83
LayerCount: 2
Fore
SplineSet
491 468 m 1
 499 462 l 1
 488 383 483 304 483 225 c 0
 483 193 484 161 489 131 c 0
 491 117 500 103 510 91 c 0
 514 86 521 83 528 83 c 0
 531 83 538 84 541 85 c 0
 557 90 571 96 586 103 c 1
 593 88 l 1
 547 54 505 18 463 -19 c 1
 454 -16 l 1
 438 20 425 46 400 78 c 1
 327 47 229 -26 229 -26 c 1
 207 -10 133 36 92 48 c 1
 107 70 115 99 122 127 c 0
 132 172 138 218 138 264 c 0
 138 292 138 319 131 346 c 1
 124 364 115 383 99 396 c 1
 58 376 l 1
 41 386 l 1
 162 474 l 1
 180 455 197 436 219 421 c 1
 219 399 220 378 220 356 c 0
 220 325 219 294 218 264 c 0
 216 210 208 156 192 104 c 1
 300 55 l 1
 398 101 l 1
 402 151 403 215 403 264 c 0
 403 316 401 369 399 424 c 1
 491 468 l 1
EndSplineSet
EndChar

StartChar: uni0030.oldstyle
Encoding: 1114168 -1 151
Width: 607
Flags: MW
HStem: -13 72 414 79
VStem: 78 85<220.5 234.5> 449 82<222.5 239.5>
LayerCount: 2
Fore
SplineSet
318 493 m 1
 367 480 413 455 449 421 c 1
 497 378 531 322 531 260 c 0
 531 185 491 117 435 65 c 1
 388 23 331 -13 266 -13 c 0
 220 -13 175 3 144 33 c 1
 97 76 78 137 78 198 c 0
 78 271 115 339 171 391 c 0
 215 431 264 466 318 493 c 1
246 418 m 1
 222 404 208 387 198 373 c 0
 173 339 163 292 163 249 c 0
 163 192 181 135 225 95 c 0
 251 72 290 53 326 53 c 0
 357 53 374 55 396 69 c 0
 437 96 449 168 449 212 c 0
 449 267 427 321 385 360 c 0
 354 388 291 415 246 418 c 1
EndSplineSet
EndChar

StartChar: uni0031.oldstyle
Encoding: 1114169 -1 152
Width: 607
Flags: MW
HStem: 0 44 431 38
VStem: 264 94
LayerCount: 2
Fore
SplineSet
359 469 m 1
 370 461 l 1
 359 384 357 307 357 229 c 0
 357 175 358 121 360 67 c 0
 361 61 361 55 366 51 c 1
 369 47 373 43 379 43 c 0
 431 43 482 44 535 46 c 1
 534 -1 l 1
 458 3 383 6 308 6 c 0
 234 6 160 4 83 -1 c 1
 83 44 l 1
 136 43 188 43 240 43 c 0
 247 43 253 44 258 49 c 0
 261 51 262 61 262 68 c 0
 264 86 264 196 264 260 c 0
 264 304 264 362 257 391 c 1
 252 407 238 416 222 421 c 0
 204 426 172 430 147 433 c 1
 146 460 l 1
 217 460 288 462 359 469 c 1
EndSplineSet
EndChar

StartChar: uni0032.oldstyle
Encoding: 1114170 -1 153
Width: 605
Flags: MW
HStem: 1 64<237.5 241 237.5 533> 415 59<262 354>
VStem: 368 83<315 385>
LayerCount: 2
Fore
SplineSet
549 73 m 2
 560 67 l 1
 533 1 l 1
 98 1 l 1
 96 17 l 2
 97 17 169 79 205 111 c 1
 250 149 292 190 326 236 c 0
 348 266 368 297 368 333 c 0
 368 356 356 377 339 393 c 0
 323 407 301 415 278 415 c 0
 246 415 195 388 156 367 c 1
 145 385 l 1
 176 410 211 434 248 451 c 0
 277 464 307 474 339 474 c 0
 369 474 399 462 420 442 c 0
 440 423 451 398 451 372 c 0
 451 355 445 338 437 321 c 0
 426 298 411 276 396 255 c 0
 347 191 288 134 228 78 c 0
 226 76 223 74 223 73 c 0
 223 65 234 65 241 65 c 0
 344 68 548 73 549 73 c 2
EndSplineSet
EndChar

StartChar: uni0033.oldstyle
Encoding: 1114171 -1 154
Width: 609
Flags: MW
HStem: -182 33<204.5 242 196.5 269.5> 170 34<174 174> 422 52<256.5 341.5>
VStem: 403 100
LayerCount: 2
Fore
SplineSet
303 210 m 1
 306 203 l 1
 355 203 416 191 452 158 c 0
 486 127 504 85 504 42 c 0
 504 -14 479 -68 435 -107 c 1
 382 -157 307 -182 232 -182 c 0
 177 -182 124 -166 76 -141 c 1
 94 -114 l 1
 133 -133 174 -149 219 -149 c 0
 265 -149 311 -139 342 -110 c 0
 383 -73 403 -23 403 29 c 0
 403 68 392 107 362 135 c 0
 343 152 317 159 292 164 c 0
 253 171 214 172 174 170 c 1
 174 204 l 1
 206 206 238 210 268 220 c 0
 291 228 314 238 331 254 c 0
 352 274 368 298 368 326 c 0
 368 352 359 378 338 397 c 0
 318 415 291 422 263 422 c 0
 250 422 237 418 224 413 c 0
 206 405 190 395 174 385 c 1
 157 396 l 1
 182 418 208 440 240 455 c 1
 266 466 294 474 324 474 c 0
 359 474 395 467 420 444 c 0
 443 424 455 397 455 368 c 0
 455 331 438 296 410 270 c 0
 383 245 339 224 303 210 c 1
EndSplineSet
EndChar

StartChar: uni0034.oldstyle
Encoding: 1114172 -1 155
Width: 607
Flags: MW
HStem: -192 21<373 373> -1 42<120 124 124 367> 456 19
VStem: 367 87
LayerCount: 2
Fore
SplineSet
448 476 m 1
 454 473 l 1
 451 390 449 306 449 222 c 0
 449 161 450 101 452 40 c 1
 488 41 523 42 559 45 c 1
 551 -1 l 1
 456 -1 l 1
 456 -54 456 -128 458 -162 c 1
 373 -192 l 1
 360 -183 l 1
 366 -122 367 -62 367 -1 c 1
 46 -1 l 1
 45 22 l 1
 360 451 l 1
 448 476 l 1
124 41 m 1
 367 41 l 1
 367 149 367 287 360 365 c 1
 347 365 l 1
 258 264 184 155 120 41 c 1
 124 41 l 1
EndSplineSet
EndChar

StartChar: uni0035.oldstyle
Encoding: 1114173 -1 156
Width: 608
Flags: MW
HStem: -184 30<186 228.5 186 248.5> 169 46<236 342.5> 378 80<180.5 184 184 467>
VStem: 122 44<190 366 190 458> 399 116<14 43.5>
LayerCount: 2
Fore
SplineSet
493 458 m 1
 467 378 l 1
 184 378 l 2
 177 378 166 375 166 366 c 2
 166 190 l 1
 176 185 l 1
 219 204 267 215 316 215 c 0
 369 215 422 203 460 168 c 0
 496 135 515 89 515 42 c 0
 515 -14 492 -69 448 -109 c 0
 385 -168 293 -184 204 -184 c 0
 164 -184 123 -174 85 -159 c 1
 98 -134 l 1
 132 -146 168 -154 204 -154 c 0
 253 -154 303 -143 338 -111 c 0
 376 -76 399 -28 399 23 c 0
 399 64 388 106 357 135 c 0
 331 159 295 169 259 169 c 0
 213 169 172 145 142 114 c 1
 122 125 l 1
 122 458 l 1
 493 458 l 1
EndSplineSet
EndChar

StartChar: uni0036.oldstyle
Encoding: 1114174 -1 157
Width: 606
Flags: MW
HStem: -13 45 314 63 641 59<418 494.5>
VStem: 82 96 460 86<181 192>
LayerCount: 2
Fore
SplineSet
534 691 m 1
 524 634 l 1
 517 629 l 1
 496 637 473 641 451 641 c 0
 385 641 326 609 277 568 c 1
 200 501 174 402 173 306 c 1
 181 305 l 1
 239 348 307 377 383 377 c 0
 424 377 466 361 495 334 c 0
 530 301 546 256 546 211 c 0
 546 151 513 98 468 56 c 0
 421 13 358 -13 290 -13 c 0
 241 -13 193 2 158 34 c 0
 100 87 82 164 82 238 c 0
 82 363 131 487 228 576 c 1
 266 613 310 645 359 668 c 0
 398 687 442 700 486 700 c 0
 503 700 519 696 534 691 c 1
176 275 m 1
 180 233 188 179 201 139 c 0
 210 110 225 81 248 60 c 0
 267 43 302 26 329 26 c 0
 364 26 378 27 409 44 c 0
 447 65 460 131 460 172 c 0
 460 212 442 251 410 279 c 1
 385 303 328 318 301 318 c 0
 243 318 216 302 176 275 c 1
EndSplineSet
EndChar

StartChar: uni0037.oldstyle
Encoding: 1114175 -1 158
Width: 606
Flags: MW
HStem: -181 21<76 155 76 76> 382 86<130 130 130 457 95 130>
VStem: 72 502
LayerCount: 2
Fore
SplineSet
356 458 m 2
 575 458 l 1
 575 442 l 1
 489 330 406 217 327 101 c 0
 265 9 206 -84 155 -181 c 1
 76 -181 l 1
 72 -168 l 1
 211 9 337 193 464 377 c 1
 462 377 459 380 457 382 c 1
 95 382 l 1
 130 468 l 1
 205 460 280 458 356 458 c 2
EndSplineSet
EndChar

StartChar: uni0038.oldstyle
Encoding: 1114176 -1 159
Width: 607
Flags: MW
HStem: -10 46 655 51
VStem: 77 90 441 95
LayerCount: 2
Fore
SplineSet
274 344 m 1
 244 330 220 309 203 286 c 0
 179 255 168 214 168 177 c 0
 168 136 183 95 214 65 c 1
 237 45 280 21 312 21 c 0
 348 21 370 31 388 40 c 1
 418 57 442 103 442 168 c 0
 442 209 418 245 387 274 c 0
 359 299 306 324 274 344 c 1
360 394 m 1
 402 367 466 325 486 307 c 0
 517 278 536 239 536 197 c 0
 536 149 518 100 479 67 c 0
 422 19 364 -10 272 -10 c 0
 220 -10 166 1 128 36 c 0
 93 68 77 112 77 157 c 0
 77 199 90 242 124 272 c 1
 162 308 209 335 257 360 c 1
 221 382 188 409 163 441 c 1
 145 468 130 498 130 530 c 0
 130 570 146 611 180 638 c 0
 218 669 263 689 310 706 c 1
 343 704 376 700 406 691 c 0
 429 684 451 675 468 659 c 0
 495 635 508 602 508 568 c 0
 508 534 491 502 469 475 c 0
 441 441 400 414 360 394 c 1
342 410 m 1
 387 438 414 491 414 544 c 0
 414 572 407 601 385 622 c 0
 356 648 316 669 291 677 c 1
 269 670 235 647 223 623 c 0
 214 605 212 583 212 563 c 0
 212 537 227 513 244 492 c 0
 267 462 309 430 342 410 c 1
EndSplineSet
EndChar

StartChar: uni0039.oldstyle
Encoding: 1114177 -1 160
Width: 607
Flags: MW
HStem: -182 28<112 153 112 168> 34 60<286 288> 416 54
VStem: 63 97<238.5 260> 436 108<189.5 221.5 147.5 235.5>
LayerCount: 2
Fore
SplineSet
425 102 m 1
 419 106 l 1
 377 75 320 34 256 34 c 1
 209 37 162 47 130 78 c 1
 84 119 63 176 63 234 c 0
 63 286 77 340 119 377 c 1
 157 413 229 444 289 470 c 1
 325 468 361 464 395 454 c 1
 422 445 447 434 466 416 c 0
 494 391 511 359 523 326 c 0
 537 285 544 243 544 200 c 0
 544 95 500 -7 418 -82 c 0
 339 -155 224 -182 112 -182 c 1
 112 -154 l 1
 194 -154 279 -135 338 -81 c 0
 388 -35 414 40 425 102 c 1
403 125 m 0
 426 146 436 175 436 204 c 0
 436 267 421 339 371 385 c 0
 343 410 294 430 260 434 c 1
 244 427 225 418 209 400 c 0
 176 363 160 311 160 264 c 0
 160 213 179 162 219 125 c 0
 241 105 270 94 302 94 c 0
 339 94 377 101 403 125 c 0
EndSplineSet
EndChar

StartChar: u1D504
Encoding: 120068 120068 161
Width: 832
Flags: MW
HStem: -27 21<349 349 639 639> 80 74 633 53<220.5 345>
VStem: 47 70<487 549> 145 75<338.5 395> 424 87<425 539.5> 569 90
LayerCount: 2
Fore
SplineSet
459 319 m 1
 265 155 l 1
 309 155 336 134 360 112 c 2
 412 64 l 1
 425 65 515 117 569 149 c 1
 569 474 l 2
 569 516 566 562 564 601 c 1
 702 697 l 1
 720 686 l 1
 703 673 680 654 674 644 c 1
 666 635 663 623 662 612 c 0
 656 558 656 456 656 378 c 0
 656 317 658 257 662 197 c 0
 663 186 664 174 667 165 c 0
 680 135 695 104 714 80 c 0
 717 77 720 76 724 76 c 0
 729 76 735 78 739 79 c 0
 757 86 773 93 789 101 c 1
 796 85 l 1
 639 -27 l 1
 605 22 587 71 570 123 c 1
 349 -27 l 1
 334 -4 316 18 297 37 c 1
 271 60 227 77 190 77 c 0
 150 77 114 60 75 37 c 1
 58 48 l 1
 180 133 l 2
 252 182 334 239 377 291 c 0
 414 335 424 398 424 452 c 0
 424 499 409 546 372 580 c 0
 336 613 289 633 238 633 c 0
 203 633 170 621 145 598 c 0
 128 583 117 560 117 538 c 0
 117 528 122 519 129 511 c 1
 139 497 151 485 163 474 c 0
 179 459 194 443 206 426 c 0
 214 414 220 402 220 388 c 0
 220 362 205 338 187 318 c 1
 160 291 128 271 93 255 c 1
 75 266 l 1
 95 276 112 289 127 305 c 0
 138 317 145 331 145 346 c 0
 145 356 140 365 133 373 c 0
 123 386 111 398 99 410 c 0
 71 436 47 468 47 506 c 0
 47 546 78 576 109 604 c 0
 135 628 232 686 320 686 c 0
 370 686 418 673 455 640 c 1
 491 606 511 563 511 516 c 0
 511 448 492 380 459 319 c 1
EndSplineSet
EndChar

StartChar: u1D505
Encoding: 120069 120069 162
Width: 1030
Flags: MW
HStem: -27 64<573 687.5> 341 42 623 65
VStem: 69 76 163 81<330.5 401.5> 418 94 795 93<154.5 271>
LayerCount: 2
Fore
SplineSet
604 -27 m 0
 542 -27 482 -6 426 14 c 0
 378 32 330 48 291 48 c 0
 235 48 181 26 135 0 c 1
 122 21 l 1
 257 94 l 2
 394 168 414 224 417 252 c 0
 420 284 424 355 425 402 c 1
 425 564 321 628 253 628 c 0
 210 628 192 621 166 598 c 0
 149 583 147 562 147 541 c 0
 147 527 166 503 189 478 c 0
 216 449 244 414 244 389 c 0
 244 317 146 271 110 255 c 1
 93 266 l 1
 123 281 163 314 163 347 c 0
 163 359 143 386 115 417 c 0
 91 445 71 469 71 507 c 0
 71 547 96 577 126 605 c 0
 152 629 224 691 326 691 c 0
 388 691 453 635 482 580 c 1
 506 603 540 626 569 644 c 0
 609 668 654 686 703 686 c 0
 728 686 754 682 772 665 c 0
 784 655 790 628 796 599 c 0
 804 565 812 528 830 511 c 0
 836 506 849 505 858 505 c 1
 874 507 890 511 905 516 c 1
 905 494 l 1
 865 480 829 468 794 446 c 2
 696 383 l 1
 816 383 888 318 888 224 c 0
 888 181 880 161 864 123 c 1
 735 24 669 -27 604 -27 c 0
514 350 m 1
 557 364 628 388 656 399 c 0
 688 411 716 426 762 455 c 1
 750 460 744 471 738 481 c 1
 730 500 725 520 721 540 c 0
 717 566 708 599 696 610 c 0
 682 623 658 634 638 634 c 0
 596 634 573 621 551 599 c 0
 532 579 515 548 506 523 c 1
 512 498 516 442 516 399 c 0
 516 385 515 364 514 350 c 1
476 207 m 1
 348 117 l 1
 413 117 474 96 534 74 c 0
 580 58 642 37 673 37 c 0
 702 37 729 46 749 64 c 0
 781 93 795 134 795 175 c 0
 795 217 778 257 745 286 c 1
 706 323 654 341 598 341 c 0
 569 341 539 336 512 325 c 1
 508 284 497 244 476 207 c 1
EndSplineSet
EndChar

StartChar: uni212D
Encoding: 8493 8493 163
Width: 720
Flags: MW
HStem: -20 66 666 20<577 577>
VStem: 90 87<320 350.5> 357 105<355 414.5>
LayerCount: 2
Fore
SplineSet
317 601 m 1
 352 585 l 1
 420 630 499 659 577 686 c 1
 608 605 l 2
 612 596 613 593 619 587 c 0
 623 583 630 582 640 582 c 0
 657 582 681 587 694 591 c 1
 694 568 l 1
 656 551 609 532 566 527 c 1
 537 543 504 591 479 628 c 1
 465 624 453 617 444 607 c 0
 427 587 426 569 426 560 c 0
 426 542 432 512 440 492 c 1
 445 476 462 430 462 399 c 0
 462 364 454 328 427 303 c 0
 385 266 330 247 272 239 c 1
 259 255 l 1
 290 262 317 277 340 298 c 0
 357 314 357 343 357 367 c 0
 357 390 345 437 334 474 c 0
 329 493 324 514 324 534 c 0
 324 544 325 554 328 564 c 1
 290 563 254 549 230 522 c 0
 190 477 177 419 177 362 c 0
 177 278 199 193 264 133 c 0
 329 73 419 46 510 46 c 0
 547 46 573 52 589 59 c 2
 682 106 l 1
 682 86 l 1
 636 51 577 15 525 -16 c 1
 496 -22 466 -24 436 -24 c 0
 340 -24 244 4 176 65 c 0
 143 95 126 131 112 171 c 0
 94 219 90 269 90 319 c 0
 90 382 106 444 137 500 c 1
 193 539 252 575 317 601 c 1
EndSplineSet
EndChar

StartChar: u1D507
Encoding: 120071 120071 164
Width: 955
Flags: MW
HStem: -27 75<521 590.5> 64 69<178.5 194 173 205.5> 612 74
VStem: 51 26 347 100 753 82
LayerCount: 2
Fore
SplineSet
422 559 m 1
 440 548 l 1
 425 539 411 528 398 516 c 0
 384 503 371 489 360 474 c 1
 354 464 347 453 347 442 c 0
 347 428 374 391 393 367 c 0
 415 339 445 298 445 277 c 0
 445 247 427 221 405 200 c 0
 373 169 322 146 284 131 c 1
 331 122 384 106 429 91 c 0
 478 75 557 48 579 48 c 0
 602 48 625 49 643 60 c 0
 663 73 689 109 707 133 c 0
 724 157 734 185 741 213 c 0
 749 250 753 287 753 325 c 0
 753 396 734 470 677 522 c 0
 604 589 501 612 398 612 c 0
 308 612 211 596 147 536 c 0
 99 492 77 426 74 367 c 1
 51 378 l 1
 51 460 79 535 143 593 c 0
 176 623 219 648 262 661 c 0
 316 677 372 690 428 690 c 0
 494 690 550 689 623 670 c 0
 670 658 721 625 758 591 c 0
 810 543 834 477 834 410 c 0
 834 314 811 236 774 147 c 1
 706 78 597 -27 532 -27 c 0
 510 -27 447 -5 411 8 c 0
 365 25 329 35 283 48 c 0
 252 56 221 64 190 64 c 0
 167 64 147 54 129 42 c 0
 106 27 89 6 74 -16 c 1
 56 0 l 1
 84 51 125 96 173 133 c 1
 215 133 259 140 296 161 c 0
 323 176 347 199 347 229 c 0
 347 257 332 282 312 303 c 0
 305 311 253 370 253 388 c 0
 253 404 254 420 263 434 c 0
 274 453 289 469 306 484 c 0
 339 515 380 539 422 559 c 1
EndSplineSet
EndChar

StartChar: u1D508
Encoding: 120072 120072 165
Width: 772
Flags: MW
HStem: -26 72 527 51 666 20<604 604>
VStem: 117 86<320 350.5> 355 133
LayerCount: 2
Fore
SplineSet
343 601 m 1
 378 585 l 1
 447 630 526 659 604 686 c 1
 635 605 l 2
 639 596 641 592 647 587 c 0
 651 583 660 582 670 582 c 0
 687 582 709 586 722 590 c 1
 722 568 l 1
 683 551 635 532 592 527 c 1
 564 542 531 590 506 627 c 1
 493 623 482 613 472 604 c 1
 463 593 454 580 453 566 c 1
 453 546 456 525 463 506 c 0
 479 461 488 437 488 369 c 1
 599 431 l 1
 622 402 650 376 683 356 c 1
 683 347 l 1
 610 309 l 1
 545 351 l 2
 540 354 534 356 529 356 c 0
 514 356 500 350 488 341 c 1
 481 314 463 291 442 271 c 0
 425 256 405 246 384 239 c 1
 356 228 326 222 297 218 c 1
 279 234 l 1
 311 239 339 254 367 271 c 1
 374 279 379 289 381 299 c 0
 384 313 385 330 385 344 c 0
 385 388 373 431 360 474 c 0
 354 493 350 512 350 532 c 0
 350 542 352 553 355 564 c 1
 316 563 279 549 257 522 c 1
 217 477 203 419 203 362 c 0
 203 278 225 193 290 133 c 0
 356 73 446 46 537 46 c 0
 552 46 567 47 581 48 c 1
 625 62 677 88 709 106 c 1
 709 86 l 1
 660 49 607 16 552 -16 c 1
 523 -21 493 -24 463 -24 c 0
 367 -24 272 4 209 60 c 0
 175 90 154 127 140 167 c 0
 122 215 117 269 117 319 c 0
 117 382 133 444 163 500 c 1
 219 539 278 575 343 601 c 1
EndSplineSet
EndChar

StartChar: u1D509
Encoding: 120073 120073 166
Width: 721
Flags: MW
HStem: -155 38 160 59 500 80<543.5 616> 617 69<228 323>
VStem: 144 82 284 81 469 87<48 49>
LayerCount: 2
Fore
SplineSet
429 293 m 1
 562 410 l 1
 587 386 609 361 621 330 c 1
 574 271 l 1
 561 292 543 314 516 314 c 0
 497 314 463 292 439 274 c 1
 533 162 l 2
 551 139 556 103 556 74 c 0
 556 22 532 -27 492 -64 c 0
 432 -119 351 -155 266 -155 c 0
 230 -155 198 -140 174 -117 c 1
 145 -92 140 -38 140 -8 c 0
 140 11 142 29 144 48 c 0
 146 62 147 77 147 92 c 0
 147 134 141 146 132 154 c 0
 126 160 118 162 109 162 c 0
 84 162 57 150 45 144 c 1
 40 165 l 1
 103 204 154 219 183 219 c 0
 194 219 206 216 214 207 c 0
 229 190 238 160 238 134 c 0
 238 108 238 95 231 69 c 0
 226 48 223 27 223 5 c 0
 223 -49 241 -73 254 -85 c 0
 273 -103 297 -120 324 -120 c 0
 362 -120 396 -106 422 -82 c 0
 455 -52 469 -4 469 37 c 0
 469 61 458 84 444 106 c 0
 420 142 397 178 371 213 c 1
 347 243 324 274 305 307 c 0
 295 326 284 346 284 367 c 0
 284 400 304 428 326 452 c 0
 360 489 401 518 446 543 c 1
 408 564 369 583 327 598 c 0
 300 608 272 617 242 617 c 0
 214 617 188 604 167 585 c 0
 132 553 119 507 109 463 c 1
 92 474 l 1
 98 532 116 591 162 633 c 0
 200 668 252 686 307 686 c 0
 339 686 370 676 399 665 c 0
 446 647 490 625 533 601 c 0
 554 590 578 580 603 580 c 0
 629 580 668 617 695 643 c 1
 705 629 l 1
 680 598 645 557 614 530 c 0
 598 516 579 500 556 500 c 0
 531 500 502 511 477 525 c 1
 446 516 409 496 392 478 c 0
 377 463 364 440 364 415 c 0
 364 397 372 379 381 364 c 0
 395 340 411 315 429 293 c 1
EndSplineSet
EndChar

StartChar: u1D50A
Encoding: 120074 120074 167
Width: 904
Flags: MW
HStem: -27 69 396 56 672 20<590 590>
VStem: 91 87 356 101 700 96
LayerCount: 2
Fore
SplineSet
754 606 m 1
 562 452 l 1
 579 454 595 455 611 455 c 0
 673 455 716 432 735 418 c 0
 771 391 796 348 796 303 c 0
 796 224 756 151 695 96 c 1
 527 -8 l 1
 493 -19 471 -25 436 -25 c 0
 343 -25 241 8 185 60 c 0
 110 128 93 224 93 319 c 0
 93 356 98 389 108 425 c 0
 116 453 128 477 141 502 c 1
 195 538 252 572 318 601 c 1
 352 585 l 1
 474 660 l 1
 485 649 l 1
 456 626 428 596 428 559 c 0
 428 533 445 463 456 422 c 1
 512 449 l 1
 548 471 597 506 628 535 c 1
 576 551 526 588 516 628 c 1
 590 692 l 1
 603 668 619 647 641 630 c 0
 659 617 678 607 700 607 c 0
 715 607 733 614 749 629 c 1
 754 606 l 1
277 213 m 1
 260 229 l 1
 292 236 321 256 340 282 c 1
 354 299 360 327 360 348 c 0
 360 380 356 407 347 436 c 0
 337 469 328 501 328 533 c 0
 328 543 329 553 331 564 c 1
 295 562 265 553 239 528 c 0
 195 486 180 425 180 367 c 0
 180 279 203 190 271 128 c 0
 327 76 394 39 473 39 c 0
 529 39 577 46 626 83 c 0
 683 126 701 196 701 255 c 0
 701 292 676 331 649 354 c 0
 612 385 566 402 514 402 c 0
 496 402 478 400 459 396 c 1
 459 352 454 303 419 271 c 0
 380 236 330 221 277 213 c 1
EndSplineSet
EndChar

StartChar: uni210C
Encoding: 8460 8460 168
Width: 840
Flags: MW
HStem: -133 53<489.5 550.5> 32 69 404 64<470.5 538.5> 538 69<457.5 521.5> 647 18
VStem: 161 90 637 94
LayerCount: 2
Fore
SplineSet
428 -107 m 1
 481 -43 l 1
 493 -65 517 -80 544 -80 c 0
 557 -80 570 -77 579 -71 c 0
 589 -65 599 -48 607 -34 c 0
 620 -8 626 28 630 56 c 0
 636 101 637 146 637 191 c 0
 637 229 634 266 624 302 c 0
 616 328 606 354 585 372 c 1
 559 396 522 404 486 404 c 0
 455 404 422 393 396 375 c 1
 365 352 347 339 317 307 c 1
 340 255 348 209 348 185 c 0
 348 167 345 147 336 134 c 1
 302 93 222 0 201 -16 c 1
 184 -2 166 10 149 20 c 1
 136 29 121 36 104 36 c 0
 72 36 47 11 31 -4 c 1
 18 10 l 1
 50 62 104 116 148 116 c 0
 183 116 223 86 245 62 c 1
 268 87 270 106 271 131 c 0
 271 156 260 194 245 218 c 0
 220 260 201 303 181 348 c 0
 169 375 161 402 161 431 c 0
 161 473 190 508 218 540 c 0
 263 590 318 630 376 667 c 1
 413 633 461 607 516 607 c 0
 527 607 539 612 547 618 c 1
 555 622 586 644 609 661 c 1
 623 646 l 1
 577 604 504 538 469 538 c 0
 446 538 424 543 403 550 c 0
 372 559 332 577 303 590 c 1
 285 574 273 559 261 537 c 0
 252 521 250 497 250 479 c 0
 250 440 282 376 306 330 c 1
 364 385 432 430 504 468 c 1
 573 468 644 454 701 415 c 1
 718 358 730 299 730 239 c 0
 730 152 723 64 684 -16 c 1
 628 -63 545 -133 504 -133 c 0
 475 -133 448 -125 428 -107 c 1
EndSplineSet
EndChar

StartChar: uni2111
Encoding: 8465 8465 169
Width: 662
Flags: MW
HStem: -27 48 601 85<243 251>
VStem: 439 97
LayerCount: 2
Fore
SplineSet
600 671 m 1
 612 655 l 1
 560 611 505 573 443 543 c 1
 396 559 334 580 302 590 c 0
 281 596 262 601 240 601 c 0
 207 601 176 591 153 569 c 0
 121 540 95 494 80 456 c 1
 61 467 l 1
 75 502 96 545 114 579 c 0
 126 602 142 628 160 646 c 0
 189 676 222 686 264 686 c 0
 310 686 377 657 432 633 c 0
 450 625 469 617 490 617 c 0
 506 617 527 623 541 630 c 0
 564 641 583 657 600 671 c 1
78 -16 m 1
 72 0 l 1
 108 44 191 124 196 128 c 1
 226 70 232 60 245 47 c 1
 264 30 294 18 320 18 c 0
 353 18 374 30 395 50 c 0
 413 66 424 96 431 118 c 0
 441 147 443 177 443 207 c 0
 443 255 437 296 432 334 c 0
 427 367 423 401 423 429 c 0
 423 441 424 452 425 463 c 1
 469 507 522 553 578 585 c 1
 592 578 l 1
 570 560 549 537 533 514 c 0
 523 498 520 482 520 464 c 0
 520 442 522 410 523 399 c 0
 531 348 537 293 537 245 c 0
 537 183 521 119 472 74 c 0
 410 17 329 -27 240 -27 c 0
 200 -27 165 -3 135 21 c 1
 78 -16 l 1
EndSplineSet
EndChar

StartChar: u1D50D
Encoding: 120077 120077 170
Width: 663
Flags: MW
HStem: -139 43 80 64<81 171> 516 64 601 85
VStem: 147 84 452 81<55.5 63.5>
LayerCount: 2
Fore
SplineSet
109 496 m 1
 92 506 l 1
 113 554 140 599 178 637 c 0
 204 663 237 686 277 686 c 0
 297 686 316 679 333 670 c 0
 359 657 382 640 405 623 c 0
 420 611 437 600 454 591 c 0
 466 585 479 580 492 580 c 0
 531 580 567 596 602 612 c 1
 602 591 l 1
 546 564 462 526 428 516 c 1
 395 522 368 540 342 559 c 0
 312 580 281 602 243 602 c 0
 216 602 191 592 173 577 c 0
 146 555 126 525 109 496 c 1
19 60 m 1
 14 73 l 1
 38 91 71 114 99 127 c 0
 118 136 139 144 162 144 c 0
 180 144 200 140 213 128 c 0
 231 112 231 79 231 53 c 0
 231 27 233 1 238 -25 c 1
 243 -41 249 -60 260 -71 c 0
 279 -90 308 -103 335 -103 c 0
 364 -103 390 -95 409 -76 c 1
 440 -49 452 -2 452 37 c 0
 452 90 438 147 422 197 c 1
 407 249 392 310 392 359 c 0
 392 369 393 379 394 388 c 1
 437 442 488 490 545 532 c 1
 562 522 l 1
 538 500 516 478 500 450 c 0
 488 431 487 405 487 383 c 0
 487 347 492 305 500 266 c 1
 514 206 533 106 533 85 c 0
 533 26 502 -28 457 -69 c 1
 414 -110 357 -139 295 -139 c 0
 256 -139 213 -133 185 -107 c 0
 161 -84 154 -52 150 -22 c 0
 147 6 141 44 133 58 c 0
 124 72 109 80 92 80 c 0
 70 80 37 71 19 60 c 1
EndSplineSet
EndChar

StartChar: u1D50E
Encoding: 120078 120078 171
Width: 780
Flags: MW
HStem: -27 64 436 64<449.5 544> 628 53
VStem: 263 74 546 84
LayerCount: 2
Fore
SplineSet
715 348 m 1
 532 272 l 1
 532 271 l 1
 549 271 568 267 582 255 c 0
 603 237 613 194 622 152 c 0
 627 127 634 92 653 72 c 0
 663 62 676 53 692 53 c 0
 719 53 751 62 773 77 c 1
 776 60 l 1
 752 38 719 10 689 -6 c 1
 671 -17 651 -27 628 -27 c 0
 606 -27 585 -16 574 0 c 0
 556 25 551 54 546 85 c 1
 541 129 529 187 506 207 c 1
 489 224 462 229 436 229 c 0
 402 229 369 220 338 207 c 1
 338 181 337 154 333 128 c 1
 305 90 274 55 237 26 c 0
 206 2 178 -14 141 -25 c 1
 98 -22 65 2 42 32 c 1
 104 98 l 1
 115 98 l 1
 122 83 132 68 145 56 c 0
 156 45 174 36 190 36 c 0
 213 36 229 45 238 53 c 0
 260 73 263 111 263 144 c 0
 263 194 250 244 234 293 c 0
 219 336 199 399 199 427 c 0
 199 440 204 455 205 457 c 0
 229 510 265 556 309 596 c 0
 369 651 450 681 535 681 c 0
 569 681 603 676 635 664 c 0
 661 654 684 639 698 617 c 1
 698 611 699 605 699 599 c 0
 699 566 691 532 680 500 c 1
 663 495 l 1
 663 529 649 562 623 586 c 0
 583 622 531 634 471 634 c 0
 408 634 364 617 327 583 c 0
 307 564 287 519 287 490 c 0
 287 456 295 407 309 367 c 1
 347 404 386 438 433 465 c 1
 464 484 498 500 535 500 c 0
 553 500 569 496 582 484 c 0
 601 468 614 436 624 409 c 1
 631 393 645 359 686 359 c 0
 692 359 702 361 708 364 c 1
 715 348 l 1
339 230 m 1
 382 248 421 262 468 270 c 1
 505 283 543 298 578 314 c 1
 554 327 543 360 535 383 c 0
 530 399 513 418 499 427 c 0
 490 433 472 436 464 436 c 0
 435 436 406 423 384 406 c 1
 353 384 335 357 315 327 c 1
 327 299 334 261 339 230 c 1
EndSplineSet
EndChar

StartChar: u1D50F
Encoding: 120079 120079 172
Width: 779
Flags: MW
HStem: -27 91<520.5 554 511.5 563> 404 48 639 47
VStem: 200 87<458.5 536> 547 101 707 22
LayerCount: 2
Fore
SplineSet
711 197 m 1
 729 186 l 1
 721 148 712 108 697 70 c 0
 688 47 677 23 659 5 c 1
 628 -23 584 -27 542 -27 c 0
 499 -27 456 -18 414 -7 c 0
 353 9 294 30 235 53 c 0
 213 62 189 69 165 69 c 0
 132 69 99 26 73 -15 c 1
 60 0 l 1
 82 47 102 88 138 127 c 0
 146 136 168 141 182 143 c 1
 215 143 l 1
 233 148 267 166 282 182 c 0
 295 197 301 212 301 227 c 0
 301 250 272 303 252 335 c 1
 238 360 224 386 213 413 c 0
 206 431 200 449 200 468 c 0
 200 491 210 512 221 531 c 0
 237 557 258 580 282 601 c 1
 343 658 427 686 514 686 c 0
 553 686 592 680 621 654 c 0
 642 635 649 607 649 571 c 0
 649 560 648 549 647 538 c 0
 645 519 645 491 645 483 c 0
 645 476 649 469 654 464 c 0
 664 454 698 452 718 452 c 1
 718 434 l 1
 590 404 l 1
 587 404 l 2
 572 404 543 425 543 450 c 0
 543 462 544 482 549 511 c 0
 550 522 551 532 551 542 c 0
 551 571 546 595 525 614 c 0
 500 636 469 644 435 644 c 0
 392 644 350 630 320 602 c 0
 298 582 287 550 287 522 c 0
 287 502 291 485 298 467 c 0
 307 441 321 413 334 388 c 0
 352 353 379 298 379 267 c 0
 379 260 378 254 374 250 c 0
 333 204 276 146 253 132 c 1
 302 113 363 92 416 80 c 0
 453 71 492 64 531 64 c 0
 577 64 625 70 659 101 c 0
 687 127 700 162 711 197 c 1
EndSplineSet
EndChar

StartChar: u1D510
Encoding: 120080 120080 173
Width: 1178
Flags: MW
HStem: -27 21<217 217 971 971> 26 80<108.5 173> 623 63
VStem: 37 75 136 81 391 93 681 99<383 388.5> 908 87<271 292.5>
LayerCount: 2
Fore
SplineSet
466 569 m 0
 482 587 498 605 519 617 c 1
 557 641 599 660 646 660 c 0
 671 660 698 655 716 639 c 0
 735 621 747 600 755 577 c 1
 779 603 808 625 838 644 c 0
 876 669 918 692 966 692 c 0
 985 692 1005 684 1018 671 c 0
 1030 658 1040 633 1047 612 c 0
 1053 597 1058 580 1070 569 c 0
 1079 562 1091 560 1102 560 c 0
 1119 560 1136 564 1151 569 c 1
 1151 554 l 1
 1106 533 1065 506 1030 474 c 1
 1016 448 1008 420 1004 392 c 1
 996 354 995 315 995 277 c 0
 995 230 995 170 1006 138 c 0
 1014 117 1016 114 1032 98 c 0
 1039 90 1056 80 1065 80 c 0
 1071 80 1105 90 1128 101 c 1
 1128 82 l 1
 971 -27 l 1
 909 99 l 1
 908 271 l 2
 908 314 916 357 925 399 c 1
 949 433 979 463 1013 490 c 1
 1005 491 996 499 989 506 c 0
 983 511 972 541 966 559 c 0
 958 580 947 610 936 617 c 1
 926 625 914 628 901 628 c 0
 874 628 841 620 820 603 c 0
 796 584 782 572 765 546 c 1
 772 515 780 467 780 436 c 0
 780 330 755 225 711 128 c 1
 577 -22 l 1
 556 -5 522 21 501 21 c 0
 492 21 481 21 473 16 c 0
 459 9 450 0 437 -14 c 1
 423 0 l 1
 450 36 496 90 519 101 c 0
 524 104 530 104 536 104 c 0
 544 104 552 103 559 101 c 0
 569 99 604 77 622 66 c 1
 648 90 656 119 664 149 c 0
 681 213 681 294 681 367 c 0
 681 410 680 452 672 494 c 1
 668 521 663 547 646 569 c 1
 630 592 599 601 571 601 c 0
 548 601 523 592 508 578 c 1
 492 565 480 547 470 529 c 1
 477 501 481 454 481 447 c 0
 481 334 466 220 402 122 c 1
 217 -27 l 1
 202 -12 184 1 165 12 c 0
 153 20 139 26 124 26 c 0
 93 26 68 6 49 -16 c 1
 37 0 l 1
 56 28 77 55 104 78 c 0
 121 92 141 106 165 106 c 0
 181 106 196 100 210 92 c 0
 227 83 255 61 270 48 c 1
 289 61 307 76 327 94 c 0
 355 120 366 163 374 198 c 0
 388 254 392 310 392 367 c 2
 392 408 l 1
 391 460 378 519 349 556 c 0
 319 594 271 630 220 630 c 0
 177 630 156 622 135 607 c 0
 121 596 112 573 112 564 c 0
 112 531 137 498 153 481 c 0
 166 467 187 444 197 427 c 0
 204 416 211 399 211 389 c 0
 211 360 196 337 177 317 c 0
 153 292 113 271 78 255 c 1
 61 266 l 1
 81 276 100 292 114 308 c 0
 125 320 131 332 131 347 c 0
 131 357 123 366 117 374 c 0
 107 387 94 404 83 417 c 0
 58 445 38 469 38 507 c 0
 38 547 63 577 94 605 c 0
 120 629 199 691 293 691 c 0
 343 691 390 657 423 620 c 0
 437 604 449 583 459 561 c 1
 462 563 464 566 466 569 c 0
EndSplineSet
EndChar

StartChar: u1D511
Encoding: 120081 120081 174
Width: 952
Flags: MW
HStem: -22 64 490 64 628 58<639 705.5>
VStem: 47 75 139 87 424 82<312 326.5> 700 78
LayerCount: 2
Fore
SplineSet
477 533 m 1
 492 548 527 594 534 604 c 0
 566 652 635 686 696 686 c 0
 715 686 732 685 750 681 c 0
 763 678 775 674 784 665 c 0
 798 652 807 631 813 612 c 0
 818 597 827 572 830 569 c 0
 840 561 851 554 865 554 c 0
 882 554 900 558 914 565 c 1
 914 551 l 1
 882 530 848 507 818 484 c 0
 808 476 798 465 796 452 c 0
 783 395 778 336 778 277 c 0
 778 235 781 193 793 152 c 0
 801 124 810 106 833 85 c 0
 837 81 847 76 853 76 c 0
 877 76 904 89 922 98 c 1
 922 76 l 1
 765 -29 l 1
 696 104 l 1
 696 271 l 2
 696 311 696 367 703 388 c 0
 705 396 709 403 714 410 c 0
 737 438 757 458 785 484 c 1
 765 488 756 499 750 507 c 0
 741 518 733 540 726 564 c 0
 720 582 711 599 696 612 c 1
 686 622 671 628 656 628 c 0
 622 628 586 610 562 589 c 1
 528 557 512 538 489 501 c 1
 497 459 506 394 506 351 c 0
 506 273 498 192 459 122 c 0
 453 113 444 98 441 96 c 0
 395 59 350 28 298 -4 c 0
 286 -11 260 -22 246 -22 c 0
 208 -22 173 8 153 36 c 1
 214 101 l 1
 227 101 l 1
 232 88 242 72 256 58 c 0
 268 47 288 40 304 40 c 0
 335 40 357 60 378 79 c 0
 398 97 405 123 412 148 c 0
 422 187 424 226 424 266 c 0
 424 387 393 507 360 550 c 0
 330 588 282 622 231 622 c 0
 188 622 165 618 141 597 c 0
 127 586 122 572 122 551 c 0
 122 531 148 492 164 475 c 0
 177 461 198 438 208 421 c 0
 214 410 222 393 222 383 c 0
 222 354 207 331 187 311 c 1
 164 286 123 265 89 249 c 1
 72 260 l 1
 91 270 111 286 125 302 c 0
 136 314 142 326 142 341 c 0
 142 351 134 360 128 368 c 0
 118 381 105 398 94 411 c 0
 69 439 49 463 49 501 c 0
 49 541 74 571 105 599 c 0
 131 623 202 685 304 685 c 0
 354 685 401 651 434 614 c 0
 451 595 466 564 477 533 c 1
EndSplineSet
EndChar

StartChar: u1D512
Encoding: 120082 120082 175
Width: 952
Flags: MW
HStem: -27 64 596 68 709 20<388 406 406 406>
VStem: 109 93<404 492.5> 226 81 736 99<299 436>
LayerCount: 2
Fore
SplineSet
493 596 m 1
 399 593 l 2
 378 593 357 596 338 606 c 0
 325 613 313 624 313 639 c 0
 313 679 362 698 388 729 c 1
 406 729 l 1
 400 722 395 712 395 703 c 0
 395 687 416 680 434 676 c 0
 455 671 527 666 573 662 c 0
 612 659 649 653 685 642 c 0
 712 633 739 620 759 601 c 0
 817 548 835 473 835 399 c 0
 835 340 829 281 809 225 c 0
 795 183 773 141 736 112 c 1
 688 72 637 36 579 9 c 0
 538 -11 493 -27 446 -27 c 0
 386 -27 327 -15 272 5 c 0
 253 12 233 20 214 26 c 0
 195 32 176 37 156 37 c 0
 113 37 75 16 51 -16 c 1
 34 0 l 1
 64 37 97 73 133 106 c 1
 181 121 226 157 226 207 c 0
 226 222 220 236 214 250 c 1
 204 269 192 286 179 303 c 0
 160 328 130 366 122 377 c 1
 116 387 109 398 109 410 c 0
 109 445 125 477 148 505 c 0
 177 540 214 568 255 591 c 1
 278 580 l 1
 257 566 238 550 222 530 c 0
 212 517 202 501 202 484 c 0
 202 467 208 451 216 435 c 1
 226 411 240 389 255 367 c 0
 277 333 306 290 306 261 c 0
 306 235 294 212 279 191 c 0
 258 161 226 135 197 112 c 1
 210 112 227 108 239 104 c 0
 274 94 308 81 341 69 c 0
 397 50 462 36 523 36 c 0
 604 36 667 73 700 141 c 0
 728 198 736 268 736 330 c 0
 736 374 732 418 718 461 c 0
 708 493 692 524 666 548 c 1
 648 566 623 576 596 584 c 0
 563 593 528 596 493 596 c 1
EndSplineSet
EndChar

StartChar: u1D513
Encoding: 120083 120083 176
Width: 944
Flags: MW
HStem: -219 21<374 374> -11 75 80 74<278.5 335> 633 59<628 727>
VStem: 49 70 143 81 380 84 676 81 780 58
LayerCount: 2
Fore
SplineSet
466 509 m 1
 466 122 l 1
 468 122 l 1
 521 106 617 77 626 74 c 0
 646 69 677 62 694 62 c 0
 720 62 745 70 762 87 c 1
 779 101 783 118 783 138 c 0
 783 154 774 175 767 190 c 0
 756 211 743 231 728 250 c 0
 705 280 676 317 676 346 c 0
 676 366 688 384 700 400 c 0
 719 424 747 445 772 464 c 1
 758 467 740 479 728 490 c 0
 714 502 712 531 711 554 c 0
 710 576 707 605 693 617 c 1
 680 630 659 633 641 633 c 0
 615 633 592 628 571 615 c 0
 524 585 498 554 466 509 c 1
453 540 m 1
 456 543 458 546 461 548 c 0
 481 571 501 593 525 612 c 0
 580 655 643 692 716 692 c 0
 738 692 760 685 775 671 c 0
 793 653 799 612 803 580 c 0
 805 567 808 550 815 543 c 0
 825 534 837 530 850 530 c 0
 864 530 878 534 890 538 c 1
 896 522 l 1
 862 506 831 488 803 463 c 0
 791 451 779 439 769 426 c 0
 763 418 756 409 756 399 c 0
 756 370 778 340 798 314 c 1
 820 283 838 250 838 213 c 0
 838 144 802 81 745 37 c 0
 712 12 674 -11 629 -11 c 0
 618 -11 606 -8 595 -5 c 2
 466 37 l 1
 466 -25 470 -87 478 -149 c 1
 472 -154 409 -196 374 -219 c 1
 351 -208 l 1
 356 -196 364 -152 368 -123 c 0
 378 -61 380 0 380 63 c 1
 344 73 312 80 293 80 c 0
 264 80 238 66 217 48 c 1
 196 28 178 6 159 -16 c 1
 148 5 l 1
 169 43 191 81 223 112 c 1
 251 137 288 154 328 154 c 0
 342 154 361 151 380 146 c 1
 380 396 l 2
 380 450 367 511 337 550 c 0
 307 588 259 622 208 622 c 0
 165 622 138 615 117 597 c 0
 103 585 97 572 97 551 c 0
 97 526 125 492 141 475 c 0
 154 461 175 438 185 421 c 0
 192 410 199 393 199 383 c 0
 199 354 184 331 165 311 c 0
 141 286 101 265 66 249 c 1
 49 260 l 1
 69 270 88 286 102 302 c 0
 113 314 119 326 119 341 c 0
 119 351 111 360 105 368 c 0
 95 381 82 398 71 411 c 0
 46 439 26 463 26 501 c 0
 26 541 51 571 82 599 c 0
 108 623 179 685 281 685 c 0
 331 685 378 651 411 614 c 0
 429 594 444 567 453 540 c 1
EndSplineSet
EndChar

StartChar: u1D514
Encoding: 120084 120084 177
Width: 950
Flags: MW
HStem: -27 64 596 68 709 20<387 404 404 404>
VStem: 107 93<404 492.5> 224 81<182 275.5> 734 99<347.5 352>
LayerCount: 2
Fore
SplineSet
491 596 m 1
 397 593 l 2
 377 593 355 596 336 606 c 0
 323 613 311 624 311 639 c 0
 311 647 311 660 323 671 c 2
 387 729 l 1
 404 729 l 1
 399 722 393 712 393 703 c 0
 393 699 394 696 397 692 c 0
 406 683 420 679 432 676 c 0
 453 671 525 666 572 662 c 0
 610 659 647 653 683 642 c 0
 710 633 737 620 757 601 c 0
 815 548 833 473 833 399 c 0
 833 296 810 174 734 112 c 0
 716 97 697 82 678 68 c 1
 697 48 716 29 740 14 c 0
 756 4 773 -6 793 -6 c 0
 823 -6 850 6 874 21 c 1
 874 -6 l 1
 746 -69 l 1
 710 -59 675 -46 642 -29 c 0
 620 -18 598 -6 579 10 c 1
 577 9 l 2
 536 -11 491 -27 444 -27 c 0
 384 -27 325 -15 270 5 c 0
 251 12 232 20 212 26 c 0
 194 32 174 37 154 37 c 0
 112 37 74 16 50 -16 c 1
 32 0 l 1
 63 37 95 73 131 106 c 1
 179 121 224 157 224 207 c 0
 224 222 219 236 212 250 c 0
 202 269 190 286 177 303 c 0
 159 328 128 366 121 377 c 0
 114 387 107 398 107 410 c 0
 107 445 124 477 147 505 c 0
 175 540 212 568 254 591 c 1
 276 580 l 1
 256 566 236 550 221 530 c 0
 210 517 200 501 200 484 c 0
 200 467 207 451 214 435 c 0
 224 411 238 389 254 367 c 1
 275 333 305 290 305 261 c 0
 305 235 293 212 278 191 c 0
 257 161 221 132 193 113 c 1
 206 113 225 108 237 104 c 0
 272 94 306 81 340 69 c 0
 395 50 457 37 517 37 c 0
 598 37 669 78 702 146 c 0
 730 203 734 268 734 330 c 0
 734 374 730 418 717 461 c 1
 706 493 691 524 664 548 c 1
 646 566 621 576 595 584 c 1
 561 593 526 596 491 596 c 1
EndSplineSet
EndChar

StartChar: uni211C
Encoding: 8476 8476 178
Width: 948
Flags: MW
HStem: -27 21<773 773> 26 80<122 181.5> 341 47 628 58
VStem: 47 70 140 82 401 89 703 89
LayerCount: 2
Fore
SplineSet
488 348 m 1
 512 359 564 381 614 388 c 1
 754 463 l 1
 740 464 725 469 714 479 c 0
 706 486 699 523 697 548 c 0
 695 567 689 585 679 601 c 1
 671 617 653 628 633 628 c 0
 606 628 577 618 558 600 c 0
 531 576 510 550 486 512 c 1
 487 507 492 464 492 451 c 0
 492 418 491 382 488 348 c 1
473 548 m 1
 478 553 l 1
 495 573 515 594 534 612 c 0
 580 654 638 686 703 686 c 0
 727 686 751 677 766 660 c 0
 783 642 788 615 790 591 c 0
 792 575 792 558 796 541 c 0
 800 527 804 513 847 513 c 0
 861 513 876 515 889 517 c 1
 896 504 l 1
 865 493 831 477 801 463 c 0
 763 445 706 416 668 388 c 1
 723 388 750 373 778 351 c 1
 782 285 786 181 796 154 c 0
 804 132 812 111 825 91 c 1
 833 81 841 69 854 69 c 0
 859 69 896 82 918 90 c 1
 918 74 l 1
 773 -27 l 1
 703 90 l 1
 705 121 707 150 707 179 c 0
 707 277 688 296 675 308 c 0
 652 329 616 343 585 343 c 0
 559 343 514 332 484 324 c 1
 481 302 477 279 471 257 c 0
 458 206 441 163 410 119 c 1
 349 74 287 19 227 -27 c 1
 203 -5 161 26 139 26 c 0
 105 26 79 8 59 -16 c 1
 47 0 l 1
 64 25 84 55 114 78 c 0
 131 92 150 106 175 106 c 0
 188 106 211 99 227 89 c 0
 246 76 262 63 277 48 c 1
 315 72 346 100 366 138 c 1
 382 166 387 197 393 228 c 1
 399 274 403 320 403 367 c 0
 403 414 402 494 360 551 c 0
 331 590 282 623 231 623 c 0
 188 623 170 616 145 593 c 0
 128 578 126 558 126 536 c 0
 126 524 148 493 164 476 c 0
 177 462 198 439 208 422 c 0
 215 411 223 394 223 384 c 0
 223 355 207 332 188 312 c 0
 164 287 124 266 89 250 c 1
 72 261 l 1
 92 271 111 287 125 303 c 0
 136 315 142 327 142 342 c 0
 142 352 135 361 128 369 c 0
 118 382 105 399 94 412 c 0
 69 440 49 464 49 502 c 0
 49 542 74 572 105 600 c 0
 131 624 202 686 304 686 c 0
 354 686 401 652 434 615 c 0
 450 597 463 573 473 548 c 1
EndSplineSet
EndChar

StartChar: u1D516
Encoding: 120086 120086 179
Width: 949
Flags: MW
HStem: -27 53<472 485.5> 341 69<605.5 709> 511 80 628 64
VStem: 90 81 269 82<377 434.5> 756 82
LayerCount: 2
Fore
SplineSet
389 508 m 1
 403 495 l 1
 389 491 378 483 368 474 c 0
 355 461 351 443 351 426 c 0
 351 410 356 394 368 383 c 0
 381 371 401 367 421 367 c 0
 445 367 506 380 548 388 c 1
 594 398 652 410 688 410 c 0
 730 410 773 395 803 367 c 0
 829 343 838 310 838 277 c 0
 838 203 808 132 751 80 c 0
 666 2 545 -27 426 -27 c 0
 343 -27 257 -7 197 48 c 0
 123 116 80 212 80 309 c 0
 80 406 123 495 198 564 c 0
 271 632 381 670 483 689 c 1
 540 661 612 627 653 611 c 0
 679 601 705 591 733 591 c 0
 757 591 776 597 793 612 c 0
 810 627 817 650 823 666 c 1
 844 655 l 1
 835 623 817 593 792 569 c 0
 762 541 721 525 681 511 c 1
 647 514 587 546 543 569 c 0
 512 586 481 601 448 613 c 0
 428 621 408 628 386 628 c 0
 331 628 284 599 246 564 c 0
 193 515 171 446 171 378 c 0
 171 280 205 182 281 112 c 0
 342 55 429 26 515 26 c 0
 585 26 656 31 706 77 c 0
 741 110 757 161 757 207 c 0
 757 244 745 283 716 309 c 0
 692 331 658 341 623 341 c 0
 588 341 542 332 501 325 c 0
 460 317 415 309 374 309 c 0
 346 309 318 312 298 330 c 0
 281 346 269 366 269 388 c 0
 269 417 283 443 304 463 c 1
 328 484 357 500 389 508 c 1
EndSplineSet
EndChar

StartChar: u1D517
Encoding: 120087 120087 180
Width: 781
Flags: MW
HStem: -27 21 48 71 623 63<296.5 298.5>
VStem: 59 47 309 86 443 75<198 265>
LayerCount: 2
Fore
SplineSet
686 133 m 1
 698 117 l 1
 668 85 636 55 601 28 c 0
 574 6 544 -13 513 -27 c 1
 465 -21 421 0 379 21 c 0
 348 36 316 48 281 48 c 0
 260 48 240 41 222 33 c 0
 195 21 171 6 147 -11 c 1
 136 5 l 1
 177 45 222 82 269 117 c 1
 280 118 291 118 302 118 c 0
 322 118 342 117 361 112 c 1
 384 124 405 140 421 159 c 0
 433 173 443 189 443 207 c 0
 443 221 437 233 429 244 c 1
 418 262 405 278 391 293 c 0
 358 327 316 372 309 404 c 1
 318 438 334 468 354 497 c 0
 380 533 409 566 443 596 c 1
 386 614 328 623 269 623 c 0
 220 623 169 615 134 583 c 0
 115 566 105 540 105 516 c 0
 105 477 137 445 176 431 c 1
 106 367 l 1
 71 392 51 425 51 465 c 0
 51 520 95 583 140 621 c 0
 194 667 260 686 333 686 c 0
 395 686 457 677 518 665 c 1
 561 658 605 649 646 649 c 0
 692 649 732 672 761 703 c 1
 761 681 l 1
 686 591 l 1
 663 578 637 575 611 575 c 0
 570 575 512 580 471 589 c 1
 447 571 439 564 421 538 c 1
 407 520 391 486 391 463 c 0
 391 450 396 438 403 427 c 1
 411 411 423 397 437 383 c 0
 459 360 480 335 498 309 c 1
 508 292 518 275 518 255 c 0
 518 230 503 208 487 189 c 0
 460 156 426 129 392 103 c 1
 439 83 499 58 541 58 c 0
 565 58 588 67 609 78 c 0
 637 92 663 112 686 133 c 1
EndSplineSet
EndChar

StartChar: u1D518
Encoding: 120088 120088 181
Width: 758
Flags: MW
HStem: -27 75<311.5 387.5> 677 20<266 266>
VStem: 92 93 202 75<231.5 304.5> 526 82<250 261 261 308>
LayerCount: 2
Fore
SplineSet
523 120 m 1
 399 -6 l 1
 380 -19 359 -27 336 -27 c 0
 287 -27 241 -11 196 5 c 0
 155 20 109 37 69 37 c 0
 59 37 50 31 44 26 c 0
 30 17 20 6 10 -6 c 1
 -1 11 l 1
 86 101 l 1
 112 103 140 129 161 149 c 0
 190 176 202 213 202 250 c 0
 202 269 195 287 189 304 c 1
 178 330 165 354 149 378 c 0
 124 418 92 471 92 506 c 0
 92 526 102 545 114 562 c 0
 132 588 155 611 179 633 c 0
 205 657 233 680 266 697 c 1
 277 681 l 1
 260 670 245 657 231 644 c 0
 204 620 184 588 184 554 c 0
 184 522 206 481 224 447 c 1
 240 419 254 390 264 361 c 0
 271 338 277 316 277 293 c 0
 277 267 272 241 260 218 c 1
 150 106 l 1
 182 106 226 92 260 80 c 1
 296 66 348 48 371 48 c 0
 404 48 433 68 457 90 c 0
 482 113 512 141 521 165 c 0
 526 181 526 221 526 250 c 0
 526 366 524 481 516 596 c 1
 654 686 l 1
 671 676 l 1
 652 658 634 637 626 612 c 1
 608 564 608 513 608 463 c 2
 608 261 l 2
 608 239 609 218 614 197 c 0
 622 159 632 120 660 90 c 1
 668 83 677 79 688 79 c 0
 714 79 742 94 753 101 c 1
 753 80 l 1
 596 -27 l 1
 523 120 l 1
EndSplineSet
EndChar

StartChar: u1D519
Encoding: 120089 120089 182
Width: 951
Flags: MW
HStem: -27 59<565 641> 90 64<244 269 244 275> 628 58
VStem: 47 75 146 81 401 93 730 106
LayerCount: 2
Fore
SplineSet
430 224 m 1
 328 151 l 1
 371 148 403 129 471 90 c 0
 542 49 596 32 627 32 c 0
 655 32 682 39 703 57 c 1
 718 72 724 92 728 111 c 0
 736 143 738 175 738 207 c 0
 738 231 735 264 731 293 c 1
 729 326 726 360 726 394 c 0
 726 417 730 441 738 463 c 1
 819 548 l 1
 787 548 759 564 731 580 c 1
 702 598 670 617 633 617 c 0
 602 617 561 581 561 581 c 1
 531 554 507 522 489 486 c 1
 489 386 474 304 430 224 c 1
541 601 m 0
 565 626 594 647 626 664 c 0
 648 676 672 686 697 686 c 0
 736 686 771 670 801 649 c 1
 842 622 872 617 889 617 c 0
 899 617 909 619 918 623 c 1
 918 607 l 1
 900 596 885 583 871 569 c 1
 832 534 808 487 808 436 c 0
 808 402 813 369 819 335 c 0
 826 296 836 239 836 218 c 0
 836 187 828 156 813 128 c 0
 801 106 788 86 766 71 c 2
 639 -14 l 2
 624 -25 601 -27 581 -27 c 0
 549 -27 498 -18 419 26 c 0
 397 38 299 90 251 90 c 0
 197 90 151 63 117 26 c 1
 105 42 l 1
 146 85 192 124 244 154 c 1
 294 154 339 180 366 218 c 0
 382 240 388 265 392 291 c 0
 399 328 403 365 403 403 c 0
 402 455 389 513 360 551 c 0
 330 589 282 623 231 623 c 0
 188 623 160 614 139 596 c 1
 128 588 122 573 122 552 c 0
 122 528 148 493 164 476 c 0
 177 462 198 439 208 422 c 0
 215 411 222 394 222 384 c 0
 222 355 207 332 188 312 c 0
 164 287 124 266 89 250 c 1
 72 261 l 1
 92 271 111 287 125 303 c 0
 136 315 142 327 142 342 c 0
 142 352 135 361 128 369 c 0
 118 382 105 399 94 412 c 0
 69 440 49 464 49 502 c 0
 49 542 74 572 105 600 c 0
 131 624 202 686 304 686 c 0
 354 686 401 652 434 615 c 0
 452 594 471 555 481 526 c 1
 495 548 511 570 541 601 c 0
EndSplineSet
EndChar

StartChar: u1D51A
Encoding: 120090 120090 183
Width: 1175
Flags: MW
HStem: -28 71 628 58
VStem: 42 76 136 81 385 87 669 75 973 90
LayerCount: 2
Fore
SplineSet
983 485 m 2
 1047 548 l 1
 1028 548 992 570 966 585 c 0
 937 602 907 617 873 617 c 0
 849 617 827 607 809 594 c 0
 781 573 763 556 743 530 c 1
 746 497 748 462 748 427 c 0
 748 348 739 271 716 200 c 1
 701 181 655 125 630 101 c 1
 677 101 756 68 815 42 c 0
 833 35 852 32 873 32 c 0
 908 32 936 47 954 74 c 0
 966 92 973 119 973 186 c 0
 973 225 970 265 966 303 c 0
 963 332 960 362 960 391 c 0
 960 430 965 454 971 468 c 0
 974 474 979 480 983 485 c 2
391 191 m 1
 345 157 303 132 262 110 c 1
 311 75 375 42 437 42 c 0
 501 42 561 70 606 112 c 0
 633 136 644 171 653 205 c 0
 666 256 669 309 669 362 c 0
 669 414 662 466 638 514 c 0
 620 551 589 589 548 605 c 1
 518 580 486 554 463 525 c 1
 465 516 471 487 471 476 c 0
 471 461 466 389 451 328 c 0
 439 280 422 233 391 191 c 1
454 551 m 1
 466 564 l 1
 512 610 563 649 617 686 c 1
 674 656 717 590 734 559 c 1
 768 593 805 626 847 653 c 0
 872 670 899 686 931 686 c 0
 949 686 967 681 983 674 c 1
 1008 665 1031 652 1053 639 c 0
 1072 627 1094 620 1117 620 c 0
 1131 620 1144 623 1158 628 c 1
 1151 607 l 1
 1116 583 1083 557 1064 522 c 1
 1050 494 1048 468 1048 434 c 0
 1048 411 1050 389 1053 367 c 0
 1059 316 1064 264 1064 213 c 0
 1064 188 1062 163 1054 139 c 0
 1047 121 1039 105 1023 92 c 0
 978 52 926 17 873 -14 c 1
 852 -20 830 -25 808 -25 c 0
 775 -25 742 -18 711 -6 c 0
 658 15 601 37 548 37 c 1
 504 18 460 -2 420 -27 c 1
 414 -27 408 -28 402 -28 c 0
 353 -28 304 -12 264 11 c 0
 235 28 196 48 170 48 c 0
 157 48 133 40 120 32 c 0
 97 18 78 6 58 -11 c 1
 42 5 l 1
 83 48 127 87 177 122 c 1
 180 122 l 2
 231 122 280 142 316 175 c 0
 343 200 357 233 367 267 c 1
 381 310 384 356 385 402 c 1
 384 454 371 513 341 551 c 0
 311 589 264 623 212 623 c 0
 169 623 141 615 119 596 c 0
 106 585 104 576 104 554 c 0
 104 524 130 493 146 476 c 0
 158 462 179 439 189 422 c 0
 196 411 204 394 204 384 c 0
 204 355 188 332 169 312 c 0
 145 287 105 266 70 250 c 1
 53 261 l 1
 73 271 92 287 106 303 c 0
 117 315 123 327 123 342 c 0
 123 352 116 361 109 369 c 1
 100 382 86 399 75 412 c 0
 50 440 30 464 30 502 c 0
 30 542 56 572 86 600 c 0
 112 624 184 686 286 686 c 0
 336 686 383 652 415 615 c 0
 431 598 444 575 454 551 c 1
EndSplineSet
EndChar

StartChar: u1D51B
Encoding: 120091 120091 184
Width: 834
Flags: W
HStem: -27 80<567.5 665.5> -22 70<125.5 223.5> 325 42<197 389 616 616> 333 34<357 389>
VStem: 389 75<317 333 367 385>
LayerCount: 2
Fore
SplineSet
108 527 m 1x18
 269 686 l 1
 317 684 366 670 400 639 c 0
 414 626 424 609 432 593 c 0
 444 568 451 542 459 516 c 1
 475 547 496 577 522 601 c 0
 564 639 610 669 664 689 c 1
 677 666 688 642 701 620 c 0
 704 613 708 607 714 601 c 0
 724 593 736 588 749 588 c 0
 761 588 780 597 796 604 c 1
 796 585 l 1
 685 527 l 1
 663 536 644 549 627 564 c 0
 610 579 586 602 580 616 c 1
 564 606 547 593 535 579 c 0
 517 556 501 528 489 500 c 0
 471 458 464 413 464 367 c 1
 656 367 l 1x18
 616 325 l 1x28
 566 331 514 332 464 333 c 1
 464 292 467 251 476 218 c 0
 488 171 508 125 546 90 c 0
 572 66 607 53 644 53 c 0
 687 53 725 74 760 96 c 1
 760 74 l 1
 639 -16 l 1
 621 -21 598 -27 586 -27 c 0x98
 549 -27 513 -13 487 11 c 0
 446 49 424 101 412 154 c 1
 366 112 l 2
 330 79 292 47 250 21 c 0
 230 9 210 -2 189 -11 c 0
 175 -16 160 -22 145 -22 c 0
 106 -22 73 2 52 32 c 1
 117 101 l 1
 133 70 165 48 203 48 c 0
 244 48 282 69 310 95 c 0
 355 136 371 194 384 250 c 0
 388 270 389 301 389 333 c 1x58
 325 333 262 333 197 325 c 1x28
 238 367 l 1
 389 367 l 1
 389 403 389 438 384 474 c 1
 378 508 365 536 338 561 c 0
 319 579 294 594 267 594 c 0
 232 594 205 587 180 564 c 0
 161 547 140 527 126 512 c 1
 108 527 l 1x18
EndSplineSet
EndChar

StartChar: u1D51C
Encoding: 120092 120092 185
Width: 958
Flags: MW
HStem: -219 48<400 508> -22 80 628 58
VStem: 51 82 156 75 405 87 742 87<306.5 350>
LayerCount: 2
Fore
SplineSet
406 397 m 0
 406 450 394 511 363 551 c 0
 333 589 285 623 234 623 c 0
 191 623 158 610 140 596 c 0
 125 584 124 572 124 551 c 0
 124 530 151 493 167 476 c 0
 180 462 201 439 211 422 c 0
 218 411 225 394 225 384 c 0
 225 355 210 332 190 312 c 1
 167 287 126 266 92 250 c 1
 75 261 l 1
 94 271 114 287 128 303 c 0
 139 315 145 327 145 342 c 0
 145 352 137 361 131 369 c 0
 121 382 108 399 97 412 c 0
 72 440 52 464 52 502 c 0
 52 542 77 572 108 600 c 0
 134 624 205 686 307 686 c 0
 357 686 404 652 437 615 c 0
 455 594 470 566 480 537 c 1
 486 542 l 1
 515 569 547 594 580 617 c 1
 616 644 654 668 695 686 c 1
 727 650 769 622 812 596 c 1
 829 516 829 426 829 341 c 0
 829 272 823 204 811 137 c 0
 801 84 786 32 758 -16 c 1
 710 -83 643 -136 568 -176 c 0
 521 -200 471 -219 416 -219 c 0
 384 -219 353 -213 324 -200 c 1
 302 -189 281 -172 271 -149 c 1
 344 -78 l 1
 354 -78 l 1
 366 -128 417 -171 475 -171 c 0
 541 -171 580 -150 622 -111 c 0
 649 -87 672 -47 690 -16 c 1
 711 25 721 70 728 115 c 0
 739 181 742 247 742 314 c 0
 742 386 738 458 713 527 c 1
 684 556 654 586 614 601 c 1
 606 598 532 566 488 512 c 1
 491 498 492 482 492 468 c 0
 490 377 473 285 416 207 c 1
 289 115 l 1
 315 108 347 94 371 83 c 0
 398 70 428 58 457 58 c 0
 495 58 526 81 550 106 c 1
 560 90 l 1
 535 60 510 31 480 5 c 0
 465 -7 445 -21 424 -21 c 0
 392 -21 342 2 308 20 c 0
 267 41 225 54 199 54 c 0
 149 54 101 22 62 -4 c 1
 50 11 l 1
 90 50 140 89 183 124 c 1
 206 124 239 124 257 122 c 1
 277 132 306 154 330 175 c 0
 357 200 374 233 386 267 c 1
 399 309 406 353 406 397 c 0
EndSplineSet
EndChar

StartChar: uni2128
Encoding: 8488 8488 186
Width: 715
Flags: MW
HStem: -139 32 -16 53 319 56 597 74 709 20<206 223 223 223>
VStem: 154 93 513 99<153 170.5>
LayerCount: 2
Fore
SplineSet
229 309 m 1
 276 372 l 1
 324 375 364 400 398 431 c 0
 430 461 450 501 450 543 c 0
 450 557 444 570 433 580 c 0
 415 595 392 601 368 601 c 0
 343 601 318 598 293 596 c 0
 264 594 210 591 206 591 c 0
 183 591 159 592 143 607 c 0
 135 614 131 623 131 633 c 1
 206 729 l 1
 223 729 l 1
 219 722 215 713 215 705 c 0
 215 698 217 691 223 686 c 0
 241 671 277 671 305 671 c 0
 314 671 348 672 368 673 c 0
 386 673 403 676 421 676 c 0
 440 676 460 675 478 671 c 0
 492 668 505 663 513 655 c 0
 531 639 543 619 543 596 c 0
 543 546 518 499 478 463 c 0
 441 429 398 398 355 374 c 1
 361 372 l 1
 378 375 404 378 421 378 c 0
 487 378 557 361 595 309 c 1
 607 272 612 235 612 197 c 0
 612 109 579 25 525 -48 c 1
 450 -105 356 -139 258 -139 c 0
 223 -139 188 -136 154 -128 c 1
 154 -103 154 -67 153 -54 c 1
 151 -44 150 -34 143 -27 c 0
 135 -20 124 -16 113 -16 c 0
 101 -16 74 -30 57 -42 c 1
 44 -27 l 1
 69 -8 96 8 124 21 c 1
 147 30 170 37 194 37 c 0
 211 37 232 37 241 21 c 0
 246 11 246 -21 246 -43 c 0
 246 -60 246 -82 258 -93 c 0
 270 -104 296 -109 314 -109 c 0
 364 -109 400 -94 435 -62 c 0
 462 -37 483 2 494 35 c 0
 508 75 513 117 513 159 c 0
 513 182 511 205 505 227 c 1
 499 243 492 259 478 271 c 0
 442 305 391 319 340 319 c 0
 305 319 271 312 241 298 c 1
 229 309 l 1
EndSplineSet
EndChar

StartChar: u1D51E
Encoding: 120094 120094 187
Width: 603
Flags: MW
HStem: -36 92 392 79
VStem: 98 88 389 82
LayerCount: 2
Fore
SplineSet
389 91 m 1
 199 -36 l 1
 166 -4 134 30 104 65 c 1
 102 95 101 126 101 156 c 0
 101 226 107 297 123 365 c 1
 308 471 l 1
 338 452 373 438 409 431 c 1
 482 465 l 1
 491 459 l 1
 480 392 474 324 474 256 c 0
 474 210 474 165 475 119 c 1
 515 74 l 1
 538 81 549 87 565 96 c 1
 572 83 l 1
 438 -27 l 1
 392 46 l 1
 389 91 l 1
389 119 m 1
 388 365 l 1
 337 365 284 378 233 392 c 1
 207 367 201 330 195 295 c 1
 191 264 189 233 189 201 c 0
 189 174 190 148 192 121 c 1
 206 104 235 77 257 56 c 0
 259 55 262 55 265 55 c 0
 281 55 324 78 389 119 c 1
EndSplineSet
EndChar

StartChar: u1D51F
Encoding: 120095 120095 188
Width: 619
Flags: MW
HStem: -31 73 386 84 673 13
VStem: 129 95 429 83
LayerCount: 2
Fore
SplineSet
179 599 m 1
 310 686 l 1
 329 673 l 2
 328 673 307 656 296 647 c 0
 248 609 231 556 227 499 c 1
 225 456 225 407 225 365 c 1
 233 363 l 1
 282 401 333 440 385 470 c 1
 427 448 469 427 513 409 c 1
 515 377 516 345 516 313 c 0
 516 241 510 168 494 97 c 1
 415 50 333 5 246 -31 c 1
 205 2 152 46 126 71 c 1
 141 144 141 228 141 307 c 0
 141 428 140 548 134 668 c 1
 152 672 l 1
 171 595 l 1
 179 599 l 1
226 332 m 1
 226 123 l 1
 261 90 313 42 343 42 c 0
 360 42 374 53 386 64 c 0
 404 81 411 103 417 125 c 0
 426 159 428 193 428 227 c 0
 428 268 428 299 423 340 c 1
 414 352 388 364 331 386 c 1
 297 382 256 353 226 332 c 1
EndSplineSet
EndChar

StartChar: u1D520
Encoding: 120096 120096 189
Width: 488
Flags: MW
HStem: -29 87 390 76
VStem: 114 94
LayerCount: 2
Fore
SplineSet
428 92 m 1
 240 -29 l 1
 197 5 158 44 121 84 c 1
 117 129 115 173 115 218 c 0
 115 247 115 307 128 363 c 1
 308 466 l 1
 351 463 390 444 426 422 c 1
 369 343 l 1
 359 340 l 1
 323 369 269 394 228 394 c 1
 209 364 205 295 205 246 c 0
 205 211 208 177 213 147 c 1
 233 118 271 86 305 58 c 1
 340 68 382 89 419 109 c 1
 428 92 l 1
EndSplineSet
EndChar

StartChar: u1D521
Encoding: 120097 120097 190
Width: 606
Flags: MW
HStem: -34 84 546 64
VStem: 119 83 414 87
LayerCount: 2
Fore
SplineSet
473 109 m 1
 269 -34 l 1
 215 0 161 35 119 81 c 1
 117 111 116 138 116 166 c 0
 116 210 118 259 122 335 c 1
 168 375 218 418 266 447 c 1
 287 443 l 1
 236 393 224 366 216 346 c 0
 206 323 202 290 202 254 c 0
 202 215 206 171 209 135 c 1
 224 119 241 106 258 94 c 0
 283 78 310 64 337 51 c 0
 340 50 342 49 345 49 c 0
 351 49 357 52 362 59 c 0
 392 103 408 154 413 205 c 0
 416 226 417 246 417 267 c 0
 417 311 412 355 403 399 c 1
 361 440 314 478 261 508 c 0
 225 529 184 546 141 546 c 0
 132 546 118 546 115 545 c 2
 64 527 l 1
 50 543 l 1
 97 567 152 591 201 612 c 1
 299 600 410 524 501 455 c 1
 502 437 505 380 505 328 c 0
 505 297 503 267 501 249 c 0
 497 201 493 153 473 109 c 1
EndSplineSet
EndChar

StartChar: u1D522
Encoding: 120098 120098 191
Width: 500
Flags: MW
HStem: -31 92 399 68
VStem: 107 93 344 90
LayerCount: 2
Fore
SplineSet
128 366 m 1
 305 467 l 1
 341 425 385 389 433 358 c 1
 358 292 264 212 201 166 c 1
 201 157 204 148 206 140 c 0
 210 126 272 79 316 61 c 1
 320 62 335 62 341 64 c 2
 421 103 l 1
 427 87 l 1
 368 45 307 5 242 -31 c 1
 199 6 155 43 118 85 c 1
 114 119 112 154 112 188 c 0
 112 248 118 307 128 366 c 1
198 193 m 1
 248 227 304 271 346 312 c 1
 304 336 263 365 228 396 c 0
 228 397 227 397 226 397 c 0
 218 397 211 375 209 369 c 0
 199 337 198 246 198 193 c 1
EndSplineSet
EndChar

StartChar: u1D523
Encoding: 120099 120099 192
Width: 426
Flags: W
HStem: 351 35<89 169 89 170 73 169>
VStem: 139 43<521 574.5> 170 95<351 351> 171 89<111.5 135.5>
LayerCount: 2
Fore
SplineSet
265 351 m 1xa0
 260 145 l 1
 260 78 260 -6 246 -53 c 0
 235 -87 219 -120 199 -150 c 1
 144 -238 l 1
 124 -231 l 1
 133 -204 145 -167 152 -141 c 1
 160 -118 165 -93 168 -69 c 1
 170 -34 171 62 171 128 c 0x90
 171 143 171 275 170 351 c 1xa0
 73 351 l 1
 89 386 l 1
 169 386 l 1
 169 387 159 431 153 453 c 0
 147 478 139 514 139 528 c 0
 139 572 165 609 199 640 c 0
 214 654 231 667 249 679 c 1
 295 679 350 672 385 639 c 1
 333 547 l 1
 322 546 l 1
 314 563 303 579 289 592 c 1
 274 604 256 615 237 615 c 0
 223 615 206 612 195 603 c 1
 185 593 182 581 182 568 c 0xc0
 182 551 195 527 205 509 c 2
 259 414 l 1
 265 406 267 397 269 388 c 1
 393 388 l 1
 380 351 l 1
 265 351 l 1xa0
EndSplineSet
EndChar

StartChar: u1D524
Encoding: 120100 120100 193
Width: 611
Flags: MW
HStem: -209 74<296.5 367> 389 81
VStem: 118 85 408 86
LayerCount: 2
Fore
SplineSet
52 -131 m 1
 101 -100 150 -63 198 -24 c 1
 120 65 l 1
 117 99 116 134 116 168 c 0
 116 235 121 302 132 368 c 1
 190 405 248 438 308 470 c 1
 345 447 389 434 433 425 c 1
 511 465 l 1
 518 459 l 1
 502 430 500 397 498 365 c 0
 494 310 494 222 494 150 c 0
 494 136 496 122 499 109 c 2
 531 -17 l 1
 475 -81 417 -144 353 -201 c 1
 340 -205 323 -209 314 -209 c 0
 279 -209 245 -200 214 -188 c 0
 173 -172 136 -150 102 -125 c 1
 64 -144 l 1
 52 -131 l 1
407 97 m 1
 334 50 263 -2 195 -55 c 1
 220 -78 248 -100 279 -115 c 0
 303 -127 329 -135 356 -135 c 0
 378 -135 399 -125 414 -111 c 0
 430 -95 437 -66 437 -45 c 0
 437 -23 420 50 407 97 c 1
283 41 m 1
 405 123 l 1
 405 199 408 276 415 351 c 1
 352 359 275 372 223 394 c 1
 206 354 204 304 204 260 c 0
 204 215 205 169 209 124 c 1
 225 95 256 64 283 41 c 1
EndSplineSet
EndChar

StartChar: u1D525
Encoding: 120101 120101 194
Width: 628
Flags: MW
HStem: -206 21 -26 21<176 176> 390 88 669 20<291.5 292>
VStem: 119 93 417 90
LayerCount: 2
Fore
SplineSet
282 -184 m 1
 351 -129 l 1
 363 -121 372 -110 380 -98 c 1
 398 -64 405 -26 410 11 c 0
 419 71 421 132 421 193 c 0
 421 221 415 300 410 354 c 1
 382 373 350 390 314 390 c 0
 280 390 239 361 212 341 c 1
 206 126 l 1
 265 49 l 1
 176 -26 l 1
 116 65 l 1
 124 187 128 309 128 431 c 0
 128 512 127 594 121 675 c 1
 134 677 l 1
 161 601 l 1
 204 631 291 689 292 689 c 2
 311 678 l 1
 220 601 213 536 213 481 c 2
 212 371 l 1
 248 397 319 443 373 478 c 1
 409 448 454 430 500 417 c 1
 504 360 507 303 507 246 c 0
 507 192 505 137 500 84 c 1
 495 45 490 6 478 -31 c 1
 429 -97 366 -150 300 -198 c 1
 282 -184 l 1
EndSplineSet
EndChar

StartChar: u1D526
Encoding: 120102 120102 195
Width: 375
Flags: MW
HStem: -21 101 391 84 556 119
VStem: 143 83
LayerCount: 2
Fore
SplineSet
73 369 m 1
 59 382 l 1
 96 410 136 443 173 475 c 1
 194 455 214 436 238 420 c 1
 231 360 230 300 230 239 c 0
 230 200 231 160 235 128 c 0
 237 109 256 88 270 75 c 1
 274 75 281 76 284 78 c 0
 301 85 320 96 328 102 c 1
 335 83 l 1
 293 46 247 11 201 -21 c 1
 142 55 l 1
 145 108 146 148 146 194 c 0
 146 252 145 308 141 367 c 1
 119 391 l 1
 107 387 87 379 73 369 c 1
247 616 m 1
 185 556 l 1
 162 575 141 596 122 617 c 1
 144 637 168 654 187 675 c 1
 207 654 231 628 247 616 c 1
EndSplineSet
EndChar

StartChar: u1D527
Encoding: 120103 120103 196
Width: 380
Flags: MW
HStem: -208 21 387 88 555 118<184 191>
VStem: 177 86
LayerCount: 2
Fore
SplineSet
231 -44 m 0
 182 -99 124 -151 55 -202 c 1
 38 -184 l 1
 69 -162 101 -139 128 -113 c 0
 142 -100 151 -83 157 -66 c 1
 173 -10 176 113 176 203 c 0
 176 253 176 322 165 352 c 0
 159 369 138 389 131 389 c 0
 128 389 123 387 122 386 c 2
 90 367 l 1
 75 380 l 1
 190 475 l 1
 214 459 238 441 261 422 c 1
 261 370 260 154 255 26 c 0
 254 1 249 -25 231 -44 c 0
247 615 m 1
 184 555 l 1
 164 570 144 595 125 616 c 1
 191 673 l 1
 209 652 226 633 247 615 c 1
EndSplineSet
EndChar

StartChar: u1D528
Encoding: 120104 120104 197
Width: 490
Flags: MW
HStem: 308 35<75 141 65 142 227 246 312 400>
VStem: 141 86<128 308 128 308 128 308> 353 78<434 491.5>
LayerCount: 2
Fore
SplineSet
420 110 m 1
 434 95 l 1
 387 58 313 13 251 -26 c 1
 135 69 l 1
 139 88 141 109 141 127 c 2
 141 308 l 1
 65 308 l 1
 75 343 l 1
 142 343 l 1
 142 570 141 605 135 669 c 1
 153 673 l 1
 162 649 173 594 173 593 c 1
 217 625 266 661 314 686 c 1
 332 676 l 1
 303 652 271 624 259 603 c 1
 238 571 230 534 227 498 c 1
 273 530 318 555 366 585 c 1
 384 569 400 551 414 531 c 1
 423 516 431 500 431 483 c 0
 431 465 420 447 406 434 c 2
 312 343 l 1
 416 343 l 1
 400 308 l 1
 227 308 l 1
 227 128 l 1
 253 104 286 80 317 60 c 1
 352 76 389 89 420 110 c 1
227 343 m 1
 265 343 297 356 322 383 c 0
 338 401 353 422 353 446 c 0
 353 459 346 470 339 481 c 0
 329 495 315 507 301 518 c 1
 279 508 259 495 246 476 c 0
 236 460 233 442 230 424 c 0
 227 399 227 370 227 343 c 1
EndSplineSet
EndChar

StartChar: u1D529
Encoding: 120105 120105 198
Width: 371
Flags: MW
HStem: -20 95 666 20<324 324>
VStem: 147 88
LayerCount: 2
Fore
SplineSet
324 686 m 1
 341 673 l 1
 317 654 294 637 277 613 c 0
 239 559 238 507 238 391 c 0
 238 301 239 212 240 122 c 1
 250 108 268 93 286 81 c 1
 301 85 317 95 329 104 c 1
 341 87 l 1
 200 -20 l 1
 145 56 l 1
 152 164 153 273 153 382 c 0
 153 478 153 573 147 668 c 1
 166 672 l 1
 184 594 l 1
 324 686 l 1
EndSplineSet
EndChar

StartChar: u1D52A
Encoding: 120106 120106 199
Width: 884
Flags: MW
HStem: -23 18 388 86
VStem: 118 87 397 76 654 86
LayerCount: 2
Fore
SplineSet
205 376 m 1
 343 475 l 1
 385 452 428 432 474 418 c 1
 474 379 l 1
 522 409 570 440 615 474 c 1
 657 453 707 428 746 418 c 1
 742 361 744 304 743 247 c 2
 742 126 l 1
 754 110 767 93 782 79 c 1
 804 86 813 89 833 105 c 1
 847 88 l 1
 709 -19 l 1
 699 0 667 35 645 60 c 1
 652 102 657 135 657 274 c 0
 657 300 656 324 654 342 c 0
 653 348 652 354 645 357 c 0
 615 374 580 383 545 391 c 1
 520 379 497 367 474 353 c 1
 474 135 l 2
 474 127 474 118 478 113 c 0
 478 112 511 68 528 47 c 1
 435 -26 l 1
 421 0 395 26 376 46 c 1
 386 85 391 127 391 248 c 0
 391 281 390 314 386 347 c 1
 358 369 308 382 271 391 c 1
 205 349 l 1
 205 152 l 2
 205 136 205 112 210 106 c 0
 210 105 242 67 258 48 c 1
 168 -22 l 1
 114 58 l 1
 120 98 122 138 122 177 c 0
 122 240 121 302 118 365 c 1
 89 391 l 1
 42 367 l 1
 29 379 l 1
 150 472 l 1
 169 455 205 421 205 420 c 2
 205 376 l 1
EndSplineSet
EndChar

StartChar: u1D52B
Encoding: 120107 120107 200
Width: 633
Flags: MW
HStem: -23 21<176 176> 384 86
VStem: 122 101 401 102
LayerCount: 2
Fore
SplineSet
224 367 m 1
 381 475 l 1
 419 451 460 432 504 417 c 1
 499 374 494 315 494 253 c 1
 499 127 l 1
 508 114 517 100 528 87 c 0
 531 83 536 82 542 82 c 0
 543 82 550 85 553 87 c 2
 587 109 l 1
 599 93 l 1
 461 -19 l 1
 401 65 l 1
 408 100 410 146 410 195 c 0
 410 249 407 306 405 358 c 1
 373 373 330 382 294 385 c 1
 224 341 l 1
 219 134 l 2
 219 124 224 110 227 106 c 2
 270 52 l 1
 176 -23 l 1
 160 2 143 25 122 46 c 1
 131 92 134 150 134 211 c 0
 134 263 132 316 130 365 c 1
 104 388 l 1
 66 368 l 1
 51 380 l 1
 88 410 164 470 165 470 c 0
 178 457 203 439 224 425 c 1
 224 367 l 1
EndSplineSet
EndChar

StartChar: u1D52C
Encoding: 120108 120108 201
Width: 594
Flags: MW
HStem: -28 71 398 83
VStem: 105 81 403 86
LayerCount: 2
Fore
SplineSet
214 -28 m 1
 176 2 137 34 106 68 c 1
 106 157 112 266 126 364 c 1
 192 399 256 439 318 481 c 1
 367 451 420 426 479 415 c 1
 483 377 485 340 485 302 c 0
 485 231 478 161 461 92 c 1
 382 46 300 4 214 -28 c 1
327 44 m 0
 333 44 345 57 351 63 c 0
 376 91 385 130 391 170 c 0
 399 232 399 259 399 356 c 1
 349 359 285 381 236 401 c 1
 221 379 215 366 206 329 c 0
 198 299 195 254 195 211 c 0
 195 178 197 147 201 123 c 1
 220 102 240 83 264 68 c 0
 284 56 304 47 327 44 c 0
EndSplineSet
EndChar

StartChar: u1D52D
Encoding: 120109 120109 202
Width: 609
Flags: MW
HStem: -212 21 37 68 388 90 518 20<172 172>
VStem: 131 86<19.5 347> 419 88
LayerCount: 2
Fore
SplineSet
220 -170 m 1
 133 -214 l 1
 121 -207 l 1
 125 -124 131 -8 131 47 c 1
 106 47 81 40 61 24 c 1
 49 38 l 1
 76 61 117 95 132 105 c 1
 132 352 l 1
 118 370 87 407 87 408 c 0
 84 412 82 417 82 422 c 0
 82 430 85 437 90 444 c 0
 112 478 141 510 172 538 c 1
 188 529 l 1
 177 517 168 503 168 487 c 0
 168 474 173 461 181 449 c 0
 191 433 204 419 218 406 c 0
 218 405 217 384 216 372 c 1
 269 405 320 441 371 478 c 1
 409 450 454 430 499 414 c 1
 502 370 505 326 505 282 c 0
 505 260 504 238 503 216 c 0
 500 173 496 129 480 89 c 1
 334 -18 l 1
 299 8 260 30 216 37 c 1
 216 -32 217 -101 220 -170 c 1
217 347 m 1
 217 106 l 1
 261 106 335 76 389 52 c 1
 406 82 416 135 416 230 c 0
 416 271 414 312 410 353 c 1
 383 366 339 381 306 391 c 1
 274 380 246 364 217 347 c 1
EndSplineSet
EndChar

StartChar: u1D52E
Encoding: 120110 120110 203
Width: 595
Flags: MW
HStem: -219 21 -29 87 398 79
VStem: 99 86<136.5 219.5> 382 100
LayerCount: 2
Fore
SplineSet
477 -179 m 1
 387 -224 l 1
 374 -214 l 1
 379 -116 383 -6 383 93 c 1
 322 47 260 9 194 -29 c 1
 102 65 l 1
 100 94 99 122 99 151 c 0
 99 224 106 298 124 369 c 1
 186 400 249 432 304 473 c 1
 335 455 369 439 405 432 c 1
 481 480 l 1
 490 473 l 1
 474 388 469 253 469 141 c 0
 469 34 469 -74 477 -179 c 1
273 50 m 1
 298 63 348 98 383 121 c 1
 383 201 383 287 388 367 c 1
 332 370 278 383 224 398 c 1
 209 373 201 344 196 316 c 0
 188 278 185 239 185 200 c 0
 185 181 185 147 186 144 c 1
 186 137 187 130 193 125 c 0
 217 103 248 71 273 50 c 1
EndSplineSet
EndChar

StartChar: u1D52F
Encoding: 120111 120111 204
Width: 489
Flags: MW
HStem: -21 81<256 316> 381 93
VStem: 143 93
LayerCount: 2
Fore
SplineSet
236 382 m 1
 355 469 l 1
 366 451 379 433 394 417 c 0
 403 408 414 398 427 398 c 0
 439 398 458 408 468 413 c 1
 468 400 l 1
 403 345 l 2
 393 337 380 335 367 335 c 0
 354 335 341 340 331 346 c 0
 313 356 292 371 277 384 c 1
 259 372 243 359 236 350 c 1
 236 152 l 2
 236 136 247 123 257 111 c 0
 274 92 294 75 316 60 c 1
 413 102 l 1
 415 83 l 1
 256 -21 l 1
 215 8 179 41 143 75 c 1
 150 134 150 184 150 245 c 0
 150 271 150 299 149 322 c 0
 147 354 140 365 140 365 c 1
 130 373 119 380 108 387 c 1
 67 371 l 1
 54 381 l 1
 164 474 l 1
 187 453 211 433 236 414 c 1
 236 382 l 1
EndSplineSet
EndChar

StartChar: u1D530
Encoding: 120112 120112 205
Width: 548
Flags: MW
HStem: -30 65 47 64<99 176> 234 66 404 75
VStem: 113 82 362 83
LayerCount: 2
Fore
SplineSet
248 244 m 2
 382 300 l 1
 406 293 425 278 443 262 c 1
 445 236 447 210 447 185 c 0
 447 139 442 94 429 50 c 1
 370 26 310 1 255 -30 c 1
 231 -9 205 11 175 27 c 0
 157 37 137 47 115 47 c 0
 83 47 53 31 19 3 c 1
 8 12 l 1
 25 28 65 67 89 88 c 0
 109 105 136 111 162 111 c 0
 190 111 217 103 241 89 c 2
 329 35 l 2
 330 34 331 34 333 34 c 0
 340 34 346 39 350 48 c 1
 359 78 362 109 362 140 c 0
 362 165 358 203 347 214 c 0
 332 231 318 236 305 236 c 0
 289 236 281 233 267 226 c 2
 156 168 l 1
 139 187 122 213 109 235 c 1
 109 284 110 332 115 377 c 1
 281 479 l 1
 370 433 l 2
 378 429 387 427 398 427 c 0
 423 427 448 440 476 457 c 1
 483 441 l 1
 382 363 l 1
 304 367 245 390 217 415 c 1
 195 396 195 359 195 336 c 0
 195 311 197 286 208 263 c 0
 212 254 218 242 230 242 c 0
 236 242 243 242 248 244 c 2
EndSplineSet
EndChar

StartChar: u1D531
Encoding: 120113 120113 206
Width: 430
Flags: MW
HStem: 351 35<85 164 85 166 67 164 252 350 252 252>
VStem: 164 86
LayerCount: 2
Fore
SplineSet
288 641 m 1
 303 627 l 1
 273 601 l 2
 268 596 265 589 264 582 c 0
 252 518 251 451 251 386 c 1
 368 386 l 1
 350 351 l 1
 252 351 l 1
 253 123 l 1
 275 105 301 84 321 73 c 0
 327 70 333 68 340 68 c 0
 356 68 380 77 416 100 c 1
 420 78 l 1
 270 -21 l 1
 164 62 l 2
 164 63 164 254 166 351 c 1
 67 351 l 1
 85 386 l 1
 164 386 l 1
 164 558 l 1
 288 641 l 1
EndSplineSet
EndChar

StartChar: u1D532
Encoding: 120114 120114 207
Width: 624
Flags: MW
HStem: -23 81 396 78<99 162>
VStem: 142 78 399 83
LayerCount: 2
Fore
SplineSet
491 468 m 1
 499 462 l 1
 488 383 485 304 485 225 c 0
 485 193 487 161 491 131 c 1
 494 117 500 103 510 91 c 0
 514 86 521 83 528 83 c 0
 540 83 575 98 586 103 c 1
 593 88 l 1
 547 54 502 19 460 -18 c 1
 451 -16 l 1
 430 16 409 51 395 87 c 1
 322 42 229 -26 229 -26 c 1
 200 -9 133 36 92 48 c 1
 107 70 115 99 122 127 c 0
 132 172 138 218 138 264 c 0
 138 292 138 319 131 346 c 1
 124 364 115 383 99 396 c 1
 58 376 l 1
 41 386 l 1
 162 474 l 1
 180 455 197 436 219 421 c 1
 219 399 220 378 220 356 c 0
 220 325 219 294 218 264 c 0
 216 210 208 156 192 104 c 1
 302 56 l 1
 398 115 l 1
 401 165 402 215 402 264 c 0
 402 316 401 369 399 424 c 1
 491 468 l 1
EndSplineSet
EndChar

StartChar: u1D533
Encoding: 120115 120115 208
Width: 618
Flags: MW
HStem: -28 77 396 81 510 20
VStem: 134 86 424 84
LayerCount: 2
Fore
SplineSet
139 231 m 0
 139 262 137 300 134 345 c 0
 134 353 130 358 125 364 c 0
 115 376 106 382 97 394 c 1
 93 402 90 410 90 418 c 0
 90 424 95 438 98 444 c 1
 121 476 147 506 177 533 c 1
 192 529 l 1
 182 515 175 500 175 483 c 0
 175 473 187 452 195 438 c 1
 201 430 215 418 225 408 c 1
 225 374 l 1
 381 477 l 1
 420 453 461 432 506 416 c 1
 512 350 512 316 512 245 c 0
 512 208 496 126 478 86 c 1
 243 -28 l 1
 209 5 170 37 131 66 c 1
 136 121 139 167 139 231 c 0
225 348 m 1
 221 155 l 2
 221 130 237 108 258 93 c 1
 260 93 286 74 299 64 c 1
 312 56 328 49 345 49 c 0
 359 49 371 58 381 68 c 0
 393 79 400 93 407 108 c 1
 421 148 426 207 426 243 c 0
 426 281 422 320 417 358 c 1
 391 379 358 390 324 396 c 1
 293 394 255 369 225 348 c 1
EndSplineSet
EndChar

StartChar: u1D534
Encoding: 120116 120116 209
Width: 893
Flags: MW
HStem: -28 72<530 624.5> 386 87 513 20<158 158>
VStem: 119 84<181 190 146 230> 385 94 683 93
LayerCount: 2
Fore
SplineSet
478 368 m 1
 633 471 l 1
 678 447 724 425 771 405 c 1
 776 377 778 313 778 268 c 0
 778 175 757 135 734 72 c 1
 530 -28 l 1
 482 -1 433 24 384 46 c 1
 389 105 392 164 392 222 c 0
 392 262 391 302 387 341 c 1
 362 357 326 378 311 385 c 0
 303 388 293 392 285 392 c 0
 280 392 271 390 266 387 c 0
 244 375 225 362 204 348 c 1
 203 314 203 222 203 158 c 0
 203 134 209 109 224 88 c 0
 233 74 244 59 254 48 c 1
 172 -27 l 1
 154 2 134 30 108 52 c 1
 117 103 119 155 119 207 c 0
 119 253 119 299 115 345 c 0
 114 353 111 358 106 364 c 0
 96 376 87 382 79 394 c 0
 74 402 71 410 71 418 c 0
 71 424 76 438 80 444 c 0
 102 476 129 506 158 533 c 1
 173 529 l 1
 163 515 156 500 156 483 c 0
 156 473 168 452 177 438 c 0
 182 430 196 418 206 408 c 1
 206 376 l 1
 253 406 300 437 340 473 c 1
 385 447 432 425 480 405 c 1
 478 368 l 1
566 386 m 1
 541 386 497 353 479 341 c 1
 478 304 476 270 476 235 c 0
 476 209 477 182 480 154 c 1
 481 131 493 110 511 95 c 0
 541 70 575 44 620 44 c 0
 629 44 639 51 646 58 c 0
 665 75 674 103 678 127 c 0
 686 172 688 218 688 264 c 0
 688 292 683 317 675 348 c 1
 643 366 601 381 566 386 c 1
EndSplineSet
EndChar

StartChar: u1D535
Encoding: 120117 120117 210
Width: 489
Flags: MW
HStem: -188 21<173 173> -25 84<268 334> 384 89
VStem: 54 56 164 87
LayerCount: 2
Fore
SplineSet
248 376 m 1
 367 465 l 1
 386 437 413 417 443 398 c 1
 369 339 l 1
 338 353 318 381 304 390 c 1
 288 381 259 357 252 347 c 1
 248 329 246 306 246 289 c 0
 245 234 247 174 251 117 c 1
 272 97 295 79 320 63 c 0
 324 60 330 59 334 59 c 0
 340 60 349 59 358 64 c 2
 427 98 l 1
 430 80 l 1
 268 -25 l 1
 241 3 209 27 176 49 c 1
 158 33 140 16 127 -5 c 0
 117 -20 110 -36 110 -54 c 0
 110 -74 121 -91 136 -105 c 0
 160 -127 211 -136 243 -139 c 1
 243 -148 l 1
 173 -188 l 1
 137 -180 100 -169 73 -144 c 0
 59 -132 50 -115 50 -98 c 0
 50 -73 64 -51 78 -30 c 0
 101 4 123 29 152 59 c 1
 159 101 160 150 160 192 c 0
 160 246 161 300 157 353 c 1
 147 363 134 376 124 381 c 0
 121 383 115 386 113 386 c 0
 110 386 104 384 100 382 c 0
 90 377 69 368 68 368 c 2
 54 377 l 1
 90 411 128 442 168 473 c 1
 195 451 236 416 250 407 c 1
 248 376 l 1
EndSplineSet
EndChar

StartChar: u1D536
Encoding: 120118 120118 211
Width: 605
Flags: MW
HStem: -219 21<276 276> -26 21 391 82<308.5 373> 508 20
VStem: 131 81 416 88
LayerCount: 2
Fore
SplineSet
131 255 m 0
 131 286 131 290 128 336 c 0
 127 344 124 349 119 355 c 0
 109 367 100 374 91 386 c 0
 87 392 84 400 84 410 c 0
 84 414 89 429 92 435 c 1
 115 467 141 497 171 524 c 1
 186 520 l 1
 176 506 168 491 168 474 c 0
 168 464 180 443 189 429 c 0
 195 421 209 409 219 399 c 1
 219 367 l 1
 373 473 l 1
 414 451 454 429 499 414 c 1
 506 354 511 284 511 228 c 0
 511 148 502 54 478 -23 c 0
 464 -69 351 -168 276 -219 c 1
 235 -202 l 1
 272 -185 308 -166 337 -140 c 0
 361 -118 377 -89 387 -60 c 0
 399 -28 405 6 408 39 c 0
 414 89 416 139 416 189 c 0
 416 245 410 301 404 356 c 1
 378 371 346 386 317 391 c 1
 300 391 253 363 219 340 c 1
 219 276 216 259 216 152 c 0
 216 114 233 86 266 48 c 1
 184 -27 l 1
 165 2 142 34 119 52 c 1
 130 113 131 178 131 255 c 0
EndSplineSet
EndChar

StartChar: u1D537
Encoding: 120119 120119 212
Width: 495
Flags: MW
HStem: -215 61<184.5 247.5> 388 83
VStem: 35 86 304 81
LayerCount: 2
Fore
SplineSet
358 -99 m 1
 209 -215 l 1
 160 -215 113 -200 74 -174 c 0
 54 -160 39 -140 35 -116 c 1
 42 -89 93 -25 129 13 c 0
 176 62 219 102 268 147 c 1
 230 163 190 177 148 181 c 1
 148 192 l 1
 149 192 200 236 227 259 c 0
 245 274 265 292 265 315 c 0
 265 338 248 360 228 372 c 1
 215 381 199 388 185 388 c 0
 178 388 174 386 166 382 c 0
 140 368 116 352 93 335 c 1
 81 347 l 1
 130 392 183 434 241 471 c 1
 267 459 294 446 315 427 c 0
 326 418 335 407 342 396 c 0
 347 388 352 379 352 370 c 0
 352 357 345 344 335 334 c 2
 247 247 l 1
 287 234 333 218 369 198 c 1
 381 155 384 109 384 64 c 0
 384 9 374 -46 358 -99 c 1
287 130 m 1
 243 95 199 59 164 16 c 0
 142 -11 121 -40 121 -73 c 0
 121 -90 132 -104 145 -115 c 1
 170 -139 205 -154 242 -154 c 0
 253 -154 259 -150 267 -142 c 0
 277 -132 286 -105 291 -85 c 0
 298 -50 304 -15 304 20 c 0
 304 57 299 94 287 130 c 1
EndSplineSet
EndChar

StartChar: u1D6AA
Encoding: 120490 120490 213
Width: 648
Flags: MW
HStem: -9 21<161 161> 631 61
VStem: 143 135 629 34
LayerCount: 2
Fore
SplineSet
645 692 m 1
 663 511 l 1
 633 508 l 1
 588 586 l 2
 576 606 555 622 528 626 c 0
 489 631 450 633 411 633 c 0
 378 633 345 631 312 630 c 0
 297 629 281 620 281 606 c 1
 277 569 277 479 277 416 c 0
 277 287 278 159 287 31 c 1
 161 -9 l 1
 142 3 l 1
 146 182 148 539 148 587 c 0
 148 608 143 630 126 645 c 2
 91 675 l 1
 93 692 l 1
 445 692 l 1
 645 692 l 1
EndSplineSet
EndChar

StartChar: u1D6AB
Encoding: 120491 120491 214
Width: 916
Flags: MW
HStem: -2 59 679 20<588 588>
VStem: 57 794
LayerCount: 2
Fore
SplineSet
452 669 m 1
 588 699 l 1
 624 574 664 450 714 328 c 0
 752 235 798 145 850 55 c 1
 851 44 l 1
 717 -7 l 1
 643 -1 312 6 312 6 c 1
 197 6 82 0 60 -1 c 1
 60 0 58 20 57 34 c 1
 196 243 354 483 452 669 c 1
163 67 m 1
 647 55 l 1
 659 64 669 69 669 69 c 1
 594 230 530 404 471 568 c 1
 467 566 457 564 456 564 c 0
 366 400 261 225 163 67 c 1
EndSplineSet
EndChar

StartChar: u1D6AF
Encoding: 120495 120495 215
Width: 1119
Flags: MW
HStem: 651 48
VStem: 832 150
LayerCount: 2
Fore
SplineSet
695 429 m 2
 711 473 l 1
 734 473 l 1
 734 229 l 1
 706 229 l 1
 690 285 l 2
 687 296 674 300 663 301 c 0
 615 304 517 303 444 301 c 0
 430 301 414 296 409 284 c 2
 388 229 l 1
 368 229 l 1
 368 348 l 1
 368 473 l 1
 396 473 l 1
 409 422 l 2
 410 418 418 411 444 411 c 0
 517 409 597 408 663 410 c 0
 677 411 690 418 695 429 c 2
499 -14 m 0
 400 -14 298 5 227 64 c 0
 146 131 116 227 116 321 c 0
 116 424 153 526 240 598 c 0
 283 633 336 657 393 673 c 0
 459 692 530 699 600 699 c 0
 702 699 808 682 882 621 c 0
 956 559 982 470 982 383 c 0
 982 276 953 166 860 89 c 0
 766 10 630 -14 499 -14 c 0
569 32 m 0
 640 32 706 56 755 98 c 0
 785 123 804 159 816 193 c 0
 831 238 836 285 836 331 c 0
 836 383 830 435 812 485 c 0
 798 524 778 561 744 590 c 1
 690 634 617 655 542 655 c 0
 482 655 407 639 366 607 c 0
 281 542 266 443 266 348 c 0
 266 255 297 161 376 94 c 0
 427 52 500 32 569 32 c 0
EndSplineSet
EndChar

StartChar: u1D6B2
Encoding: 120498 120498 216
Width: 987
Flags: MW
HStem: -13 21<718 718> 674 20<586 586>
VStem: 52 870
LayerCount: 2
Fore
SplineSet
471 672 m 1
 586 694 l 1
 612 596 640 499 673 402 c 0
 698 330 725 258 759 188 c 1
 779 150 800 108 832 80 c 0
 847 67 867 62 888 62 c 0
 898 62 909 63 919 66 c 1
 921 39 l 1
 718 -13 l 1
 687 -2 664 19 653 45 c 1
 641 77 538 374 481 539 c 1
 464 539 l 1
 360 366 274 200 187 20 c 1
 65 -4 l 1
 52 16 l 1
 205 228 345 447 471 672 c 1
EndSplineSet
EndChar

StartChar: u1D6B5
Encoding: 120501 120501 217
Width: 774
Flags: MW
HStem: -3 109 169 20<681 681> 306 107 505 21<60 93 60 60 683 708 683 683> 584 115
VStem: 60 651<186 505>
LayerCount: 2
Fore
SplineSet
711 186 m 1
 688 -14 l 1
 86 -6 l 1
 64 186 l 1
 92 188 l 1
 110 136 l 2
 118 115 145 106 172 106 c 2
 601 106 l 2
 624 106 650 113 658 133 c 2
 681 189 l 1
 711 186 l 1
194 413 m 1
 580 413 l 1
 585 406 l 1
 552 308 l 1
 258 307 l 2
 228 307 198 305 168 302 c 1
 160 308 l 1
 194 413 l 1
684 693 m 1
 708 505 l 1
 683 505 l 1
 659 547 l 2
 652 560 637 569 621 574 c 1
 600 582 577 584 554 584 c 2
 186 585 l 2
 162 585 134 582 124 562 c 2
 93 505 l 1
 60 505 l 1
 82 700 l 1
 684 693 l 1
EndSplineSet
EndChar

StartChar: u1D6B7
Encoding: 120503 120503 218
Width: 983
Flags: MW
HStem: -14 21<684 684> 623 65
VStem: 162 137 674 137
LayerCount: 2
Fore
SplineSet
812 214 m 2
 821 19 l 1
 684 -14 l 1
 666 -3 l 1
 672 191 l 2
 673 231 674 440 674 601 c 0
 674 617 657 623 633 623 c 2
 342 623 l 2
 324 623 306 615 303 599 c 0
 298 562 298 411 298 316 c 0
 298 220 300 124 307 27 c 1
 174 -9 l 1
 157 1 l 1
 161 103 162 206 162 309 c 0
 162 408 158 507 158 605 c 0
 158 619 153 633 137 638 c 2
 64 659 l 1
 64 690 l 1
 141 687 217 686 295 686 c 2
 736 686 l 1
 918 686 l 1
 916 653 l 1
 851 641 l 2
 827 636 812 615 811 595 c 0
 809 554 809 512 809 471 c 0
 809 385 809 288 812 214 c 2
EndSplineSet
EndChar

StartChar: u1D6BA
Encoding: 120506 120506 219
Width: 840
Flags: MW
HStem: 0 20 623 66
VStem: 63 692
LayerCount: 2
Fore
SplineSet
443 378 m 2
 221 125 l 1
 396 125 570 126 744 134 c 1
 750 119 l 1
 714 -1 l 1
 671 2 626 2 581 2 c 0
 409 3 236 1 63 1 c 1
 83 68 l 1
 168 150 265 260 342 350 c 1
 127 626 l 1
 127 639 l 1
 213 690 l 1
 382 690 552 690 721 699 c 1
 732 691 l 1
 690 623 l 1
 618 626 445 626 319 626 c 1
 313 619 l 1
 445 442 l 2
 456 428 460 419 460 411 c 0
 460 403 452 389 443 378 c 2
EndSplineSet
EndChar

